<svg width="15" height="14" viewBox="0 0 15 14" fill="none" xmlns="http://www.w3.org/2000/svg">
<path fill-rule="evenodd" clip-rule="evenodd" d="M4.375 0.125L13.75 0.125C13.9158 0.125 14.0747 0.190848 14.1919 0.308058C14.3092 0.425268 14.375 0.58424 14.375 0.75V10.125C14.375 10.4702 14.0952 10.75 13.75 10.75C13.4048 10.75 13.125 10.4702 13.125 10.125V2.25888L1.69194 13.6919C1.44786 13.936 1.05214 13.936 0.808058 13.6919C0.563981 13.4479 0.563981 13.0521 0.808058 12.8081L12.2411 1.375L4.375 1.375C4.02982 1.375 3.75 1.09518 3.75 0.75C3.75 0.404822 4.02982 0.125 4.375 0.125Z" fill="white"/>
</svg>
