<svg width="19" height="20" viewBox="0 0 19 20" fill="none" xmlns="http://www.w3.org/2000/svg">
<path d="M17.3091 5.48422H10.5212V8.9024H18.4485V6.62362C18.4485 5.99937 17.9394 5.48422 17.3091 5.48422ZM1.36364 5.48422C0.733334 5.48422 0.224243 5.99331 0.224243 6.62362V8.9024H8.2V5.48422H1.36364ZM1.36364 10.0418V18.0176C1.36364 18.6479 1.87273 19.1569 2.50303 19.1569H8.2V10.0418H1.36364ZM16.1697 19.1569C16.8 19.1569 17.3091 18.6479 17.3091 18.0176V10.0418H10.5212V19.1569H16.1697ZM9.3394 4.33877C9.34546 4.33877 9.34546 4.34483 9.34546 4.35089H13.903C15.4788 4.35089 16.1818 3.56301 16.1818 2.59937C16.1818 1.63574 15.4727 0.847858 13.903 0.847858C12.4303 0.847858 11.2727 1.52665 10.4849 2.31452C9.78182 1.8721 8.89091 1.86604 8.18182 2.29028C7.39394 1.50846 6.24243 0.841797 4.78182 0.841797C3.20606 0.841797 2.50303 1.62968 2.50303 2.59331C2.50303 3.55695 3.20606 4.34483 4.78182 4.34483H9.3394V4.33877ZM15.0303 2.6418C15.0303 3.11452 14.4121 3.21149 13.8909 3.21149H11.303C11.297 3.19331 11.2849 3.18119 11.2788 3.16301C11.8606 2.59937 12.7333 2.0721 13.8909 2.0721C14.4121 2.0721 15.0303 2.16907 15.0303 2.6418ZM3.64243 2.6418C3.64243 2.16907 4.26061 2.0721 4.78182 2.0721C5.91515 2.0721 6.77576 2.58119 7.35152 3.12058C7.33334 3.15089 7.32121 3.18119 7.30303 3.21149H4.78182C4.26061 3.21149 3.64243 3.10846 3.64243 2.6418Z" fill="#E35336"/>
</svg>
