<svg width="42" height="42" viewBox="0 0 42 42" fill="none" xmlns="http://www.w3.org/2000/svg">
<path d="M21 0.692383C9.80771 0.692383 0.692322 9.80777 0.692322 21.0001C0.692322 32.1924 9.80771 41.3078 21 41.3078C32.1923 41.3078 41.3077 32.1924 41.3077 21.0001C41.3077 9.80777 32.1923 0.692383 21 0.692383ZM21 4.38469C30.1947 4.38469 37.6154 11.8054 37.6154 21.0001C37.6154 30.1948 30.1947 37.6155 21 37.6155C11.8053 37.6155 4.38463 30.1948 4.38463 21.0001C4.38463 11.8054 11.8053 4.38469 21 4.38469ZM20.8269 13.4424C18.7933 17.69 14.7476 22.2837 14.1923 23.0193V25.6155H20.8269V28.7308H23.9423V25.6155H25.7885V23.0193H23.9423V13.4424H20.8269ZM20.8269 17.6539V23.0193H17.1346C17.5024 22.6515 19.5361 20.2357 20.8269 17.6539Z" fill="#E35336"/>
</svg>
