<svg width="19" height="20" viewBox="0 0 19 20" fill="none" xmlns="http://www.w3.org/2000/svg">
<path d="M0.198608 7.93239C0.237196 4.47662 2.56105 1.50107 5.90534 0.660705C10.1543 -0.406895 14.4204 2.41003 15.115 6.74474C15.3851 8.42117 15.115 10.0161 14.3047 11.5082C14.2103 11.684 14.2403 11.774 14.369 11.9027C15.6509 13.1761 16.9329 14.458 18.2106 15.74C18.9481 16.4818 19.0252 17.5708 18.4078 18.3297C17.6704 19.2387 16.3884 19.2944 15.5352 18.4498C14.2618 17.1849 12.9927 15.9158 11.7321 14.6381C11.5606 14.4666 11.4491 14.4452 11.2305 14.5609C6.75427 16.932 1.26621 14.278 0.348673 9.29583C0.267209 8.84993 0.250059 8.38687 0.202896 7.93239H0.198608ZM0.961793 7.93239C0.953218 11.6497 3.9888 14.6853 7.71468 14.6939C11.4063 14.7024 14.4676 11.654 14.4762 7.9624C14.4847 4.23223 11.4577 1.18807 7.7447 1.1795C4.00595 1.17092 0.970368 4.19365 0.961793 7.93239ZM12.1823 14.0464C13.2242 15.0883 14.2918 16.1559 15.3594 17.2235C15.6252 17.4893 15.8782 17.768 16.1612 18.0124C16.5256 18.3297 16.9544 18.394 17.4003 18.1925C18.142 17.8624 18.3178 16.8977 17.739 16.3103C16.4484 15.0111 15.1493 13.7163 13.8545 12.4215C13.833 12.4 13.8073 12.3872 13.8287 12.4L12.1866 14.0422L12.1823 14.0464Z" fill="black"/>
<path d="M2.75208 7.92404C2.76494 6.61634 3.21513 5.48014 4.10694 4.52401C4.18412 4.44255 4.29131 4.36537 4.39849 4.33107C4.55713 4.27962 4.69434 4.35251 4.78009 4.494C4.87441 4.64407 4.85298 4.79413 4.7415 4.93133C4.57 5.14142 4.38135 5.33436 4.23128 5.55731C3.10365 7.19516 3.27944 9.3861 4.64289 10.8353C4.67719 10.8739 4.71577 10.9125 4.75007 10.9511C4.88299 11.1268 4.87441 11.3198 4.72864 11.457C4.58715 11.5942 4.34704 11.607 4.20555 11.4441C3.96974 11.174 3.72964 10.9039 3.53241 10.6038C3.00504 9.79342 2.75207 8.89303 2.75636 7.92404H2.75208Z" fill="black"/>
</svg>
