<svg width="42" height="42" viewBox="0 0 42 42" fill="none" xmlns="http://www.w3.org/2000/svg">
<path d="M21 0.692383C9.80764 0.692383 0.692261 9.80777 0.692261 21.0001C0.692261 32.1924 9.80764 41.3078 21 41.3078C32.1923 41.3078 41.3076 32.1924 41.3076 21.0001C41.3076 9.80777 32.1923 0.692383 21 0.692383ZM21 4.38469C30.1947 4.38469 37.6153 11.8054 37.6153 21.0001C37.6153 30.1948 30.1947 37.6155 21 37.6155C11.8052 37.6155 4.38457 30.1948 4.38457 21.0001C4.38457 11.8054 11.8052 4.38469 21 4.38469ZM19.7307 13.4424C18.6923 13.5217 17.7908 13.7741 16.9615 14.1924V16.9616C17.8846 16.4063 18.7932 16.0385 19.9038 16.0385C21.5625 16.0385 22.2692 16.5938 22.2692 17.8847C22.2692 19.1756 21.3605 19.9039 19.3269 19.9039H18.0576V22.5001H19.5C20.423 22.5001 22.8461 22.8462 22.8461 24.6924C22.8461 26.5385 21 26.7116 20.0769 26.7116C18.5985 26.7116 17.4951 26.351 16.3846 25.6155V28.5578C17.4951 29.1131 18.7716 29.4808 20.25 29.4808C22.0961 29.4808 26.1923 28.9256 26.1923 24.8655C26.1923 22.0962 23.7836 21.3607 22.673 21.1732C24.7067 20.6179 25.7884 19.3414 25.7884 17.3078C25.7884 13.9832 22.4855 13.4424 20.8269 13.4424C20.4591 13.4424 20.0769 13.4135 19.7307 13.4424Z" fill="#E35336"/>
</svg>
