<svg width="42" height="42" viewBox="0 0 42 42" fill="none" xmlns="http://www.w3.org/2000/svg">
<path d="M21 0.692383C9.80771 0.692383 0.692322 9.80777 0.692322 21.0001C0.692322 32.1924 9.80771 41.3078 21 41.3078C32.1923 41.3078 41.3077 32.1924 41.3077 21.0001C41.3077 9.80777 32.1923 0.692383 21 0.692383ZM21 4.38469C30.1947 4.38469 37.6154 11.8054 37.6154 21.0001C37.6154 30.1948 30.1947 37.6155 21 37.6155C11.8053 37.6155 4.38463 30.1948 4.38463 21.0001C4.38463 11.8054 11.8053 4.38469 21 4.38469ZM17.3077 13.7885L16.5577 22.5001C17.6683 22.3126 18.5914 22.2693 19.3269 22.2693C21.5409 22.2693 22.6731 23.0409 22.6731 24.5193C22.6731 26.553 20.6539 26.8847 19.7308 26.8847C18.6202 26.8847 17.4952 26.6972 16.3846 25.9616V28.9616C17.4952 29.5169 18.5769 29.6539 20.4231 29.6539C22.2692 29.6539 26.3654 28.7741 26.3654 24.3462C26.3654 20.4664 22.8317 19.7308 21.1731 19.7308H19.7308L19.9039 16.5578H25.4423V13.7885H17.3077Z" fill="#E35336"/>
</svg>
