<svg width="40" height="40" viewBox="0 0 40 40" fill="none" xmlns="http://www.w3.org/2000/svg">
<path d="M33.191 22.856C33.191 22.5927 33.0155 22.3617 32.7618 22.2912C24.8322 20.087 19.8542 13.8143 17.7288 6.1323C17.5738 5.57195 16.7539 5.57195 16.5988 6.1323C14.4733 13.815 9.49605 20.087 1.56592 22.2912C1.00643 22.4468 1.00643 23.2653 1.56592 23.4208C6.38386 24.7601 10.575 27.7866 13.3673 31.9429C13.7899 32.5722 14.7631 31.9183 14.3405 31.2891C11.7351 27.411 7.97642 24.4646 3.62652 22.8559C10.0913 20.4634 15.1686 15.0613 17.1638 8.46373C19.159 15.0613 24.2364 20.4637 30.7016 22.856C24.2366 25.2483 19.159 30.6506 17.1638 37.2483C16.8336 36.1562 16.4179 35.0856 15.925 34.0591C15.597 33.3758 14.54 33.8832 14.8682 34.5665C15.6405 36.1754 16.1252 37.8678 16.5988 39.5797C16.7539 40.14 17.5738 40.14 17.7288 39.5797C19.8544 31.897 24.8316 25.6251 32.7618 23.4208C33.0155 23.3503 33.191 23.1194 33.191 22.856Z" fill="#24292E"/>
<path d="M38.4342 6.57896C37.2676 6.25474 36.1726 5.65657 35.2675 4.84915C35.026 4.63357 34.6553 4.65483 34.4398 4.89636C34.2243 5.13796 34.2454 5.50853 34.487 5.72402C35.126 6.29398 35.8475 6.77312 36.6199 7.14408C34.6271 8.10454 33.0287 9.77229 32.1565 11.8149C31.2843 9.77214 29.6855 8.10407 27.6924 7.14369C29.6854 6.18338 31.284 4.51563 32.1562 2.47316C32.2478 2.68842 32.3477 2.9004 32.4557 3.10839C32.6047 3.39579 32.9587 3.5078 33.2459 3.35882C33.5333 3.20976 33.6454 2.85592 33.4963 2.56852C33.1433 1.88772 32.915 1.15948 32.7215 0.4203C32.5666 -0.140126 31.7466 -0.140048 31.5915 0.420221C30.8231 3.33522 28.8614 5.74981 25.8788 6.57888C25.3194 6.73443 25.3194 7.55295 25.8788 7.70849C28.8615 8.53756 30.8241 10.9543 31.5915 13.8672C31.7466 14.4275 32.5666 14.4276 32.7215 13.8672C33.4895 10.9522 35.4518 8.53756 38.4341 7.70857C38.9937 7.55295 38.9937 6.73451 38.4342 6.57896Z" fill="#24292E"/>
<path d="M36.1781 34.6767C34.3938 34.1807 33.145 32.7056 32.7215 30.9388C32.5664 30.3783 31.7466 30.3783 31.5915 30.9388C31.1697 32.7069 29.9193 34.1808 28.1348 34.6767C27.5753 34.8323 27.5753 35.6508 28.1348 35.8063C29.9191 36.3023 31.168 37.7774 31.5915 39.5443C31.7466 40.1047 32.5664 40.1047 32.7215 39.5443C33.1432 37.7762 34.3936 36.3023 36.1781 35.8063C36.7376 35.6508 36.7376 34.8323 36.1781 34.6767ZM32.1565 37.6868C31.6224 36.6644 30.8006 35.8125 29.8016 35.2415C30.8006 34.6706 31.6224 33.8187 32.1565 32.7962C32.6907 33.8187 33.5125 34.6705 34.5114 35.2415C33.5125 35.8124 32.6907 36.6644 32.1565 37.6868Z" fill="#24292E"/>
<path d="M1.56583 10.93C2.91296 11.3045 3.86709 12.4339 4.18458 13.769C4.3395 14.3295 5.15966 14.3295 5.31458 13.769C5.63489 12.4311 6.58347 11.3053 7.93334 10.93C8.49283 10.7745 8.49283 9.95596 7.93334 9.80041C6.58613 9.42594 5.63208 8.29657 5.31458 6.96139C5.15966 6.40089 4.3395 6.40089 4.18458 6.96139C3.86427 8.29922 2.91561 9.42515 1.56583 9.80041C1.00634 9.95596 1.00634 10.7744 1.56583 10.93ZM4.74962 8.71223C5.14207 9.38256 5.69218 9.95095 6.3475 10.3651C5.6921 10.7793 5.14207 11.3477 4.74962 12.018C4.35709 11.3477 3.80698 10.7793 3.15174 10.3651C3.80698 9.95103 4.35701 9.38256 4.74962 8.71223Z" fill="#24292E"/>
</svg>
