<svg width="138" height="16" viewBox="0 0 138 16" fill="none" xmlns="http://www.w3.org/2000/svg">
<path d="M10.7895 8.11699C10.7895 7.77849 10.762 7.43749 10.7035 7.10449H6.00201V9.02399H8.69401C8.63883 9.3306 8.52213 9.62285 8.35096 9.88314C8.17978 10.1434 7.95767 10.3664 7.69801 10.5385V11.7835H9.30401C10.247 10.9155 10.789 9.63349 10.789 8.11699H10.7895Z" fill="#2A84FC"/>
<path d="M6.00199 12.987C7.34598 12.987 8.47999 12.546 9.30598 11.784L7.69949 10.5385C7.25299 10.8425 6.67599 11.0145 6.00349 11.0145C4.70349 11.0145 3.60049 10.1375 3.20499 8.95801H1.54749V10.2415C1.96259 11.067 2.59896 11.7609 3.38555 12.2457C4.17214 12.7305 5.07799 12.9872 6.00199 12.987Z" fill="#00AC47"/>
<path d="M3.2035 8.95813C2.99469 8.33909 2.99469 7.66866 3.2035 7.04962V5.76562H1.5475C1.19878 6.46021 1.01718 7.22667 1.01718 8.00387C1.01718 8.78108 1.19878 9.54754 1.5475 10.2421L3.2035 8.95813Z" fill="#FFBA00"/>
<path d="M6.00199 4.9914C6.71264 4.97988 7.39935 5.24817 7.91399 5.7384L9.33699 4.3154C8.4345 3.4687 7.23938 3.00409 6.00199 3.0189C5.07785 3.01866 4.17185 3.27539 3.38522 3.7604C2.59859 4.24541 1.96231 4.9396 1.54749 5.7654L3.20349 7.0504C3.59699 5.8689 4.70149 4.9914 6.00199 4.9914Z" fill="#FC2C25"/>
<g clip-path="url(#clip0_7001_5696)">
<path d="M19.723 2.96578C19.8255 2.7194 20.1745 2.7194 20.277 2.96578L21.5167 5.94627C21.5599 6.05014 21.6575 6.12111 21.7697 6.1301L24.9874 6.38806C25.2534 6.40939 25.3612 6.74134 25.1586 6.91494L22.707 9.01494C22.6216 9.08813 22.5843 9.20296 22.6104 9.31239L23.3594 12.4523C23.4213 12.7119 23.1389 12.917 22.9112 12.7779L20.1564 11.0953C20.0604 11.0367 19.9396 11.0367 19.8436 11.0953L17.0888 12.7779C16.8611 12.917 16.5787 12.7119 16.6406 12.4523L17.3896 9.31239C17.4157 9.20296 17.3784 9.08813 17.293 9.01494L14.8414 6.91494C14.6388 6.74134 14.7466 6.40939 15.0126 6.38806L18.2303 6.1301C18.3425 6.12111 18.4401 6.05014 18.4833 5.94627L19.723 2.96578Z" fill="#E5E7EA"/>
<g clip-path="url(#clip1_7001_5696)">
<path d="M19.723 2.96578C19.8255 2.7194 20.1745 2.7194 20.277 2.96578L21.5167 5.94627C21.5599 6.05014 21.6575 6.12111 21.7697 6.1301L24.9874 6.38806C25.2534 6.40939 25.3612 6.74134 25.1586 6.91494L22.707 9.01494C22.6216 9.08813 22.5843 9.20296 22.6104 9.31239L23.3594 12.4523C23.4213 12.7119 23.1389 12.917 22.9112 12.7779L20.1564 11.0953C20.0604 11.0367 19.9396 11.0367 19.8436 11.0953L17.0888 12.7779C16.8611 12.917 16.5787 12.7119 16.6406 12.4523L17.3896 9.31239C17.4157 9.20296 17.3784 9.08813 17.293 9.01494L14.8414 6.91494C14.6388 6.74134 14.7466 6.40939 15.0126 6.38806L18.2303 6.1301C18.3425 6.12111 18.4401 6.05014 18.4833 5.94627L19.723 2.96578Z" fill="#FDB022"/>
</g>
</g>
<g clip-path="url(#clip2_7001_5696)">
<path d="M31.723 2.96578C31.8255 2.7194 32.1745 2.7194 32.277 2.96578L33.5167 5.94627C33.5599 6.05014 33.6575 6.12111 33.7697 6.1301L36.9874 6.38806C37.2534 6.40939 37.3612 6.74134 37.1586 6.91494L34.707 9.01494C34.6216 9.08813 34.5843 9.20296 34.6104 9.31239L35.3594 12.4523C35.4213 12.7119 35.1389 12.917 34.9112 12.7779L32.1564 11.0953C32.0604 11.0367 31.9396 11.0367 31.8436 11.0953L29.0888 12.7779C28.8611 12.917 28.5787 12.7119 28.6406 12.4523L29.3896 9.31239C29.4157 9.20296 29.3784 9.08813 29.293 9.01494L26.8414 6.91494C26.6388 6.74134 26.7466 6.40939 27.0126 6.38806L30.2303 6.1301C30.3425 6.12111 30.4401 6.05014 30.4833 5.94627L31.723 2.96578Z" fill="#E5E7EA"/>
<g clip-path="url(#clip3_7001_5696)">
<path d="M31.723 2.96578C31.8255 2.7194 32.1745 2.7194 32.277 2.96578L33.5167 5.94627C33.5599 6.05014 33.6575 6.12111 33.7697 6.1301L36.9874 6.38806C37.2534 6.40939 37.3612 6.74134 37.1586 6.91494L34.707 9.01494C34.6216 9.08813 34.5843 9.20296 34.6104 9.31239L35.3594 12.4523C35.4213 12.7119 35.1389 12.917 34.9112 12.7779L32.1564 11.0953C32.0604 11.0367 31.9396 11.0367 31.8436 11.0953L29.0888 12.7779C28.8611 12.917 28.5787 12.7119 28.6406 12.4523L29.3896 9.31239C29.4157 9.20296 29.3784 9.08813 29.293 9.01494L26.8414 6.91494C26.6388 6.74134 26.7466 6.40939 27.0126 6.38806L30.2303 6.1301C30.3425 6.12111 30.4401 6.05014 30.4833 5.94627L31.723 2.96578Z" fill="#FDB022"/>
</g>
</g>
<g clip-path="url(#clip4_7001_5696)">
<path d="M43.723 2.96578C43.8255 2.7194 44.1745 2.7194 44.277 2.96578L45.5167 5.94627C45.5599 6.05014 45.6575 6.12111 45.7697 6.1301L48.9874 6.38806C49.2534 6.40939 49.3612 6.74134 49.1586 6.91494L46.707 9.01494C46.6216 9.08813 46.5843 9.20296 46.6104 9.31239L47.3594 12.4523C47.4213 12.7119 47.1389 12.917 46.9112 12.7779L44.1564 11.0953C44.0604 11.0367 43.9396 11.0367 43.8436 11.0953L41.0888 12.7779C40.8611 12.917 40.5787 12.7119 40.6406 12.4523L41.3896 9.31239C41.4157 9.20296 41.3784 9.08813 41.293 9.01494L38.8414 6.91494C38.6388 6.74134 38.7466 6.40939 39.0126 6.38806L42.2303 6.1301C42.3425 6.12111 42.4401 6.05014 42.4833 5.94627L43.723 2.96578Z" fill="#E5E7EA"/>
<g clip-path="url(#clip5_7001_5696)">
<path d="M43.723 2.96578C43.8255 2.7194 44.1745 2.7194 44.277 2.96578L45.5167 5.94627C45.5599 6.05014 45.6575 6.12111 45.7697 6.1301L48.9874 6.38806C49.2534 6.40939 49.3612 6.74134 49.1586 6.91494L46.707 9.01494C46.6216 9.08813 46.5843 9.20296 46.6104 9.31239L47.3594 12.4523C47.4213 12.7119 47.1389 12.917 46.9112 12.7779L44.1564 11.0953C44.0604 11.0367 43.9396 11.0367 43.8436 11.0953L41.0888 12.7779C40.8611 12.917 40.5787 12.7119 40.6406 12.4523L41.3896 9.31239C41.4157 9.20296 41.3784 9.08813 41.293 9.01494L38.8414 6.91494C38.6388 6.74134 38.7466 6.40939 39.0126 6.38806L42.2303 6.1301C42.3425 6.12111 42.4401 6.05014 42.4833 5.94627L43.723 2.96578Z" fill="#FDB022"/>
</g>
</g>
<g clip-path="url(#clip6_7001_5696)">
<path d="M55.723 2.96578C55.8255 2.7194 56.1745 2.7194 56.277 2.96578L57.5167 5.94627C57.5599 6.05014 57.6575 6.12111 57.7697 6.1301L60.9874 6.38806C61.2534 6.40939 61.3612 6.74134 61.1586 6.91494L58.707 9.01494C58.6216 9.08813 58.5843 9.20296 58.6104 9.31239L59.3594 12.4523C59.4213 12.7119 59.1389 12.917 58.9112 12.7779L56.1564 11.0953C56.0604 11.0367 55.9396 11.0367 55.8436 11.0953L53.0888 12.7779C52.8611 12.917 52.5787 12.7119 52.6406 12.4523L53.3896 9.31239C53.4157 9.20296 53.3784 9.08813 53.293 9.01494L50.8414 6.91494C50.6388 6.74134 50.7466 6.40939 51.0126 6.38806L54.2303 6.1301C54.3425 6.12111 54.4401 6.05014 54.4833 5.94627L55.723 2.96578Z" fill="#E5E7EA"/>
<g clip-path="url(#clip7_7001_5696)">
<path d="M55.723 2.96578C55.8255 2.7194 56.1745 2.7194 56.277 2.96578L57.5167 5.94627C57.5599 6.05014 57.6575 6.12111 57.7697 6.1301L60.9874 6.38806C61.2534 6.40939 61.3612 6.74134 61.1586 6.91494L58.707 9.01494C58.6216 9.08813 58.5843 9.20296 58.6104 9.31239L59.3594 12.4523C59.4213 12.7119 59.1389 12.917 58.9112 12.7779L56.1564 11.0953C56.0604 11.0367 55.9396 11.0367 55.8436 11.0953L53.0888 12.7779C52.8611 12.917 52.5787 12.7119 52.6406 12.4523L53.3896 9.31239C53.4157 9.20296 53.3784 9.08813 53.293 9.01494L50.8414 6.91494C50.6388 6.74134 50.7466 6.40939 51.0126 6.38806L54.2303 6.1301C54.3425 6.12111 54.4401 6.05014 54.4833 5.94627L55.723 2.96578Z" fill="#FDB022"/>
</g>
</g>
<g clip-path="url(#clip8_7001_5696)">
<path d="M67.723 2.96578C67.8255 2.7194 68.1745 2.7194 68.277 2.96578L69.5167 5.94627C69.5599 6.05014 69.6575 6.12111 69.7697 6.1301L72.9874 6.38806C73.2534 6.40939 73.3612 6.74134 73.1586 6.91494L70.707 9.01494C70.6216 9.08813 70.5843 9.20296 70.6104 9.31239L71.3594 12.4523C71.4213 12.7119 71.1389 12.917 70.9112 12.7779L68.1564 11.0953C68.0604 11.0367 67.9396 11.0367 67.8436 11.0953L65.0888 12.7779C64.8611 12.917 64.5787 12.7119 64.6406 12.4523L65.3896 9.31239C65.4157 9.20296 65.3784 9.08813 65.293 9.01494L62.8414 6.91494C62.6388 6.74134 62.7466 6.40939 63.0126 6.38806L66.2303 6.1301C66.3425 6.12111 66.4401 6.05014 66.4833 5.94627L67.723 2.96578Z" fill="#E5E7EA"/>
<g clip-path="url(#clip9_7001_5696)">
<path d="M67.723 2.96578C67.8255 2.7194 68.1745 2.7194 68.277 2.96578L69.5167 5.94627C69.5599 6.05014 69.6575 6.12111 69.7697 6.1301L72.9874 6.38806C73.2534 6.40939 73.3612 6.74134 73.1586 6.91494L70.707 9.01494C70.6216 9.08813 70.5843 9.20296 70.6104 9.31239L71.3594 12.4523C71.4213 12.7119 71.1389 12.917 70.9112 12.7779L68.1564 11.0953C68.0604 11.0367 67.9396 11.0367 67.8436 11.0953L65.0888 12.7779C64.8611 12.917 64.5787 12.7119 64.6406 12.4523L65.3896 9.31239C65.4157 9.20296 65.3784 9.08813 65.293 9.01494L62.8414 6.91494C62.6388 6.74134 62.7466 6.40939 63.0126 6.38806L66.2303 6.1301C66.3425 6.12111 66.4401 6.05014 66.4833 5.94627L67.723 2.96578Z" fill="#FDB022"/>
</g>
</g>
<defs>
<clipPath id="clip0_7001_5696">
<rect width="12" height="12" fill="white" transform="translate(14 2)"/>
</clipPath>
<clipPath id="clip1_7001_5696">
<rect width="12" height="12" fill="white" transform="translate(14 2)"/>
</clipPath>
<clipPath id="clip2_7001_5696">
<rect width="12" height="12" fill="white" transform="translate(26 2)"/>
</clipPath>
<clipPath id="clip3_7001_5696">
<rect width="12" height="12" fill="white" transform="translate(26 2)"/>
</clipPath>
<clipPath id="clip4_7001_5696">
<rect width="12" height="12" fill="white" transform="translate(38 2)"/>
</clipPath>
<clipPath id="clip5_7001_5696">
<rect width="12" height="12" fill="white" transform="translate(38 2)"/>
</clipPath>
<clipPath id="clip6_7001_5696">
<rect width="12" height="12" fill="white" transform="translate(50 2)"/>
</clipPath>
<clipPath id="clip7_7001_5696">
<rect width="12" height="12" fill="white" transform="translate(50 2)"/>
</clipPath>
<clipPath id="clip8_7001_5696">
<rect width="12" height="12" fill="white" transform="translate(62 2)"/>
</clipPath>
<clipPath id="clip9_7001_5696">
<rect width="9" height="12" fill="white" transform="translate(62 2)"/>
</clipPath>
</defs>
</svg>
