<svg width="10" height="10" viewBox="0 0 10 10" fill="none" xmlns="http://www.w3.org/2000/svg">
<path fill-rule="evenodd" clip-rule="evenodd" d="M2.2998 0.800049C1.47138 0.800049 0.799805 1.47162 0.799805 2.30005V4.02726C0.799805 4.42508 0.95784 4.80661 1.23914 5.08792L5.13914 8.98792C5.72493 9.5737 6.67468 9.5737 7.26046 8.98792L8.98767 7.26071C9.57346 6.67492 9.57346 5.72518 8.98767 5.13939L5.08767 1.23939C4.80637 0.958084 4.42484 0.800049 4.02701 0.800049H2.2998ZM2.5998 3.20005C2.93118 3.20005 3.1998 2.93142 3.1998 2.60005C3.1998 2.26868 2.93118 2.00005 2.5998 2.00005C2.26843 2.00005 1.9998 2.26868 1.9998 2.60005C1.9998 2.93142 2.26843 3.20005 2.5998 3.20005Z" fill="white"/>
</svg>
