<svg width="300" height="10" viewBox="0 0 300 10" fill="none" xmlns="http://www.w3.org/2000/svg">
<path d="M297.533 0.0253019L288.141 0.686302C287.576 0.65323 287.007 0.65323 286.443 0.686302C240.863 3.5053 195.45 5.2043 147.613 5.6903C100.022 6.1733 51.9778 5.8743 4.99442 5.2263C1.11295 5.1723 -1.99265 6.0893 2.14255 6.3693C84.574 11.9663 182.083 9.0833 266.583 3.0803C274.013 2.6023 281.374 2.0763 288.639 1.4843C288.965 1.46139 289.284 1.41567 289.589 1.3483L299.052 0.577302C301.043 0.410302 299.591 -0.120698 297.533 0.0253019ZM32.6037 6.6373C81.9018 7.0143 133.131 7.4153 183.107 6.4153C132.887 8.2783 82.224 8.6983 32.6037 6.6373Z" fill="#E35336"/>
</svg>
