<svg width="136" height="36" viewBox="0 0 136 36" fill="none" xmlns="http://www.w3.org/2000/svg">
<path d="M9.76 1.25H11L18.75 21.18H17L15 15.8H5.8L3.74 21.18H2L9.76 1.25ZM14.5 14.38L10.39 3.78L6.27 14.38H14.5Z" fill="#231F20"/>
<path d="M30.64 2.67H24.48V1.25H38.39V2.67H32.22V21.17H30.64V2.67Z" fill="#231F20"/>
<path d="M51.85 1.25H53.11L60.86 21.18H59.12L57.07 15.8H47.89L45.84 21.18H44.1L51.85 1.25ZM56.59 14.37L52.48 3.78L48.37 14.38L56.59 14.37Z" fill="#231F20"/>
<path d="M85.23 14.5398C83.97 18.5398 81.15 21.3398 77.01 21.3398C72.3 21.3398 68.01 17.1898 68.01 11.2198C68.01 5.24984 72.31 1.08984 77.01 1.08984C81.12 1.08984 84.01 3.93984 85.07 7.88984H83.49C82.49 4.72984 80.33 2.50984 77.01 2.50984C73.01 2.50984 69.58 6.01984 69.58 11.2098C69.58 16.3998 73.06 19.9098 77.01 19.9098C80.33 19.9098 82.54 17.6998 83.65 14.5298L85.23 14.5398Z" fill="#231F20"/>
<path d="M95.53 1.25H97.1V10.25H107.86V1.25H109.44V21.18H107.86V11.69H97.1V21.18H95.53V1.25Z" fill="#231F20"/>
<path d="M121.16 1.25H133.16V2.67H122.74V10.1H132.39V11.52H122.74V19.75H133.5V21.17H121.16V1.25Z" fill="#231F20"/>
<path d="M1.63 28.73H3.09C3.87262 28.7747 4.60849 29.1171 5.14674 29.687C5.685 30.2569 5.98486 31.0111 5.98486 31.795C5.98486 32.5789 5.685 33.3331 5.14674 33.903C4.60849 34.4729 3.87262 34.8153 3.09 34.86H1.63V28.73ZM3.09 34.42C3.78752 34.42 4.45648 34.1429 4.9497 33.6497C5.44292 33.1565 5.72 32.4875 5.72 31.79C5.72 31.0925 5.44292 30.4235 4.9497 29.9303C4.45648 29.4371 3.78752 29.16 3.09 29.16H2.09V34.42H3.09Z" fill="#231F20"/>
<path d="M9.28 28.73H13V29.16H9.77V31.45H12.77V31.89H9.77V34.42H13.08V34.86H9.28V28.73Z" fill="#231F20"/>
<path d="M16.34 28.7298H18.48C18.7174 28.7191 18.9545 28.7563 19.1773 28.8391C19.4 28.922 19.6038 29.0489 19.7764 29.2122C19.9491 29.3755 20.0871 29.5719 20.1822 29.7897C20.2773 30.0075 20.3276 30.2422 20.33 30.4798C20.3388 30.7562 20.2763 31.0303 20.1484 31.2755C20.0205 31.5207 19.8317 31.7288 19.6 31.8798C19.379 32.0273 19.1308 32.1293 18.87 32.1798L20.43 34.8598H19.84L18.38 32.2298H16.83V34.8598H16.34V28.7298ZM18.48 31.7898C18.6623 31.8058 18.846 31.7836 19.0193 31.7247C19.1926 31.6659 19.3517 31.5716 19.4867 31.448C19.6216 31.3243 19.7293 31.1739 19.803 31.0064C19.8767 30.8389 19.9148 30.6579 19.9148 30.4748C19.9148 30.2918 19.8767 30.1108 19.803 29.9433C19.7293 29.7758 19.6216 29.6254 19.4867 29.5017C19.3517 29.3781 19.1926 29.2838 19.0193 29.225C18.846 29.1661 18.6623 29.1439 18.48 29.1598H16.83V31.7998L18.48 31.7898Z" fill="#231F20"/>
<path d="M23.6 28.7302H24L26.43 34.0002L28.82 28.7002H29.26V34.8302H28.77V30.0002L26.58 34.8702H26.29L24.09 30.0002V34.8702H23.6V28.7302Z" fill="#231F20"/>
<path d="M34.42 28.73H34.81L37.2 34.86H36.66L36 33.21H33.21L32.57 34.86H32L34.42 28.73ZM35.88 32.73L34.61 29.47L33.35 32.73H35.88Z" fill="#231F20"/>
<path d="M40.85 29.1702H39V28.7402H43.28V29.1702H41.38V34.8602H40.89L40.85 29.1702Z" fill="#231F20"/>
<path d="M45.62 31.8001C45.5795 31.4115 45.6212 31.0186 45.7422 30.6471C45.8632 30.2755 46.0609 29.9336 46.3225 29.6433C46.5841 29.353 46.9038 29.121 47.2608 28.9621C47.6178 28.8033 48.0042 28.7212 48.395 28.7212C48.7858 28.7212 49.1722 28.8033 49.5292 28.9621C49.8862 29.121 50.2058 29.353 50.4675 29.6433C50.7291 29.9336 50.9268 30.2755 51.0478 30.6471C51.1688 31.0186 51.2105 31.4115 51.17 31.8001C51.2105 32.1888 51.1688 32.5816 51.0478 32.9531C50.9268 33.3247 50.7291 33.6667 50.4675 33.9569C50.2058 34.2472 49.8862 34.4793 49.5292 34.6381C49.1722 34.7969 48.7858 34.879 48.395 34.879C48.0042 34.879 47.6178 34.7969 47.2608 34.6381C46.9038 34.4793 46.5841 34.2472 46.3225 33.9569C46.0609 33.6667 45.8632 33.3247 45.7422 32.9531C45.6212 32.5816 45.5795 32.1888 45.62 31.8001ZM50.69 31.8001C50.7439 31.4683 50.725 31.1288 50.6347 30.805C50.5444 30.4813 50.3849 30.181 50.1671 29.925C49.9493 29.6689 49.6785 29.4633 49.3733 29.3223C49.0682 29.1813 48.7361 29.1082 48.4 29.1082C48.0639 29.1082 47.7318 29.1813 47.4266 29.3223C47.1215 29.4633 46.8507 29.6689 46.6329 29.925C46.4151 30.181 46.2556 30.4813 46.1653 30.805C46.075 31.1288 46.0561 31.4683 46.11 31.8001C46.0561 32.1319 46.075 32.4714 46.1653 32.7952C46.2556 33.119 46.4151 33.4192 46.6329 33.6753C46.8507 33.9313 47.1215 34.1369 47.4266 34.2779C47.7318 34.419 48.0639 34.492 48.4 34.492C48.7361 34.492 49.0682 34.419 49.3733 34.2779C49.6785 34.1369 49.9493 33.9313 50.1671 33.6753C50.3849 33.4192 50.5444 33.119 50.6347 32.7952C50.725 32.4714 50.7439 32.1319 50.69 31.8001Z" fill="#231F20"/>
<path d="M54.39 28.73H54.88V34.42H57.95V34.86H54.39V28.73Z" fill="#231F20"/>
<path d="M60.29 31.8001C60.2495 31.4115 60.2912 31.0186 60.4122 30.6471C60.5332 30.2755 60.7309 29.9336 60.9925 29.6433C61.2541 29.353 61.5738 29.121 61.9308 28.9621C62.2878 28.8033 62.6742 28.7212 63.065 28.7212C63.4557 28.7212 63.8422 28.8033 64.1992 28.9621C64.5562 29.121 64.8758 29.353 65.1375 29.6433C65.3991 29.9336 65.5968 30.2755 65.7178 30.6471C65.8388 31.0186 65.8805 31.4115 65.84 31.8001C65.8805 32.1888 65.8388 32.5816 65.7178 32.9531C65.5968 33.3247 65.3991 33.6667 65.1375 33.9569C64.8758 34.2472 64.5562 34.4793 64.1992 34.6381C63.8422 34.7969 63.4557 34.879 63.065 34.879C62.6742 34.879 62.2878 34.7969 61.9308 34.6381C61.5738 34.4793 61.2541 34.2472 60.9925 33.9569C60.7309 33.6667 60.5332 33.3247 60.4122 32.9531C60.2912 32.5816 60.2495 32.1888 60.29 31.8001ZM65.35 31.8001C65.4039 31.4683 65.385 31.1288 65.2947 30.805C65.2044 30.4813 65.0449 30.181 64.8271 29.925C64.6093 29.6689 64.3385 29.4633 64.0333 29.3223C63.7282 29.1813 63.3961 29.1082 63.06 29.1082C62.7239 29.1082 62.3918 29.1813 62.0866 29.3223C61.7815 29.4633 61.5107 29.6689 61.2929 29.925C61.0751 30.181 60.9155 30.4813 60.8253 30.805C60.735 31.1288 60.7161 31.4683 60.77 31.8001C60.7161 32.1319 60.735 32.4714 60.8253 32.7952C60.9155 33.119 61.0751 33.4192 61.2929 33.6753C61.5107 33.9313 61.7815 34.1369 62.0866 34.2779C62.3918 34.419 62.7239 34.492 63.06 34.492C63.3961 34.492 63.7282 34.419 64.0333 34.2779C64.3385 34.1369 64.6093 33.9313 64.8271 33.6753C65.0449 33.4192 65.2044 33.119 65.2947 32.7952C65.385 32.4714 65.4039 32.1319 65.35 31.8001Z" fill="#231F20"/>
<path d="M73.59 33.5999C73.4563 33.8457 73.2842 34.0686 73.08 34.2599C72.8644 34.4701 72.6094 34.6357 72.3297 34.7472C72.0501 34.8588 71.7511 34.9141 71.45 34.9099C71.0619 34.8895 70.6818 34.7924 70.3315 34.6242C69.9812 34.456 69.6677 34.22 69.4092 33.9298C69.1507 33.6397 68.9522 33.3012 68.8254 32.9339C68.6985 32.5666 68.6457 32.1778 68.67 31.7899C68.6457 31.4021 68.6985 31.0133 68.8254 30.646C68.9522 30.2787 69.1507 29.9402 69.4092 29.65C69.6677 29.3599 69.9812 29.1239 70.3315 28.9557C70.6818 28.7874 71.0619 28.6903 71.45 28.6699C72.0083 28.6727 72.5499 28.8608 72.9897 29.2047C73.4295 29.5486 73.7427 30.0288 73.88 30.5699H73.39C73.2711 30.1458 73.0155 29.7728 72.6629 29.5088C72.3103 29.2448 71.8805 29.1046 71.44 29.1099C71.1121 29.1312 70.7918 29.218 70.498 29.3652C70.2042 29.5123 69.9429 29.7169 69.7295 29.9667C69.516 30.2165 69.3548 30.5065 69.2552 30.8197C69.1557 31.1328 69.1199 31.4627 69.15 31.7899C69.1213 32.1169 69.1581 32.4462 69.2581 32.7588C69.3582 33.0714 69.5195 33.3609 69.7327 33.6104C69.9459 33.8599 70.2067 34.0644 70.4999 34.212C70.793 34.3596 71.1126 34.4473 71.44 34.4699C71.998 34.4543 72.5281 34.2223 72.9182 33.823C73.3082 33.4236 73.5276 32.8882 73.53 32.3299H71.53V31.8999H74V34.8999H73.61L73.59 33.5999Z" fill="#231F20"/>
<path d="M77.49 28.73H78V34.86H77.52L77.49 28.73Z" fill="#231F20"/>
<path d="M86.5 32.8202C86.3728 33.3967 86.0588 33.9151 85.6067 34.2948C85.1546 34.6746 84.5898 34.8944 84 34.9202C83.6119 34.8998 83.2318 34.8027 82.8815 34.6344C82.5312 34.4662 82.2177 34.2302 81.9592 33.9401C81.7007 33.6499 81.5022 33.3114 81.3753 32.9441C81.2485 32.5768 81.1957 32.188 81.22 31.8002C81.1957 31.4123 81.2485 31.0235 81.3753 30.6562C81.5022 30.2889 81.7007 29.9504 81.9592 29.6603C82.2177 29.3701 82.5312 29.1341 82.8815 28.9659C83.2318 28.7977 83.6119 28.7006 84 28.6802C84.591 28.6946 85.1592 28.9108 85.6103 29.2928C86.0615 29.6748 86.3683 30.1997 86.48 30.7802H86C85.9047 30.3175 85.6547 29.901 85.2912 29.5993C84.9277 29.2976 84.4723 29.1286 84 29.1202C83.6721 29.1415 83.3518 29.2283 83.058 29.3754C82.7642 29.5226 82.5029 29.7271 82.2894 29.9769C82.076 30.2267 81.9147 30.5168 81.8152 30.8299C81.7157 31.1431 81.6799 31.473 81.71 31.8002C81.6813 32.1271 81.7181 32.4565 81.8181 32.7691C81.9182 33.0816 82.0795 33.3711 82.2927 33.6206C82.5059 33.8702 82.7667 34.0747 83.0598 34.2223C83.353 34.3698 83.6726 34.4575 84 34.4802C84.4684 34.4581 84.9168 34.2841 85.2776 33.9847C85.6384 33.6852 85.892 33.2765 86 32.8202H86.5Z" fill="#231F20"/>
<path d="M91.13 28.73H91.52L93.91 34.86H93.37L92.74 33.21H89.91L89.28 34.86H88.74L91.13 28.73ZM92.59 32.73L91.32 29.47L90.05 32.73H92.59Z" fill="#231F20"/>
<path d="M96.68 28.73H97.17V34.42H100.24V34.86H96.68V28.73Z" fill="#231F20"/>
<path d="M112.07 32.8199C111.94 33.3994 111.62 33.9191 111.162 34.2974C110.704 34.6757 110.134 34.8912 109.54 34.9099C109.152 34.8895 108.772 34.7924 108.421 34.6242C108.071 34.456 107.758 34.22 107.499 33.9298C107.241 33.6397 107.042 33.3012 106.915 32.9339C106.788 32.5666 106.736 32.1778 106.76 31.7899C106.736 31.4021 106.788 31.0133 106.915 30.646C107.042 30.2787 107.241 29.9402 107.499 29.65C107.758 29.3599 108.071 29.1239 108.421 28.9557C108.772 28.7874 109.152 28.6903 109.54 28.6699C110.131 28.6844 110.699 28.9006 111.15 29.2826C111.601 29.6646 111.908 30.1894 112.02 30.7699H111.54C111.445 30.3072 111.195 29.8908 110.831 29.5891C110.468 29.2874 110.012 29.1184 109.54 29.1099C109.212 29.1312 108.892 29.218 108.598 29.3652C108.304 29.5123 108.043 29.7169 107.829 29.9667C107.616 30.2165 107.455 30.5065 107.355 30.8197C107.256 31.1328 107.22 31.4627 107.25 31.7899C107.221 32.1169 107.258 32.4462 107.358 32.7588C107.458 33.0714 107.62 33.3609 107.833 33.6104C108.046 33.8599 108.307 34.0644 108.6 34.212C108.893 34.3596 109.213 34.4473 109.54 34.4699C110.008 34.4478 110.457 34.2739 110.818 33.9744C111.178 33.6749 111.432 33.2662 111.54 32.8099L112.07 32.8199Z" fill="#231F20"/>
<path d="M116.7 28.73H117.09L119.47 34.86H118.94L118.31 33.21H115.49L114.85 34.86H114.32L116.7 28.73ZM118.16 32.73L116.89 29.47L115.63 32.73H118.16Z" fill="#231F20"/>
<path d="M122.26 28.7298H124.4C124.637 28.7191 124.875 28.7563 125.097 28.8391C125.32 28.922 125.524 29.0489 125.696 29.2122C125.869 29.3755 126.007 29.5719 126.102 29.7897C126.197 30.0075 126.248 30.2422 126.25 30.4798C126.259 30.7562 126.196 31.0303 126.068 31.2755C125.941 31.5207 125.752 31.7288 125.52 31.8798C125.299 32.0273 125.051 32.1293 124.79 32.1798L126.35 34.8598H125.77L124.31 32.2298H122.75V34.8598H122.26V28.7298ZM124.4 31.7898C124.582 31.8058 124.766 31.7836 124.939 31.7247C125.113 31.6659 125.272 31.5716 125.407 31.448C125.542 31.3243 125.649 31.1739 125.723 31.0064C125.797 30.8389 125.835 30.6579 125.835 30.4748C125.835 30.2918 125.797 30.1108 125.723 29.9433C125.649 29.7758 125.542 29.6254 125.407 29.5017C125.272 29.3781 125.113 29.2838 124.939 29.225C124.766 29.1661 124.582 29.1439 124.4 29.1598H122.74V31.7998L124.4 31.7898Z" fill="#231F20"/>
<path d="M129.52 28.73H133.22V29.16H130V31.45H133V31.89H130V34.42H133.31V34.86H129.51L129.52 28.73Z" fill="#231F20"/>
</svg>
