<svg width="45" height="40" viewBox="0 0 45 40" fill="none" xmlns="http://www.w3.org/2000/svg">
<g clip-path="url(#clip0_4636_240)">
<mask id="mask0_4636_240" style="mask-type:luminance" maskUnits="userSpaceOnUse" x="0" y="0" width="45" height="40">
<path d="M45 0H0V40H45V0Z" fill="white"/>
</mask>
<g mask="url(#mask0_4636_240)">
<path d="M28.9453 1.84375H31.8887C37.9317 1.84375 42.8499 6.75274 42.8662 12.792H36.0322C36.0172 10.4069 34.2215 8.49414 31.8887 8.49414H28.9453C27.7075 8.49419 26.6541 8.80539 25.9014 9.43945C25.1375 10.083 24.7413 11.0111 24.7412 12.1152C24.7412 12.7868 24.8537 13.3692 25.1289 13.8789C25.405 14.3903 25.8216 14.7864 26.3574 15.123C27.3942 15.7745 28.9943 16.2668 31.1748 16.9434L31.1826 16.9463L33.3574 17.6299C36.4593 18.6261 39.0075 19.5807 40.7891 21.0918C42.531 22.5693 43.5742 24.6116 43.5742 27.8936C43.574 33.8414 38.771 38.5186 32.5957 38.5186H28.5928C22.5398 38.5186 17.6143 33.5931 17.6143 27.54V26.3936H24.4297V27.54C24.4297 29.9416 26.2416 31.8682 28.5928 31.8682H32.5957C33.7964 31.8682 34.8428 31.4989 35.5947 30.8125C36.3507 30.1222 36.7715 29.1447 36.7715 28.0117C36.7715 27.3336 36.624 26.7489 36.3145 26.2422C36.0071 25.7391 35.561 25.3479 35.0195 25.0205C33.9612 24.3807 32.4237 23.923 30.5635 23.3643H30.5645C30.1777 23.2479 29.7662 23.1241 29.3369 22.9922L28.001 22.5703C25.0546 21.6118 22.551 20.6572 20.7764 19.1426C19.0383 17.6591 17.9668 15.6081 17.9668 12.3516C17.9668 6.26889 22.5506 1.84388 28.9453 1.84375ZM7.42773 1.48438C10.7387 1.48438 13.4335 4.17925 13.4336 7.49023C13.4336 10.8013 10.7387 13.4971 7.42773 13.4971C4.11675 13.497 1.42188 10.8013 1.42188 7.49023C1.42199 4.17932 4.11682 1.48449 7.42773 1.48438ZM7.42773 1.49512C4.12167 1.49523 1.43273 4.18417 1.43262 7.49023C1.43262 10.7964 4.1216 13.4862 7.42773 13.4863C10.7339 13.4863 13.4238 10.7964 13.4238 7.49023C13.4237 4.1841 10.7339 1.49512 7.42773 1.49512ZM8.10645 4.42188C9.21618 4.42188 10.0234 5.22048 10.0234 6.08984C10.0234 6.43708 9.89921 6.77928 9.66016 7.06641L9.55078 7.18652C9.21161 7.52421 8.71269 7.72463 8.14941 7.75098L7.20703 7.79492L7.77344 8.5498L9.37402 10.6865H9.34863L7.31348 7.95508L7.16406 7.75488L6.91406 7.75391L5.78711 7.75L5.28613 7.74805V10.668H5.27539V4.42188H8.10645ZM5.28613 7.73535L5.78418 7.7373L8.09766 7.74707H8.10645C8.63553 7.73913 9.16365 7.55674 9.54297 7.17871L9.54199 7.17773C9.74201 6.97871 10.0127 6.61373 10.0127 6.08984C10.0127 5.08839 9.0617 4.43262 8.10547 4.43262H5.28613V7.73535Z" fill="black" stroke="black"/>
</g>
</g>
<defs>
<clipPath id="clip0_4636_240">
<rect width="45" height="40" fill="white"/>
</clipPath>
</defs>
</svg>
