<svg width="82" height="40" viewBox="0 0 82 40" fill="none" xmlns="http://www.w3.org/2000/svg">
<g clip-path="url(#clip0_4630_15497)">
<mask id="path-1-inside-1_4630_15497" fill="white">
<path d="M22.6737 0.888329C22.2451 1.36932 21.495 2.56289 20.9949 3.50705L20.0662 5.25286L17.9587 5.71604C16.78 5.96544 15.2083 6.33955 14.4404 6.55332C12.9223 6.98087 12.3508 7.03431 12.3508 6.76709C12.3508 6.6602 12.6901 6.00107 13.083 5.28849C14.2618 3.25764 14.3511 3.04388 14.2439 2.5807C14.1546 2.2066 13.3509 1.60091 12.9759 1.60091C12.7973 1.60091 11.815 2.74103 11.815 2.93699C11.815 3.2042 9.02885 7.83596 8.61808 8.24569C8.45734 8.42383 7.90369 8.67323 7.42147 8.81575C5.17114 9.45707 0.652624 11.2385 0.22399 11.6661C-0.0974861 11.9689 -0.0617665 13.9107 0.259709 14.1066C0.634764 14.3382 1.27772 14.267 2.40288 13.8216C3.01011 13.59 4.01026 13.3406 4.61749 13.2694C5.58192 13.1625 5.76052 13.1803 5.84982 13.4475C5.97483 13.7503 5.0997 15.995 3.45661 19.7182C3.04583 20.6089 2.51004 22.1053 2.24214 23.0139C1.97425 23.9224 1.45631 25.4366 1.08126 26.363C0.134691 28.7501 -0.0439068 29.5339 0.18827 30.389C0.634764 32.028 1.52775 32.2417 3.02797 31.066C3.51019 30.6919 4.15314 30.2287 4.43889 30.0684C4.70679 29.8902 5.61764 29.2667 6.45705 28.6788C7.29646 28.0732 8.45734 27.2715 9.04671 26.8974C11.2792 25.4544 11.5649 25.2763 12.0293 24.9022C12.2972 24.6884 12.5651 24.5459 12.6008 24.5993C12.6365 24.635 12.4401 25.401 12.1543 26.2739C11.8686 27.1646 11.4756 28.4829 11.297 29.2133C10.6362 31.832 9.81468 34.6823 9.15387 36.6953C8.3859 38.9934 8.15372 40.0801 8.3859 40.0801C8.5645 40.0801 9.11815 38.8509 9.49321 37.6751C9.77896 36.7488 10.9577 33.6313 11.7614 31.7073C12.8151 29.1598 14.7976 24.154 14.9226 23.7621C15.0655 23.2989 17.0122 21.8203 18.5838 21.0008C19.2089 20.6623 19.8519 20.3061 20.0126 20.217C20.1733 20.1101 20.8163 19.7182 21.4592 19.3441C22.1022 18.9522 22.888 18.4177 23.2095 18.1327C24.3883 17.1173 24.4597 16.7966 21.7093 25.116C20.5841 28.5007 19.4232 32.028 19.1375 32.9543C17.9945 36.6063 17.3158 38.7618 17.155 39.1537C16.9586 39.6703 16.9586 39.7238 17.1729 39.7238C17.4051 39.7238 18.4052 37.5148 19.7626 34.0054C20.3877 32.3842 21.0663 30.7809 21.2628 30.4425C21.4592 30.104 21.8522 29.0886 22.1558 28.1979C22.4415 27.2893 22.8523 26.2383 23.0488 25.882C23.6917 24.635 25.3884 20.9652 26.7815 17.723L27.6387 15.7812L29.4068 14.748C31.2285 13.7147 31.9965 13.4831 31.9965 13.9998C31.9965 14.1423 31.4429 15.7278 30.7642 17.5092C29.389 21.0721 28.9246 22.9604 29.2997 23.4058C29.5676 23.7086 30.6213 23.958 30.9606 23.7977C31.1928 23.6908 31.9251 23.2098 33.3539 22.2478C33.7468 21.9806 34.6398 21.2859 35.3541 20.6802C36.0685 20.0745 36.7472 19.6291 36.8365 19.7004C36.9258 19.7538 36.9615 20.1635 36.8901 20.6802C36.6936 22.1944 37.6223 22.9248 38.7832 22.1588C39.0333 21.9984 40.3727 20.7336 41.7479 19.3619C43.141 17.9902 44.3733 16.9213 44.4626 16.9926C44.5698 17.0638 44.6412 17.4914 44.6412 17.9546C44.6234 18.4177 44.6769 18.9878 44.7484 19.2194C44.8734 19.5935 44.9806 19.6291 45.6771 19.54C46.3736 19.4688 46.6951 19.3085 47.6417 18.6137C48.2668 18.1505 47.981 18.9522 46.4986 21.6778C44.0876 26.167 43.8018 26.7905 41.9087 31.5292C40.0334 36.2678 39.4976 38.0136 39.8191 38.3343C40.1406 38.6549 40.5871 38.1383 41.3729 36.5706C41.7479 35.8046 42.4445 34.6823 42.9267 34.0588C43.391 33.4531 43.9983 32.5624 44.2483 32.0992C44.5162 31.636 44.9806 30.9769 45.302 30.6384C45.6056 30.3 46.2486 29.4627 46.7308 28.7857C47.7667 27.3071 49.4634 25.2763 52.1602 22.2656C55.1249 18.9522 55.625 18.5959 55.8572 19.54C56.0893 20.5733 56.4108 20.8405 57.3216 20.8405C57.786 20.8405 58.4825 20.7514 58.8755 20.6445C59.6256 20.4486 61.8045 19.2906 63.8226 18.0258C64.2334 17.7586 64.6263 17.6517 64.8406 17.723C65.0371 17.7764 65.6622 18.4534 66.2158 19.2016C66.7695 19.9498 67.5553 20.9118 67.9661 21.3393C69.5913 23.0317 71.8774 23.4948 75.5743 22.8357C76.6995 22.6219 78.1283 22.4082 78.7534 22.3547C79.7892 22.23 79.8964 22.1766 80.5751 21.4106C80.968 20.9474 81.2895 20.4842 81.2895 20.3595C81.2895 20.1101 80.0393 20.1457 77.7354 20.4842C76.0923 20.7336 73.0918 20.6267 71.9131 20.3061C70.7522 19.9676 68.0732 16.9569 67.3231 15.1221C67.0731 14.5164 66.8231 14.2135 66.5373 14.1423C66.0194 14.0176 66.323 13.8394 62.9118 16.1019C61.0186 17.3489 59.947 17.9724 59.822 17.8477C59.3755 17.4023 61.1436 15.9059 65.68 12.8596C67.1624 11.862 68.4661 10.9357 68.5912 10.7932C68.8948 10.4369 69.0377 8.90482 68.8055 8.31695C68.5376 7.64 68.0732 7.69344 66.1265 8.63761C64.4477 9.45707 62.0723 11.1673 59.7506 13.2159C57.1252 15.5496 52.1066 20.4486 50.5171 22.2478C47.9631 25.1694 47.5702 25.5613 47.4452 25.4366C47.2666 25.2585 49.2848 21.4818 52.1066 16.7254C52.7138 15.6921 53.6604 13.9463 54.2141 12.8596C55.1785 10.9357 55.2142 10.8466 54.982 10.2765C54.6605 9.54614 54.2498 9.20767 53.8211 9.33237C53.6425 9.40363 53.1246 10.0271 52.6603 10.7397C51.928 11.8976 49.1419 15.1933 48.356 15.8346C48.1596 15.995 47.9989 16.0306 47.8738 15.9059C47.6952 15.7278 48.4632 13.02 49.1597 11.381L49.5705 10.4547L48.9811 9.93806C48.6418 9.63521 48.2489 9.43925 48.0167 9.47488C47.6595 9.52833 47.4988 9.7421 46.4629 11.577C46.1593 12.1114 45.4985 13.109 44.9984 13.8038C43.7304 15.514 40.6764 18.5246 40.212 18.5246C40.0155 18.5246 39.8548 18.489 39.8548 18.4534C39.8548 18.293 41.1228 14.7658 41.6229 13.5366C42.3195 11.8264 42.3373 11.2741 41.6944 11.0247C40.8728 10.7219 40.4263 10.9713 39.7119 12.1292C37.6045 15.6031 36.6043 16.9213 34.997 18.4177C33.4074 19.8963 33.0324 20.1279 32.8181 19.7894C32.6752 19.5579 33.461 17.4379 34.6933 14.7123C35.8899 12.1114 36.015 11.3098 35.2827 11.0426C34.3897 10.7041 33.8182 10.811 33.5146 11.4167C33.3003 11.8086 32.9252 12.0936 32.2108 12.3965C31.6572 12.6459 30.6392 13.1268 29.9605 13.4475C29.2818 13.786 28.6925 14.0532 28.6746 14.0176C28.6389 13.9819 30.8713 9.35019 32.9074 5.25286C33.586 3.88115 34.1397 2.5807 34.1397 2.34911C34.1397 1.8503 32.8716 0.53204 32.4073 0.53204C31.9429 0.53204 31.6929 0.817074 30.5141 2.72322C29.9069 3.66738 29.0318 5.52008 28.246 7.53311C27.5316 9.31455 26.8886 10.8466 26.8172 10.9535C26.7457 11.0426 26.585 11.4523 26.46 11.8442C26.335 12.2361 25.8706 13.3762 25.442 14.356L24.6561 16.1731L23.1023 16.9926C22.2629 17.4379 21.4592 17.812 21.3521 17.812C21.2271 17.812 21.0842 17.8833 21.0306 17.9724C20.9056 18.1683 16.6371 20.5376 16.5478 20.4486C16.2978 20.217 21.7807 8.72668 23.1381 6.60676C24.1025 5.11034 25.4777 2.456 25.6563 1.74342C25.817 1.13773 25.5134 0.603298 24.8526 0.264824C23.9418 -0.198353 23.5131 -0.091465 22.6737 0.888329ZM18.7981 8.31695C18.2802 9.35018 16.5478 13.8394 16.1906 15.0508C16.0299 15.6387 15.637 16.761 15.3155 17.5448C14.994 18.3287 14.4582 19.6826 14.1189 20.5376C13.6188 21.8915 13.4224 22.1766 12.8866 22.4616C12.5472 22.6576 11.7078 23.1742 11.0113 23.6017C10.3326 24.0293 9.40391 24.5993 8.95741 24.8666C8.51092 25.1338 7.95727 25.4722 7.70723 25.6504C7.45719 25.8107 6.90354 26.1314 6.45705 26.3273C6.01055 26.5411 5.31402 26.9152 4.88539 27.1646C4.22458 27.5743 4.11742 27.5922 4.01026 27.3249C3.95668 27.1646 4.3496 25.7038 4.90325 24.0827C6.15343 20.3061 9.45749 11.9333 9.83254 11.5592C9.99328 11.381 10.6005 11.1138 11.1899 10.9535C11.7793 10.7932 12.6544 10.4012 13.1366 10.0984C14.0474 9.51051 18.2802 7.71126 18.8339 7.67563C19.1196 7.65781 19.1196 7.69344 18.7981 8.31695Z"/>
</mask>
<path d="M22.6737 0.888329C22.2451 1.36932 21.495 2.56289 20.9949 3.50705L20.0662 5.25286L17.9587 5.71604C16.78 5.96544 15.2083 6.33955 14.4404 6.55332C12.9223 6.98087 12.3508 7.03431 12.3508 6.76709C12.3508 6.6602 12.6901 6.00107 13.083 5.28849C14.2618 3.25764 14.3511 3.04388 14.2439 2.5807C14.1546 2.2066 13.3509 1.60091 12.9759 1.60091C12.7973 1.60091 11.815 2.74103 11.815 2.93699C11.815 3.2042 9.02885 7.83596 8.61808 8.24569C8.45734 8.42383 7.90369 8.67323 7.42147 8.81575C5.17114 9.45707 0.652624 11.2385 0.22399 11.6661C-0.0974861 11.9689 -0.0617665 13.9107 0.259709 14.1066C0.634764 14.3382 1.27772 14.267 2.40288 13.8216C3.01011 13.59 4.01026 13.3406 4.61749 13.2694C5.58192 13.1625 5.76052 13.1803 5.84982 13.4475C5.97483 13.7503 5.0997 15.995 3.45661 19.7182C3.04583 20.6089 2.51004 22.1053 2.24214 23.0139C1.97425 23.9224 1.45631 25.4366 1.08126 26.363C0.134691 28.7501 -0.0439068 29.5339 0.18827 30.389C0.634764 32.028 1.52775 32.2417 3.02797 31.066C3.51019 30.6919 4.15314 30.2287 4.43889 30.0684C4.70679 29.8902 5.61764 29.2667 6.45705 28.6788C7.29646 28.0732 8.45734 27.2715 9.04671 26.8974C11.2792 25.4544 11.5649 25.2763 12.0293 24.9022C12.2972 24.6884 12.5651 24.5459 12.6008 24.5993C12.6365 24.635 12.4401 25.401 12.1543 26.2739C11.8686 27.1646 11.4756 28.4829 11.297 29.2133C10.6362 31.832 9.81468 34.6823 9.15387 36.6953C8.3859 38.9934 8.15372 40.0801 8.3859 40.0801C8.5645 40.0801 9.11815 38.8509 9.49321 37.6751C9.77896 36.7488 10.9577 33.6313 11.7614 31.7073C12.8151 29.1598 14.7976 24.154 14.9226 23.7621C15.0655 23.2989 17.0122 21.8203 18.5838 21.0008C19.2089 20.6623 19.8519 20.3061 20.0126 20.217C20.1733 20.1101 20.8163 19.7182 21.4592 19.3441C22.1022 18.9522 22.888 18.4177 23.2095 18.1327C24.3883 17.1173 24.4597 16.7966 21.7093 25.116C20.5841 28.5007 19.4232 32.028 19.1375 32.9543C17.9945 36.6063 17.3158 38.7618 17.155 39.1537C16.9586 39.6703 16.9586 39.7238 17.1729 39.7238C17.4051 39.7238 18.4052 37.5148 19.7626 34.0054C20.3877 32.3842 21.0663 30.7809 21.2628 30.4425C21.4592 30.104 21.8522 29.0886 22.1558 28.1979C22.4415 27.2893 22.8523 26.2383 23.0488 25.882C23.6917 24.635 25.3884 20.9652 26.7815 17.723L27.6387 15.7812L29.4068 14.748C31.2285 13.7147 31.9965 13.4831 31.9965 13.9998C31.9965 14.1423 31.4429 15.7278 30.7642 17.5092C29.389 21.0721 28.9246 22.9604 29.2997 23.4058C29.5676 23.7086 30.6213 23.958 30.9606 23.7977C31.1928 23.6908 31.9251 23.2098 33.3539 22.2478C33.7468 21.9806 34.6398 21.2859 35.3541 20.6802C36.0685 20.0745 36.7472 19.6291 36.8365 19.7004C36.9258 19.7538 36.9615 20.1635 36.8901 20.6802C36.6936 22.1944 37.6223 22.9248 38.7832 22.1588C39.0333 21.9984 40.3727 20.7336 41.7479 19.3619C43.141 17.9902 44.3733 16.9213 44.4626 16.9926C44.5698 17.0638 44.6412 17.4914 44.6412 17.9546C44.6234 18.4177 44.6769 18.9878 44.7484 19.2194C44.8734 19.5935 44.9806 19.6291 45.6771 19.54C46.3736 19.4688 46.6951 19.3085 47.6417 18.6137C48.2668 18.1505 47.981 18.9522 46.4986 21.6778C44.0876 26.167 43.8018 26.7905 41.9087 31.5292C40.0334 36.2678 39.4976 38.0136 39.8191 38.3343C40.1406 38.6549 40.5871 38.1383 41.3729 36.5706C41.7479 35.8046 42.4445 34.6823 42.9267 34.0588C43.391 33.4531 43.9983 32.5624 44.2483 32.0992C44.5162 31.636 44.9806 30.9769 45.302 30.6384C45.6056 30.3 46.2486 29.4627 46.7308 28.7857C47.7667 27.3071 49.4634 25.2763 52.1602 22.2656C55.1249 18.9522 55.625 18.5959 55.8572 19.54C56.0893 20.5733 56.4108 20.8405 57.3216 20.8405C57.786 20.8405 58.4825 20.7514 58.8755 20.6445C59.6256 20.4486 61.8045 19.2906 63.8226 18.0258C64.2334 17.7586 64.6263 17.6517 64.8406 17.723C65.0371 17.7764 65.6622 18.4534 66.2158 19.2016C66.7695 19.9498 67.5553 20.9118 67.9661 21.3393C69.5913 23.0317 71.8774 23.4948 75.5743 22.8357C76.6995 22.6219 78.1283 22.4082 78.7534 22.3547C79.7892 22.23 79.8964 22.1766 80.5751 21.4106C80.968 20.9474 81.2895 20.4842 81.2895 20.3595C81.2895 20.1101 80.0393 20.1457 77.7354 20.4842C76.0923 20.7336 73.0918 20.6267 71.9131 20.3061C70.7522 19.9676 68.0732 16.9569 67.3231 15.1221C67.0731 14.5164 66.8231 14.2135 66.5373 14.1423C66.0194 14.0176 66.323 13.8394 62.9118 16.1019C61.0186 17.3489 59.947 17.9724 59.822 17.8477C59.3755 17.4023 61.1436 15.9059 65.68 12.8596C67.1624 11.862 68.4661 10.9357 68.5912 10.7932C68.8948 10.4369 69.0377 8.90482 68.8055 8.31695C68.5376 7.64 68.0732 7.69344 66.1265 8.63761C64.4477 9.45707 62.0723 11.1673 59.7506 13.2159C57.1252 15.5496 52.1066 20.4486 50.5171 22.2478C47.9631 25.1694 47.5702 25.5613 47.4452 25.4366C47.2666 25.2585 49.2848 21.4818 52.1066 16.7254C52.7138 15.6921 53.6604 13.9463 54.2141 12.8596C55.1785 10.9357 55.2142 10.8466 54.982 10.2765C54.6605 9.54614 54.2498 9.20767 53.8211 9.33237C53.6425 9.40363 53.1246 10.0271 52.6603 10.7397C51.928 11.8976 49.1419 15.1933 48.356 15.8346C48.1596 15.995 47.9989 16.0306 47.8738 15.9059C47.6952 15.7278 48.4632 13.02 49.1597 11.381L49.5705 10.4547L48.9811 9.93806C48.6418 9.63521 48.2489 9.43925 48.0167 9.47488C47.6595 9.52833 47.4988 9.7421 46.4629 11.577C46.1593 12.1114 45.4985 13.109 44.9984 13.8038C43.7304 15.514 40.6764 18.5246 40.212 18.5246C40.0155 18.5246 39.8548 18.489 39.8548 18.4534C39.8548 18.293 41.1228 14.7658 41.6229 13.5366C42.3195 11.8264 42.3373 11.2741 41.6944 11.0247C40.8728 10.7219 40.4263 10.9713 39.7119 12.1292C37.6045 15.6031 36.6043 16.9213 34.997 18.4177C33.4074 19.8963 33.0324 20.1279 32.8181 19.7894C32.6752 19.5579 33.461 17.4379 34.6933 14.7123C35.8899 12.1114 36.015 11.3098 35.2827 11.0426C34.3897 10.7041 33.8182 10.811 33.5146 11.4167C33.3003 11.8086 32.9252 12.0936 32.2108 12.3965C31.6572 12.6459 30.6392 13.1268 29.9605 13.4475C29.2818 13.786 28.6925 14.0532 28.6746 14.0176C28.6389 13.9819 30.8713 9.35019 32.9074 5.25286C33.586 3.88115 34.1397 2.5807 34.1397 2.34911C34.1397 1.8503 32.8716 0.53204 32.4073 0.53204C31.9429 0.53204 31.6929 0.817074 30.5141 2.72322C29.9069 3.66738 29.0318 5.52008 28.246 7.53311C27.5316 9.31455 26.8886 10.8466 26.8172 10.9535C26.7457 11.0426 26.585 11.4523 26.46 11.8442C26.335 12.2361 25.8706 13.3762 25.442 14.356L24.6561 16.1731L23.1023 16.9926C22.2629 17.4379 21.4592 17.812 21.3521 17.812C21.2271 17.812 21.0842 17.8833 21.0306 17.9724C20.9056 18.1683 16.6371 20.5376 16.5478 20.4486C16.2978 20.217 21.7807 8.72668 23.1381 6.60676C24.1025 5.11034 25.4777 2.456 25.6563 1.74342C25.817 1.13773 25.5134 0.603298 24.8526 0.264824C23.9418 -0.198353 23.5131 -0.091465 22.6737 0.888329ZM18.7981 8.31695C18.2802 9.35018 16.5478 13.8394 16.1906 15.0508C16.0299 15.6387 15.637 16.761 15.3155 17.5448C14.994 18.3287 14.4582 19.6826 14.1189 20.5376C13.6188 21.8915 13.4224 22.1766 12.8866 22.4616C12.5472 22.6576 11.7078 23.1742 11.0113 23.6017C10.3326 24.0293 9.40391 24.5993 8.95741 24.8666C8.51092 25.1338 7.95727 25.4722 7.70723 25.6504C7.45719 25.8107 6.90354 26.1314 6.45705 26.3273C6.01055 26.5411 5.31402 26.9152 4.88539 27.1646C4.22458 27.5743 4.11742 27.5922 4.01026 27.3249C3.95668 27.1646 4.3496 25.7038 4.90325 24.0827C6.15343 20.3061 9.45749 11.9333 9.83254 11.5592C9.99328 11.381 10.6005 11.1138 11.1899 10.9535C11.7793 10.7932 12.6544 10.4012 13.1366 10.0984C14.0474 9.51051 18.2802 7.71126 18.8339 7.67563C19.1196 7.65781 19.1196 7.69344 18.7981 8.31695Z" fill="black" stroke="black" stroke-width="0.0882692" mask="url(#path-1-inside-1_4630_15497)"/>
</g>
<defs>
<clipPath id="clip0_4630_15497">
<rect width="81.2371" height="40" fill="white"/>
</clipPath>
</defs>
</svg>
