<svg width="14" height="14" viewBox="0 0 14 14" fill="none" xmlns="http://www.w3.org/2000/svg">
<path d="M7 0.599609C10.5346 0.59961 13.4004 3.46538 13.4004 7C13.4004 10.5346 10.5346 13.4004 7 13.4004C3.46538 13.4004 0.59961 10.5346 0.599609 7C0.599609 3.46538 3.46538 0.599609 7 0.599609ZM7 2.25C6.58579 2.25 6.25 2.58579 6.25 3V7C6.25 7.41421 6.58579 7.75 7 7.75H10.2002C10.6143 7.74989 10.9502 7.41415 10.9502 7C10.9502 6.58585 10.6143 6.25011 10.2002 6.25H7.75V3C7.75 2.58579 7.41421 2.25 7 2.25Z" fill="#9EA5AD"/>
</svg>
