<svg width="19" height="18" viewBox="0 0 19 18" fill="none" xmlns="http://www.w3.org/2000/svg">
<path d="M7.14587 1.5C6.28293 1.5 5.58337 2.19956 5.58337 3.0625C5.58337 3.92545 6.28293 4.625 7.14587 4.625H8.70837V8.375H2.14587C1.28293 8.375 0.583374 7.67545 0.583374 6.8125V6.1875C0.583374 5.32456 1.28293 4.625 2.14587 4.625H4.80698C4.50783 4.17809 4.33337 3.64067 4.33337 3.0625C4.33337 1.5092 5.59257 0.25 7.14587 0.25C8.0294 0.25 8.81776 0.657397 9.33338 1.29458C9.84899 0.657397 10.6374 0.25 11.5209 0.25C13.0742 0.25 14.3334 1.5092 14.3334 3.0625C14.3334 3.64067 14.1589 4.17809 13.8598 4.625H17.1459C18.0088 4.625 18.7084 5.32455 18.7084 6.1875V6.8125C18.7084 7.67544 18.0088 8.375 17.1459 8.375H9.95837V4.625H11.5209C12.3838 4.625 13.0834 3.92545 13.0834 3.0625C13.0834 2.19956 12.3838 1.5 11.5209 1.5C10.6579 1.5 9.95837 2.19956 9.95837 3.0625V4.625H8.70837V3.0625C8.70837 2.19956 8.00882 1.5 7.14587 1.5Z" fill="#E35336"/>
<path d="M8.70837 9.625H1.83337V15.25C1.83337 16.2855 2.67284 17.125 3.70837 17.125H8.70837V9.625Z" fill="#E35336"/>
<path d="M9.95837 9.625V17.125H15.5834C16.6189 17.125 17.4584 16.2855 17.4584 15.25V9.625H9.95837Z" fill="#E35336"/>
</svg>
