<svg width="42" height="42" viewBox="0 0 42 42" fill="none" xmlns="http://www.w3.org/2000/svg">
<path d="M21 0.692383C9.80771 0.692383 0.692322 9.80777 0.692322 21.0001C0.692322 32.1924 9.80771 41.3078 21 41.3078C32.1923 41.3078 41.3077 32.1924 41.3077 21.0001C41.3077 9.80777 32.1923 0.692383 21 0.692383ZM21 4.38469C30.1947 4.38469 37.6154 11.8054 37.6154 21.0001C37.6154 30.1948 30.1947 37.6155 21 37.6155C11.8053 37.6155 4.38463 30.1948 4.38463 21.0001C4.38463 11.8054 11.8053 4.38469 21 4.38469ZM21.1731 13.4424C19.5144 13.4424 17.8486 13.7885 16.5577 14.7116V17.8847C17.8486 16.7741 19.1322 16.2116 20.4231 16.2116C23.0048 16.2116 22.8678 18.5986 22.5 19.1539C20.4664 22.6587 15.8077 23.0554 15.8077 28.0385V29.1347H26.1923V26.3655H19.5C19.5 24.5193 26.1923 22.8679 26.1923 17.8847C26.1923 14.0049 22.6515 13.4424 21.1731 13.4424Z" fill="#E35336"/>
</svg>
