<svg width="42" height="42" viewBox="0 0 42 42" fill="none" xmlns="http://www.w3.org/2000/svg">
<path d="M21 0.692383C9.80764 0.692383 0.692261 9.80777 0.692261 21.0001C0.692261 32.1924 9.80764 41.3078 21 41.3078C32.1923 41.3078 41.3076 32.1924 41.3076 21.0001C41.3076 9.80777 32.1923 0.692383 21 0.692383ZM21 4.38469C30.1947 4.38469 37.6153 11.8054 37.6153 21.0001C37.6153 30.1948 30.1947 37.6155 21 37.6155C11.8052 37.6155 4.38457 30.1948 4.38457 21.0001C4.38457 11.8054 11.8052 4.38469 21 4.38469ZM22.5 13.2693C20.6538 13.2693 15.4615 14.3438 15.4615 22.0962C15.4615 23.5746 15.649 29.3078 21 29.3078C24.8798 29.3078 26.3653 25.976 26.3653 23.9424C26.3653 23.2068 25.9759 19.1683 22.0961 18.9808C20.6177 18.9808 19.5432 19.3126 18.8076 20.4232C18.8076 17.2861 20.6394 15.6347 22.673 15.6347C23.5961 15.6347 24.5336 16.0169 25.2692 16.3847V13.6155C24.7139 13.428 23.6105 13.2693 22.5 13.2693ZM20.5384 21.577C20.7475 21.5409 20.9062 21.577 21 21.577C22.2908 21.577 23.0192 22.4568 23.0192 24.1155C23.0192 25.9616 21.7355 26.7116 21 26.7116C20.8125 26.7116 18.9807 26.5241 18.9807 23.9424C18.9807 22.1395 19.9182 21.6924 20.5384 21.577Z" fill="#E35336"/>
</svg>
