<svg width="42" height="42" viewBox="0 0 42 42" fill="none" xmlns="http://www.w3.org/2000/svg">
<path d="M21 0.692383C9.80771 0.692383 0.692322 9.80777 0.692322 21.0001C0.692322 32.1924 9.80771 41.3078 21 41.3078C32.1923 41.3078 41.3077 32.1924 41.3077 21.0001C41.3077 9.80777 32.1923 0.692383 21 0.692383ZM21 4.38469C30.1947 4.38469 37.6154 11.8054 37.6154 21.0001C37.6154 30.1948 30.1947 37.6155 21 37.6155C11.8053 37.6155 4.38463 30.1948 4.38463 21.0001C4.38463 11.8054 11.8053 4.38469 21 4.38469ZM21 13.4424C19.5216 14.7332 17.3077 15.6203 16.3846 15.8078V18.8078C16.7524 18.8078 18.6202 18.4039 19.7308 17.4808V29.4808H23.0192V13.4424H21Z" fill="#E35336"/>
</svg>
