<svg width="119" height="60" viewBox="0 0 119 60" fill="none" xmlns="http://www.w3.org/2000/svg">
<g clip-path="url(#clip0_4837_10796)">
<path d="M55.7936 20.7056H52.8923V23.5529H56.1393L55.9641 24.7426H51.5234V15.9014H55.9342V17.1093H52.8923V19.5068H55.7936V20.7056Z" fill="#24292E"/>
<path d="M57.5492 15.9011H59.7569C61.9714 15.9011 62.8725 17.3465 62.8725 20.1231C62.8725 23.1143 62.0244 24.7423 59.6255 24.7423H57.5469V15.9011H57.5492ZM58.9457 23.6075H59.6002C60.9805 23.6075 61.4391 22.5571 61.4391 20.1391C61.4391 17.9973 60.9805 17.0542 59.614 17.0542H58.9457V23.6075Z" fill="#24292E"/>
<path d="M65.9075 15.9011V22.0251C65.9075 22.8357 66.1241 23.7285 67.175 23.7285C68.2258 23.7285 68.4355 22.9773 68.4355 22.0297V15.9011H69.8228V22.0525C69.8228 23.6463 69.2098 24.8907 67.1473 24.8907C65.0848 24.8907 64.5156 23.7217 64.5156 22.0708V15.9011H65.9075Z" fill="#24292E"/>
<path d="M76.3325 22.2972C76.2933 22.7676 76.1044 24.9733 73.7354 24.9733C71.3664 24.9733 71 22.6694 71 20.3792C71 17.6163 71.7927 15.8535 73.8345 15.8535C76.1274 15.8535 76.2887 17.8583 76.321 18.5091H74.9429C74.9199 18.21 74.8876 17.0318 73.8114 17.0318C72.6707 17.0318 72.4357 18.4817 72.4357 20.402C72.4357 22.1374 72.6177 23.8111 73.7607 23.8111C74.7931 23.8111 74.9061 22.6717 74.9452 22.2972H76.3325Z" fill="#24292E"/>
<path d="M79.6746 22.3177L79.1607 24.7404H77.7734L79.8705 15.8992H81.6703L83.8042 24.7404H82.3455L81.8293 22.3177H79.6769H79.6746ZM81.5712 21.119C81.1748 19.2626 80.8845 17.9771 80.7531 17.1802H80.7185C80.6056 17.9794 80.2945 19.3973 79.9281 21.119H81.5712Z" fill="#24292E"/>
<path d="M85.5506 17.109H83.6172V15.9011H88.8737V17.109H86.9402V24.7423H85.5529V17.109H85.5506Z" fill="#24292E"/>
<path d="M91.5748 15.9011V24.7423H90.1875V15.9011H91.5748Z" fill="#24292E"/>
<path d="M98.9183 20.2512C98.9183 23.4091 98.0864 24.8864 96.0723 24.8864C94.1804 24.8864 93.3047 23.441 93.3047 20.2443C93.3047 17.0476 94.3279 15.7666 96.1369 15.7666C98.0473 15.7666 98.9183 17.2074 98.9183 20.2512ZM94.7288 20.2283C94.7288 22.4706 95.116 23.7265 96.1092 23.7265C97.1024 23.7265 97.4965 22.5437 97.4965 20.2375C97.4965 17.9313 97.1232 16.9403 96.1069 16.9403C95.0906 16.9403 94.7288 18.1117 94.7288 20.2306V20.2283Z" fill="#24292E"/>
<path d="M100.641 24.7423V15.9011H102.247C104.305 21.2077 104.655 22.1073 104.766 22.5229H104.779C104.708 21.4178 104.701 20.1071 104.701 18.6617V15.9011H105.955V24.7423H104.415C102.286 19.1161 101.954 18.221 101.844 17.8351H101.83C101.897 18.9289 101.899 20.2806 101.899 21.8676V24.7423H100.641Z" fill="#24292E"/>
<path d="M109.143 22.3177L108.629 24.7404H107.242L109.339 15.8992H111.139L113.273 24.7404H111.814L111.298 22.3177H109.146H109.143ZM111.04 21.119C110.644 19.2626 110.353 17.9771 110.222 17.1802H110.187C110.074 17.9794 109.763 19.3973 109.397 21.119H111.04Z" fill="#24292E"/>
<path d="M114.516 15.9014H115.903V23.5621H119.002L118.853 24.7426H114.516V15.9014Z" fill="#24292E"/>
<path d="M52 29H54.3482C55.6894 29 56.4522 29.7535 56.4522 31.0094C56.4522 32.0437 55.9521 32.5278 55.4959 32.6945C56.0835 32.9205 56.6988 33.4548 56.6988 34.6742C56.6988 36.1721 55.7378 37.0329 54.3068 37.0329H52V29ZM54.0141 32.2538C54.9566 32.2538 55.2378 31.8725 55.2378 31.1212C55.2378 30.37 54.846 30.0024 54.0855 30.0024H53.2352V32.2538H54.0141ZM53.2352 36.0465H54.1777C54.9797 36.0465 55.4313 35.6103 55.4313 34.6559C55.4313 33.7014 55.0142 33.2402 54.0141 33.2402H53.2352V36.0465Z" fill="#24292E"/>
<path d="M61.2088 32.8847H58.5725V35.4718H61.5222L61.3632 36.5518H57.3281V28.5189H61.3356V29.6172H58.5725V31.7956H61.2088V32.8847Z" fill="#24292E"/>
<path d="M63.8354 34.3507L63.3699 36.5518H62.1094L64.0152 28.5189H65.649L67.5871 36.5518H66.262L65.7919 34.3507H63.8377H63.8354ZM65.5568 33.2615C65.1973 31.5764 64.9346 30.4073 64.8125 29.6835H64.7802C64.6765 30.4096 64.3954 31.6974 64.0636 33.2615H65.5568Z" fill="#24292E"/>
<path d="M69.5096 28.5189V34.0835C69.5096 34.8188 69.7078 35.6316 70.6596 35.6316C71.6113 35.6316 71.8049 34.9489 71.8049 34.0881V28.5189H73.0654V34.1086C73.0654 35.5586 72.5077 36.6888 70.6342 36.6888C68.7607 36.6888 68.2422 35.6271 68.2422 34.1269V28.5212H69.5073L69.5096 28.5189Z" fill="#24292E"/>
<path d="M75.5708 29.6172H73.8125V28.5189H78.5896V29.6172H76.8313V36.5518H75.5708V29.6172Z" fill="#24292E"/>
<path d="M81.1251 36.5518V33.6337C81.1251 33.5469 81.109 33.4739 81.0721 33.3939L79.0234 28.5189H80.4315C80.92 29.8113 81.5514 31.4782 81.7934 32.3048C82.0861 31.3891 82.7244 29.7497 83.1715 28.5189H84.5011L82.4294 33.4076C82.4064 33.4602 82.3856 33.5446 82.3856 33.6565V36.5518H81.1251Z" fill="#24292E"/>
<path d="M91.9377 34.2525C91.9009 34.6795 91.7303 36.6843 89.578 36.6843C87.4256 36.6843 87.0938 34.5905 87.0938 32.5103C87.0938 29.9986 87.8127 28.398 89.6701 28.398C91.7534 28.398 91.9009 30.2201 91.9285 30.8115H90.6772C90.6564 30.5398 90.6265 29.4689 89.6494 29.4689C88.6124 29.4689 88.4004 30.7864 88.4004 32.5309C88.4004 34.1064 88.5663 35.6294 89.6033 35.6294C90.5412 35.6294 90.6449 34.595 90.6795 34.2525H91.94H91.9377Z" fill="#24292E"/>
<path d="M96.7948 32.8847H94.1585V35.4718H97.1082L96.9492 36.5518H92.9141V28.5189H96.9215V29.6172H94.1585V31.7956H96.7948V32.8847Z" fill="#24292E"/>
<path d="M98.0234 36.5519V28.519H99.4822C101.351 33.3415 101.671 34.1566 101.77 34.5357H101.782C101.717 33.531 101.711 32.3391 101.711 31.0284V28.519H102.849V36.5519H101.45C99.5144 31.4394 99.2148 30.6266 99.1134 30.2749H99.1019C99.1618 31.2705 99.1664 32.4966 99.1664 33.9397V36.5519H98.0234Z" fill="#24292E"/>
<path d="M105.399 29.6172H103.641V28.5189H108.418V29.6172H106.659V36.5518H105.399V29.6172Z" fill="#24292E"/>
<path d="M113.115 32.8847H110.479V35.4718H113.428L113.269 36.5518H109.234V28.5189H113.242V29.6172H110.479V31.7956H113.115V32.8847Z" fill="#24292E"/>
<path d="M115.597 33.0332V36.5518H114.344V28.5189H116.701C118.137 28.5189 118.93 29.2816 118.93 30.6722C118.93 31.8481 118.314 32.3527 117.867 32.5171C118.538 32.8003 118.812 33.3711 118.812 34.5379V34.8576C118.812 35.7138 118.849 36.1203 118.923 36.5495H117.697C117.582 36.1819 117.563 35.5197 117.563 34.8416V34.5562C117.563 33.4579 117.319 33.0309 116.342 33.0309H115.595L115.597 33.0332ZM115.597 32.0102H116.399C117.314 32.0102 117.667 31.5764 117.667 30.7224C117.667 29.9917 117.319 29.5419 116.524 29.5419H115.597V32.0102Z" fill="#24292E"/>
<path d="M58.4488 44.8634L57.5547 39.9427H58.1492C58.4258 41.5822 58.7046 43.3015 58.7645 44.0254H58.7714C58.8636 43.2901 59.3107 41.0935 59.5181 39.9427H60.0458C60.2463 41.0364 60.6934 43.297 60.774 43.998H60.7878C60.8846 43.1029 61.2856 41.0296 61.4584 39.9427H62.0207L61.0552 44.8634H60.4698C60.2716 43.7605 59.8638 41.6781 59.7647 40.9017H59.7554C59.6471 41.7283 59.2323 43.7879 59.0249 44.8634H58.4465H58.4488Z" fill="#24292E"/>
<path d="M69.6992 43.3632L69.3881 44.8634H68.8281L69.9204 39.9427H70.6486L71.7709 44.8634H71.1764L70.8607 43.3632H69.6992ZM70.75 42.8289C70.5035 41.6712 70.3399 40.9177 70.2753 40.509H70.2592C70.197 40.9428 70.0195 41.7991 69.8075 42.8289H70.75Z" fill="#24292E"/>
<path d="M79.6827 42.6302V44.8634H79.125V39.9427H80.3533C81.1299 39.9427 81.5447 40.4108 81.5447 41.2283C81.5447 41.9589 81.2059 42.2718 80.9386 42.3722C81.3488 42.5366 81.4871 42.9248 81.4871 43.6212V43.8176C81.4871 44.2948 81.5032 44.5985 81.5516 44.8634H80.9985C80.934 44.6396 80.9294 44.2103 80.9294 43.8062V43.6372C80.9294 42.9453 80.7957 42.6302 80.1989 42.6302H79.6827ZM79.6827 42.1233H80.2265C80.7704 42.1233 80.9755 41.8059 80.9755 41.2488C80.9755 40.767 80.7681 40.4519 80.2795 40.4519H79.6804V42.1233H79.6827Z" fill="#24292E"/>
<path d="M89.4952 43.5554C89.532 44.0418 89.7441 44.4391 90.228 44.4391C90.7119 44.4391 90.9147 44.1582 90.9147 43.6308C90.9147 43.1353 90.7212 42.8658 90.1105 42.5485C89.3846 42.174 89.0712 41.8315 89.0712 41.1145C89.0712 40.3975 89.486 39.8769 90.2441 39.8769C91.1521 39.8769 91.3941 40.5711 91.4079 41.1602H90.8571C90.8341 40.9136 90.7672 40.3747 90.228 40.3747C89.8109 40.3747 89.6334 40.6807 89.6334 41.062C89.6334 41.5118 89.8201 41.7219 90.3847 42.0119C91.1867 42.4229 91.4931 42.8293 91.4931 43.5805C91.4931 44.3318 91.0806 44.9391 90.2165 44.9391C89.2763 44.9391 88.9721 44.2792 88.9375 43.5577H89.4998L89.4952 43.5554Z" fill="#24292E"/>
<path d="M99.6133 43.3632L99.3022 44.8634H98.7422L99.8345 39.9427H100.563L101.685 44.8634H101.09L100.775 43.3632H99.6133ZM100.664 42.8289C100.418 41.6712 100.254 40.9177 100.189 40.509H100.173C100.111 40.9428 99.9336 41.7991 99.7216 42.8289H100.664Z" fill="#24292E"/>
<path d="M109.402 44.8634L108.508 39.9427H109.102C109.379 41.5822 109.658 43.3015 109.718 44.0254H109.725C109.817 43.2901 110.264 41.0935 110.471 39.9427H110.997C111.199 41.0364 111.644 43.297 111.725 43.998H111.739C111.835 43.1029 112.236 41.0296 112.409 39.9427H112.972L112.006 44.8634H111.421C111.222 43.7605 110.815 41.6781 110.715 40.9017H110.706C110.598 41.7283 110.183 43.7879 109.976 44.8634H109.4H109.402Z" fill="#24292E"/>
<path d="M42.6933 27.0529C43.5851 25.9957 44.076 24.8426 44.1636 23.5959C44.2511 22.3491 43.9654 21.1755 43.3086 20.0749C42.6495 18.9743 41.6333 17.8646 40.2598 17.0951C38.884 16.3279 37.188 15.8986 35.1693 15.8119C35.9597 15.1154 36.7109 14.4144 37.4299 13.702C38.1466 12.9919 38.7757 12.2612 39.3173 11.5054C39.8588 10.7519 40.2898 9.97558 40.6124 9.17868C40.935 8.38179 41.0963 7.56206 41.0963 6.72178C41.0963 4.72155 40.1008 3.12776 38.112 1.93813C36.121 0.750778 32.9178 0.154819 28.5024 0.154819H17.8397V0.198203C18.2499 0.401423 18.5771 0.661727 18.826 0.981398C19.0749 1.30107 19.2639 1.65499 19.3975 2.04773C19.5289 2.43819 19.6165 2.85147 19.6602 3.2876C19.704 3.72144 19.7271 4.14386 19.7271 4.54802V36.1863C19.7271 36.1863 21.6329 33.0079 24.8222 31.2954V30.7679C25.4721 25.5184 28.3918 21.8788 31.224 19.0725C32.8694 17.4422 34.3834 16.506 34.3834 16.506C35.2891 16.7663 36.038 17.2801 36.6211 18.0496C38.3402 20.3124 38.2411 22.9405 38.0245 24.0297C37.0082 29.1581 29.8367 30.4597 29.8367 30.4597H29.8552C28.166 30.7085 27.1382 31.0168 25.9745 31.5785C24.2392 32.4165 22.7874 33.5285 21.6167 34.9122C20.5014 36.2297 19.6602 37.7253 19.0818 39.399V39.3442C19.0818 39.3442 18.5218 40.7439 16.8304 42.4199C16.169 43.0752 14.3323 44.4932 11.6522 44.4932L8.05498 44.4886V30.6378H8.07572C8.56196 30.6378 9.0505 30.6789 9.52522 30.7953C10.1267 30.9437 10.7166 31.1789 11.325 31.5146C12.4588 32.1379 13.3668 32.9622 14.0466 33.9875H14.0834V26.8565H14.0466C13.3668 27.8817 12.4588 28.5302 11.325 29.1536C10.7166 29.4892 10.1267 29.7244 9.52522 29.8728C9.05281 29.9893 8.56426 30.0304 8.07802 30.0304H8.05728V16.184L11.3918 16.1795C14.0719 16.1795 15.9086 17.5975 16.57 18.2528C18.2614 19.9288 18.8122 21.3193 18.9205 21.3285V15.5927H0.328125V15.636C0.738319 15.8393 1.06555 16.0996 1.31443 16.4192C1.56332 16.7389 1.75228 17.0928 1.88594 17.4856C2.01729 17.876 2.10486 18.2893 2.14865 18.7254C2.19243 19.1593 2.21548 19.5817 2.21548 19.9859V28.0073L2.26157 28.2608C2.4321 29.1969 3.03586 30.0007 3.89082 30.4323L3.87469 30.4414C2.97595 30.9414 2.36296 31.8251 2.21548 32.8344V40.6868C2.21548 41.0933 2.19243 41.5134 2.14865 41.9473C2.10486 42.3811 2.01729 42.7944 1.88594 43.1871C1.75459 43.5776 1.56332 43.9338 1.31443 44.2535C1.06555 44.5731 0.736014 44.8334 0.328125 45.0367V45.08H18.1232C18.1232 46.925 18.4112 48.7266 18.9896 50.4893C19.5681 52.2498 20.4345 53.823 21.5914 55.2068C22.7482 56.5905 24.2 57.7093 25.9491 58.561C27.6982 59.4127 29.7284 59.8397 32.0421 59.8397C34.3558 59.8397 36.4344 59.4264 38.5361 58.6021C40.6377 57.7778 42.4214 56.5266 43.8893 54.8506L43.5091 54.5149C42.0711 56.0585 40.6977 56.9353 39.1813 57.4879C37.3308 58.1614 36.0772 58.0929 34.5816 58.0381C32.8325 57.9811 31.3231 57.5495 30.0534 56.7389C28.7836 55.9283 27.7466 54.8802 26.9423 53.5947C26.1381 52.3092 25.5458 50.8547 25.1656 49.2335C24.7854 47.6123 24.5941 45.9569 24.5941 44.2649C24.5941 42.5729 24.7692 40.9243 25.1241 39.3168C25.4767 37.7093 25.9768 36.2777 26.6266 35.0195C27.2742 33.7614 28.0646 32.7499 28.9956 31.9804C29.9266 31.2132 30.9705 30.8273 32.1274 30.8273C33.2842 30.8273 34.1645 31.1561 34.9411 31.8137C35.7154 32.4713 36.3514 33.3024 36.8446 34.3071C37.3377 35.3141 37.6972 36.4101 37.9231 37.5975C38.0014 38.0062 38.059 38.4012 38.1097 38.7894C39.769 37.7345 41.442 36.6955 43.1173 35.6657V35.6612C42.6703 34.6382 41.9536 33.7271 40.9696 32.9234C40.0109 32.1402 38.7896 31.5123 37.3101 31.0373C36.704 30.8433 36.0496 30.6903 35.3513 30.5761C36.6326 30.4026 37.7733 30.1171 38.7665 29.7084C40.4926 28.9983 41.8015 28.1146 42.6933 27.0552V27.0529ZM34.2889 10.4414C31.8946 17.3189 29.6155 19.3008 27.8895 21.6139C26.5437 23.4177 25.7325 24.9887 25.5574 25.5321V0.723378H27.2258C28.5716 0.723378 29.7261 0.896913 30.6917 1.24627C31.6573 1.59334 32.4477 2.05915 33.0607 2.63684C33.676 3.21681 34.1276 3.87671 34.4203 4.61652C34.713 5.35633 34.8582 6.11669 34.8582 6.89988C34.8582 8.1466 34.6761 9.33167 34.2866 10.4437L34.2889 10.4414Z" fill="#24292E"/>
</g>
<defs>
<clipPath id="clip0_4837_10796">
<rect width="119" height="60" fill="white"/>
</clipPath>
</defs>
</svg>
