<svg width="119" height="60" viewBox="0 0 119 60" fill="none" xmlns="http://www.w3.org/2000/svg">
<g clip-path="url(#clip0_4832_10330)">
<path d="M55.7935 20.7056H52.8922V23.5529H56.1392L55.9641 24.7426H51.5234V15.9014H55.9341V17.1093H52.8922V19.5068H55.7935V20.7056Z" fill="white"/>
<path d="M57.5492 15.9014H59.7569C61.9714 15.9014 62.8725 17.3467 62.8725 20.1233C62.8725 23.1145 62.0244 24.7426 59.6255 24.7426H57.5469V15.9014H57.5492ZM58.9457 23.6077H59.6002C60.9805 23.6077 61.4391 22.5574 61.4391 20.1393C61.4391 17.9975 60.9805 17.0545 59.614 17.0545H58.9457V23.6077Z" fill="white"/>
<path d="M65.9075 15.9014V22.0254C65.9075 22.8359 66.1241 23.7287 67.175 23.7287C68.2258 23.7287 68.4355 22.9775 68.4355 22.0299V15.9014H69.8228V22.0528C69.8228 23.6465 69.2098 24.891 67.1473 24.891C65.0848 24.891 64.5156 23.7219 64.5156 22.071V15.9014H65.9075Z" fill="white"/>
<path d="M76.3325 22.2972C76.2933 22.7675 76.1044 24.9733 73.7354 24.9733C71.3664 24.9733 71 22.6694 71 20.3791C71 17.6163 71.7927 15.8535 73.8345 15.8535C76.1274 15.8535 76.2887 17.8583 76.321 18.5091H74.9429C74.9199 18.2099 74.8876 17.0317 73.8114 17.0317C72.6707 17.0317 72.4357 18.4817 72.4357 20.402C72.4357 22.1373 72.6177 23.811 73.7607 23.811C74.7931 23.811 74.9061 22.6716 74.9452 22.2972H76.3325Z" fill="white"/>
<path d="M79.6746 22.318L79.1607 24.7406H77.7734L79.8705 15.8994H81.6703L83.8042 24.7406H82.3455L81.8293 22.318H79.6769H79.6746ZM81.5712 21.1192C81.1748 19.2628 80.8845 17.9773 80.7531 17.1804H80.7185C80.6056 17.9796 80.2945 19.3975 79.9281 21.1192H81.5712Z" fill="white"/>
<path d="M85.5506 17.1093H83.6172V15.9014H88.8737V17.1093H86.9402V24.7426H85.5529V17.1093H85.5506Z" fill="white"/>
<path d="M91.5748 15.9014V24.7426H90.1875V15.9014H91.5748Z" fill="white"/>
<path d="M98.9183 20.2511C98.9183 23.409 98.0864 24.8864 96.0723 24.8864C94.1804 24.8864 93.3047 23.441 93.3047 20.2443C93.3047 17.0476 94.3279 15.7666 96.1369 15.7666C98.0473 15.7666 98.9183 17.2074 98.9183 20.2511ZM94.7288 20.2283C94.7288 22.4706 95.116 23.7264 96.1092 23.7264C97.1024 23.7264 97.4965 22.5436 97.4965 20.2374C97.4965 17.9312 97.1232 16.9403 96.1069 16.9403C95.0906 16.9403 94.7288 18.1116 94.7288 20.2306V20.2283Z" fill="white"/>
<path d="M100.641 24.7426V15.9014H102.247C104.305 21.2079 104.655 22.1076 104.766 22.5231H104.779C104.708 21.418 104.701 20.1073 104.701 18.662V15.9014H105.955V24.7426H104.415C102.286 19.1163 101.954 18.2213 101.844 17.8354H101.83C101.897 18.9291 101.899 20.2809 101.899 21.8678V24.7426H100.641Z" fill="white"/>
<path d="M109.143 22.318L108.629 24.7406H107.242L109.339 15.8994H111.139L113.273 24.7406H111.814L111.298 22.318H109.146H109.143ZM111.04 21.1192C110.644 19.2628 110.353 17.9773 110.222 17.1804H110.187C110.074 17.9796 109.763 19.3975 109.397 21.1192H111.04Z" fill="white"/>
<path d="M114.516 15.9014H115.903V23.5621H119.002L118.853 24.7426H114.516V15.9014Z" fill="white"/>
<path d="M51.5934 28.5195H53.9416C55.2828 28.5195 56.0456 29.273 56.0456 30.5289C56.0456 31.5633 55.5455 32.0473 55.0892 32.214C55.6769 32.4401 56.2921 32.9744 56.2921 34.1937C56.2921 35.6916 55.3312 36.5524 53.9001 36.5524H51.5934V28.5195ZM53.6075 31.7733C54.55 31.7733 54.8311 31.392 54.8311 30.6408C54.8311 29.8896 54.4394 29.5219 53.6789 29.5219H52.8285V31.7733H53.6075ZM52.8285 35.566H53.7711C54.573 35.566 55.0247 35.1299 55.0247 34.1754C55.0247 33.221 54.6076 32.7597 53.6075 32.7597H52.8285V35.566Z" fill="white"/>
<path d="M61.2088 32.8853H58.5725V35.4724H61.5222L61.3632 36.5524H57.3281V28.5195H61.3356V29.6178H58.5725V31.7962H61.2088V32.8853Z" fill="white"/>
<path d="M63.8354 34.3512L63.3699 36.5524H62.1094L64.0152 28.5195H65.649L67.5871 36.5524H66.262L65.7919 34.3512H63.8377H63.8354ZM65.5568 33.2621C65.1973 31.577 64.9346 30.4079 64.8125 29.684H64.7802C64.6765 30.4102 64.3954 31.698 64.0636 33.2621H65.5568Z" fill="white"/>
<path d="M69.5096 28.5195V34.0841C69.5096 34.8193 69.7078 35.6322 70.6596 35.6322C71.6113 35.6322 71.8049 34.9495 71.8049 34.0887V28.5195H73.0654V34.1092C73.0654 35.5591 72.5077 36.6894 70.6342 36.6894C68.7607 36.6894 68.2422 35.6276 68.2422 34.1275V28.5218H69.5073L69.5096 28.5195Z" fill="white"/>
<path d="M75.5708 29.6178H73.8125V28.5195H78.5896V29.6178H76.8313V36.5524H75.5708V29.6178Z" fill="white"/>
<path d="M81.1251 36.5524V33.6343C81.1251 33.5475 81.109 33.4744 81.0721 33.3945L79.0234 28.5195H80.4315C80.92 29.8119 81.5514 31.4788 81.7934 32.3054C82.0861 31.3897 82.7244 29.7503 83.1715 28.5195H84.5011L82.4294 33.4082C82.4064 33.4607 82.3856 33.5452 82.3856 33.6571V36.5524H81.1251Z" fill="white"/>
<path d="M91.9377 34.253C91.9009 34.68 91.7303 36.6848 89.578 36.6848C87.4256 36.6848 87.0938 34.5909 87.0938 32.5108C87.0938 29.9991 87.8127 28.3984 89.6701 28.3984C91.7534 28.3984 91.9009 30.2206 91.9285 30.812H90.6772C90.6564 30.5402 90.6265 29.4693 89.6494 29.4693C88.6124 29.4693 88.4004 30.7868 88.4004 32.5313C88.4004 34.1069 88.5663 35.6299 89.6033 35.6299C90.5412 35.6299 90.6449 34.5955 90.6795 34.253H91.94H91.9377Z" fill="white"/>
<path d="M96.7948 32.8853H94.1585V35.4724H97.1082L96.9492 36.5524H92.9141V28.5195H96.9215V29.6178H94.1585V31.7962H96.7948V32.8853Z" fill="white"/>
<path d="M98.0234 36.5524V28.5195H99.4822C101.351 33.342 101.671 34.1572 101.77 34.5362H101.782C101.717 33.5315 101.711 32.3396 101.711 31.0289V28.5195H102.849V36.5524H101.45C99.5144 31.44 99.2148 30.6271 99.1134 30.2754H99.1019C99.1618 31.271 99.1664 32.4972 99.1664 33.9402V36.5524H98.0234Z" fill="white"/>
<path d="M105.399 29.6178H103.641V28.5195H108.418V29.6178H106.659V36.5524H105.399V29.6178Z" fill="white"/>
<path d="M113.115 32.8853H110.479V35.4724H113.428L113.269 36.5524H109.234V28.5195H113.242V29.6178H110.479V31.7962H113.115V32.8853Z" fill="white"/>
<path d="M115.597 33.0337V36.5524H114.344V28.5195H116.701C118.137 28.5195 118.93 29.2822 118.93 30.6727C118.93 31.8487 118.314 32.3533 117.867 32.5177C118.538 32.8008 118.812 33.3717 118.812 34.5385V34.8582C118.812 35.7144 118.849 36.1209 118.923 36.5501H117.697C117.582 36.1825 117.563 35.5203 117.563 34.8422V34.5567C117.563 33.4585 117.319 33.0315 116.342 33.0315H115.595L115.597 33.0337ZM115.597 32.0108H116.399C117.314 32.0108 117.667 31.577 117.667 30.723C117.667 29.9923 117.319 29.5425 116.524 29.5425H115.597V32.0108Z" fill="white"/>
<path d="M58.4488 44.863L57.5547 39.9424H58.1492C58.4258 41.5818 58.7046 43.3012 58.7645 44.025H58.7714C58.8636 43.2898 59.3107 41.0932 59.5181 39.9424H60.0458C60.2463 41.0361 60.6934 43.2966 60.774 43.9976H60.7878C60.8846 43.1026 61.2856 41.0293 61.4584 39.9424H62.0207L61.0552 44.863H60.4698C60.2716 43.7602 59.8638 41.6777 59.7647 40.9014H59.7554C59.6471 41.728 59.2323 43.7876 59.0249 44.863H58.4465H58.4488Z" fill="white"/>
<path d="M69.6992 43.3629L69.3881 44.863H68.8281L69.9204 39.9424H70.6486L71.7709 44.863H71.1764L70.8607 43.3629H69.6992ZM70.75 42.8286C70.5035 41.6709 70.3399 40.9174 70.2753 40.5087H70.2592C70.197 40.9425 70.0195 41.7988 69.8075 42.8286H70.75Z" fill="white"/>
<path d="M79.6827 42.6299V44.863H79.125V39.9424H80.3533C81.1299 39.9424 81.5447 40.4105 81.5447 41.2279C81.5447 41.9586 81.2059 42.2714 80.9386 42.3719C81.3488 42.5363 81.4871 42.9245 81.4871 43.6209V43.8173C81.4871 44.2945 81.5032 44.5982 81.5516 44.863H80.9985C80.934 44.6393 80.9294 44.21 80.9294 43.8058V43.6369C80.9294 42.945 80.7957 42.6299 80.1989 42.6299H79.6827ZM79.6827 42.123H80.2265C80.7704 42.123 80.9755 41.8056 80.9755 41.2485C80.9755 40.7667 80.7681 40.4516 80.2795 40.4516H79.6804V42.123H79.6827Z" fill="white"/>
<path d="M89.4952 43.5555C89.532 44.0418 89.7441 44.4391 90.228 44.4391C90.7119 44.4391 90.9147 44.1583 90.9147 43.6308C90.9147 43.1353 90.7212 42.8659 90.1105 42.5485C89.3846 42.174 89.0712 41.8315 89.0712 41.1145C89.0712 40.3976 89.486 39.877 90.2441 39.877C91.1521 39.877 91.3941 40.5711 91.4079 41.1602H90.8571C90.8341 40.9136 90.7672 40.3747 90.228 40.3747C89.8109 40.3747 89.6334 40.6807 89.6334 41.062C89.6334 41.5118 89.8201 41.7219 90.3847 42.0119C91.1867 42.4229 91.4931 42.8293 91.4931 43.5806C91.4931 44.3318 91.0806 44.9392 90.2165 44.9392C89.2763 44.9392 88.9721 44.2793 88.9375 43.5577H89.4998L89.4952 43.5555Z" fill="white"/>
<path d="M99.6133 43.3629L99.3022 44.863H98.7422L99.8345 39.9424H100.563L101.685 44.863H101.09L100.775 43.3629H99.6133ZM100.664 42.8286C100.418 41.6709 100.254 40.9174 100.189 40.5087H100.173C100.111 40.9425 99.9336 41.7988 99.7216 42.8286H100.664Z" fill="white"/>
<path d="M109.402 44.863L108.508 39.9424H109.102C109.379 41.5818 109.658 43.3012 109.718 44.025H109.725C109.817 43.2898 110.264 41.0932 110.471 39.9424H110.997C111.199 41.0361 111.644 43.2966 111.725 43.9976H111.739C111.835 43.1026 112.236 41.0293 112.409 39.9424H112.972L112.006 44.863H111.421C111.222 43.7602 110.815 41.6777 110.715 40.9014H110.706C110.598 41.728 110.183 43.7876 109.976 44.863H109.4H109.402Z" fill="white"/>
<path d="M42.6933 27.0533C43.5851 25.9961 44.076 24.843 44.1636 23.5963C44.2511 22.3496 43.9654 21.1759 43.3086 20.0754C42.6495 18.9748 41.6333 17.8651 40.2598 17.0956C38.884 16.3284 37.188 15.8991 35.1693 15.8123C35.9597 15.1159 36.7109 14.4149 37.4299 13.7025C38.1466 12.9924 38.7757 12.2617 39.3173 11.5059C39.8588 10.7524 40.2898 9.97603 40.6124 9.17914C40.935 8.38224 41.0963 7.56251 41.0963 6.72223C41.0963 4.722 40.1008 3.12822 38.112 1.93858C36.121 0.751232 32.9178 0.155273 28.5024 0.155273H17.8397V0.198657C18.2499 0.401877 18.5771 0.662181 18.826 0.981852C19.0749 1.30152 19.2639 1.65544 19.3975 2.04818C19.5289 2.43864 19.6165 2.85193 19.6602 3.28805C19.704 3.72189 19.7271 4.14431 19.7271 4.54847V36.1868C19.7271 36.1868 21.6329 33.0083 24.8222 31.2958V30.7684C25.4721 25.5189 28.3918 21.8792 31.224 19.073C32.8694 17.4426 34.3834 16.5065 34.3834 16.5065C35.2891 16.7668 36.038 17.2805 36.6211 18.05C38.3402 20.3128 38.2411 22.941 38.0245 24.0301C37.0082 29.1586 29.8367 30.4601 29.8367 30.4601H29.8552C28.166 30.709 27.1382 31.0172 25.9745 31.579C24.2392 32.417 22.7874 33.5289 21.6167 34.9127C20.5014 36.2302 19.6602 37.7258 19.0818 39.3995V39.3447C19.0818 39.3447 18.5218 40.7444 16.8304 42.4204C16.169 43.0757 14.3323 44.4937 11.6522 44.4937L8.05498 44.4891V30.6382H8.07572C8.56196 30.6382 9.0505 30.6793 9.52522 30.7958C10.1267 30.9442 10.7166 31.1794 11.325 31.515C12.4588 32.1384 13.3668 32.9627 14.0466 33.9879H14.0834V26.857H14.0466C13.3668 27.8822 12.4588 28.5307 11.325 29.154C10.7166 29.4897 10.1267 29.7249 9.52522 29.8733C9.05281 29.9897 8.56426 30.0308 8.07802 30.0308H8.05728V16.1845L11.3918 16.1799C14.0719 16.1799 15.9086 17.5979 16.57 18.2532C18.2614 19.9292 18.8122 21.3198 18.9205 21.3289V15.5931H0.328125V15.6365C0.738319 15.8397 1.06555 16.1 1.31443 16.4197C1.56332 16.7394 1.75228 17.0933 1.88594 17.486C2.01729 17.8765 2.10486 18.2898 2.14865 18.7259C2.19243 19.1597 2.21548 19.5821 2.21548 19.9863V28.0078L2.26157 28.2612C2.4321 29.1974 3.03586 30.0011 3.89082 30.4327L3.87469 30.4418C2.97595 30.9419 2.36296 31.8256 2.21548 32.8348V40.6873C2.21548 41.0937 2.19243 41.5139 2.14865 41.9477C2.10486 42.3816 2.01729 42.7948 1.88594 43.1876C1.75459 43.578 1.56332 43.9342 1.31443 44.2539C1.06555 44.5736 0.736014 44.8339 0.328125 45.0371V45.0805H18.1232C18.1232 46.9255 18.4112 48.727 18.9896 50.4898C19.5681 52.2503 20.4345 53.8235 21.5914 55.2072C22.7482 56.5909 24.2 57.7098 25.9491 58.5615C27.6982 59.4132 29.7284 59.8402 32.0421 59.8402C34.3558 59.8402 36.4344 59.4269 38.5361 58.6026C40.6377 57.7783 42.4214 56.527 43.8893 54.851L43.5091 54.5154C42.0711 56.0589 40.6977 56.9357 39.1813 57.4883C37.3308 58.1619 36.0772 58.0934 34.5816 58.0386C32.8325 57.9815 31.3231 57.55 30.0534 56.7394C28.7836 55.9288 27.7466 54.8807 26.9423 53.5952C26.1381 52.3096 25.5458 50.8551 25.1656 49.2339C24.7854 47.6127 24.5941 45.9573 24.5941 44.2653C24.5941 42.5734 24.7692 40.9248 25.1241 39.3173C25.4767 37.7098 25.9768 36.2781 26.6266 35.02C27.2742 33.7619 28.0646 32.7503 28.9956 31.9808C29.9266 31.2136 30.9705 30.8277 32.1274 30.8277C33.2842 30.8277 34.1645 31.1565 34.9411 31.8141C35.7154 32.4718 36.3514 33.3029 36.8446 34.3076C37.3377 35.3145 37.6972 36.4106 37.9231 37.5979C38.0014 38.0066 38.059 38.4017 38.1097 38.7898C39.769 37.7349 41.442 36.696 43.1173 35.6662V35.6616C42.6703 34.6387 41.9536 33.7276 40.9696 32.9239C40.0109 32.1407 38.7896 31.5127 37.3101 31.0378C36.704 30.8437 36.0496 30.6907 35.3513 30.5766C36.6326 30.403 37.7733 30.1176 38.7665 29.7089C40.4926 28.9988 41.8015 28.1151 42.6933 27.0556V27.0533ZM34.2889 10.4418C31.8946 17.3193 29.6155 19.3013 27.8895 21.6143C26.5437 23.4182 25.7325 24.9892 25.5574 25.5326V0.723832H27.2258C28.5716 0.723832 29.7261 0.897367 30.6917 1.24672C31.6573 1.59379 32.4477 2.0596 33.0607 2.63729C33.676 3.21727 34.1276 3.87716 34.4203 4.61697C34.713 5.35678 34.8582 6.11714 34.8582 6.90034C34.8582 8.14705 34.6761 9.33212 34.2866 10.4441L34.2889 10.4418Z" fill="white"/>
</g>
<defs>
<clipPath id="clip0_4832_10330">
<rect width="119" height="60" fill="white"/>
</clipPath>
</defs>
</svg>
