<svg width="160" height="24" viewBox="0 0 160 24" fill="none" xmlns="http://www.w3.org/2000/svg">
<path d="M21.579 12.234C21.579 11.557 21.524 10.875 21.407 10.209H12.004V14.048H17.388C17.2777 14.6612 17.0443 15.2457 16.7019 15.7663C16.3596 16.2869 15.9153 16.7327 15.396 17.077V19.567H18.608C20.494 17.831 21.578 15.267 21.578 12.234H21.579Z" fill="#2A84FC"/>
<path d="M12.004 21.974C14.692 21.974 16.96 21.092 18.612 19.568L15.399 17.077C14.506 17.685 13.352 18.029 12.007 18.029C9.40697 18.029 7.20097 16.275 6.40997 13.916H3.09497V16.483C3.92517 18.134 5.19791 19.5218 6.77109 20.4914C8.34427 21.461 10.156 21.9743 12.004 21.974Z" fill="#00AC47"/>
<path d="M6.407 13.916C5.98938 12.6779 5.98938 11.3371 6.407 10.099V7.53101H3.095C2.39756 8.92017 2.03436 10.4531 2.03436 12.0075C2.03436 13.5619 2.39756 15.0948 3.095 16.484L6.407 13.916Z" fill="#FFBA00"/>
<path d="M12.004 5.982C13.4253 5.95897 14.7987 6.49555 15.828 7.476L18.674 4.63C16.869 2.93661 14.4788 2.00739 12.004 2.037C10.1557 2.03652 8.3437 2.54998 6.77044 3.52001C5.19718 4.49003 3.92462 5.8784 3.09497 7.53L6.40697 10.1C7.19397 7.737 9.40297 5.982 12.004 5.982Z" fill="#FC2C25"/>
<g clip-path="url(#clip0_4622_6331)">
<path d="M37.5383 3.60996C37.7091 3.19932 38.2909 3.19932 38.4617 3.60996L40.5278 8.57744C40.5998 8.75056 40.7626 8.86885 40.9495 8.88383L46.3123 9.31376C46.7556 9.3493 46.9354 9.90256 46.5976 10.1919L42.5117 13.6919C42.3693 13.8139 42.3071 14.0053 42.3506 14.1876L43.5989 19.4208C43.7021 19.8534 43.2315 20.1954 42.8519 19.9635L38.2606 17.1592C38.1006 17.0615 37.8994 17.0615 37.7394 17.1592L33.1481 19.9635C32.7685 20.1954 32.2979 19.8534 32.4011 19.4208L33.6494 14.1876C33.6929 14.0053 33.6307 13.8139 33.4883 13.6919L29.4024 10.1919C29.0646 9.90256 29.2444 9.3493 29.6877 9.31376L35.0505 8.88383C35.2374 8.86885 35.4002 8.75056 35.4722 8.57744L37.5383 3.60996Z" fill="#E5E7EA"/>
<g clip-path="url(#clip1_4622_6331)">
<path d="M37.5383 3.60996C37.7091 3.19932 38.2909 3.19932 38.4617 3.60996L40.5278 8.57744C40.5998 8.75056 40.7626 8.86885 40.9495 8.88383L46.3123 9.31376C46.7556 9.3493 46.9354 9.90256 46.5976 10.1919L42.5117 13.6919C42.3693 13.8139 42.3071 14.0053 42.3506 14.1876L43.5989 19.4208C43.7021 19.8534 43.2315 20.1954 42.8519 19.9635L38.2606 17.1592C38.1006 17.0615 37.8994 17.0615 37.7394 17.1592L33.1481 19.9635C32.7685 20.1954 32.2979 19.8534 32.4011 19.4208L33.6494 14.1876C33.6929 14.0053 33.6307 13.8139 33.4883 13.6919L29.4024 10.1919C29.0646 9.90256 29.2444 9.3493 29.6877 9.31376L35.0505 8.88383C35.2374 8.86885 35.4002 8.75056 35.4722 8.57744L37.5383 3.60996Z" fill="#FDB022"/>
</g>
</g>
<g clip-path="url(#clip2_4622_6331)">
<path d="M57.5383 3.60996C57.7091 3.19932 58.2909 3.19932 58.4617 3.60996L60.5278 8.57744C60.5998 8.75056 60.7626 8.86885 60.9495 8.88383L66.3123 9.31376C66.7556 9.3493 66.9354 9.90256 66.5976 10.1919L62.5117 13.6919C62.3693 13.8139 62.3071 14.0053 62.3506 14.1876L63.5989 19.4208C63.7021 19.8534 63.2315 20.1954 62.8519 19.9635L58.2606 17.1592C58.1006 17.0615 57.8994 17.0615 57.7394 17.1592L53.1481 19.9635C52.7685 20.1954 52.2979 19.8534 52.4011 19.4208L53.6494 14.1876C53.6929 14.0053 53.6307 13.8139 53.4883 13.6919L49.4024 10.1919C49.0646 9.90256 49.2444 9.3493 49.6877 9.31376L55.0505 8.88383C55.2374 8.86885 55.4002 8.75056 55.4722 8.57744L57.5383 3.60996Z" fill="#E5E7EA"/>
<g clip-path="url(#clip3_4622_6331)">
<path d="M57.5383 3.60996C57.7091 3.19932 58.2909 3.19932 58.4617 3.60996L60.5278 8.57744C60.5998 8.75056 60.7626 8.86885 60.9495 8.88383L66.3123 9.31376C66.7556 9.3493 66.9354 9.90256 66.5976 10.1919L62.5117 13.6919C62.3693 13.8139 62.3071 14.0053 62.3506 14.1876L63.5989 19.4208C63.7021 19.8534 63.2315 20.1954 62.8519 19.9635L58.2606 17.1592C58.1006 17.0615 57.8994 17.0615 57.7394 17.1592L53.1481 19.9635C52.7685 20.1954 52.2979 19.8534 52.4011 19.4208L53.6494 14.1876C53.6929 14.0053 53.6307 13.8139 53.4883 13.6919L49.4024 10.1919C49.0646 9.90256 49.2444 9.3493 49.6877 9.31376L55.0505 8.88383C55.2374 8.86885 55.4002 8.75056 55.4722 8.57744L57.5383 3.60996Z" fill="#FDB022"/>
</g>
</g>
<g clip-path="url(#clip4_4622_6331)">
<path d="M77.5383 3.60996C77.7091 3.19932 78.2909 3.19932 78.4617 3.60996L80.5278 8.57744C80.5998 8.75056 80.7626 8.86885 80.9495 8.88383L86.3123 9.31376C86.7556 9.3493 86.9354 9.90256 86.5976 10.1919L82.5117 13.6919C82.3693 13.8139 82.3071 14.0053 82.3506 14.1876L83.5989 19.4208C83.7021 19.8534 83.2315 20.1954 82.8519 19.9635L78.2606 17.1592C78.1006 17.0615 77.8994 17.0615 77.7394 17.1592L73.1481 19.9635C72.7685 20.1954 72.2979 19.8534 72.4011 19.4208L73.6494 14.1876C73.6929 14.0053 73.6307 13.8139 73.4883 13.6919L69.4024 10.1919C69.0646 9.90256 69.2444 9.3493 69.6877 9.31376L75.0505 8.88383C75.2374 8.86885 75.4002 8.75056 75.4722 8.57744L77.5383 3.60996Z" fill="#E5E7EA"/>
<g clip-path="url(#clip5_4622_6331)">
<path d="M77.5383 3.60996C77.7091 3.19932 78.2909 3.19932 78.4617 3.60996L80.5278 8.57744C80.5998 8.75056 80.7626 8.86885 80.9495 8.88383L86.3123 9.31376C86.7556 9.3493 86.9354 9.90256 86.5976 10.1919L82.5117 13.6919C82.3693 13.8139 82.3071 14.0053 82.3506 14.1876L83.5989 19.4208C83.7021 19.8534 83.2315 20.1954 82.8519 19.9635L78.2606 17.1592C78.1006 17.0615 77.8994 17.0615 77.7394 17.1592L73.1481 19.9635C72.7685 20.1954 72.2979 19.8534 72.4011 19.4208L73.6494 14.1876C73.6929 14.0053 73.6307 13.8139 73.4883 13.6919L69.4024 10.1919C69.0646 9.90256 69.2444 9.3493 69.6877 9.31376L75.0505 8.88383C75.2374 8.86885 75.4002 8.75056 75.4722 8.57744L77.5383 3.60996Z" fill="#FDB022"/>
</g>
</g>
<g clip-path="url(#clip6_4622_6331)">
<path d="M97.5383 3.60996C97.7091 3.19932 98.2909 3.19932 98.4617 3.60996L100.528 8.57744C100.6 8.75056 100.763 8.86885 100.949 8.88383L106.312 9.31376C106.756 9.3493 106.935 9.90256 106.598 10.1919L102.512 13.6919C102.369 13.8139 102.307 14.0053 102.351 14.1876L103.599 19.4208C103.702 19.8534 103.231 20.1954 102.852 19.9635L98.2606 17.1592C98.1006 17.0615 97.8994 17.0615 97.7394 17.1592L93.1481 19.9635C92.7685 20.1954 92.2979 19.8534 92.4011 19.4208L93.6494 14.1876C93.6929 14.0053 93.6307 13.8139 93.4883 13.6919L89.4024 10.1919C89.0646 9.90256 89.2444 9.3493 89.6877 9.31376L95.0505 8.88383C95.2374 8.86885 95.4002 8.75056 95.4722 8.57744L97.5383 3.60996Z" fill="#E5E7EA"/>
<g clip-path="url(#clip7_4622_6331)">
<path d="M97.5383 3.60996C97.7091 3.19932 98.2909 3.19932 98.4617 3.60996L100.528 8.57744C100.6 8.75056 100.763 8.86885 100.949 8.88383L106.312 9.31376C106.756 9.3493 106.935 9.90256 106.598 10.1919L102.512 13.6919C102.369 13.8139 102.307 14.0053 102.351 14.1876L103.599 19.4208C103.702 19.8534 103.231 20.1954 102.852 19.9635L98.2606 17.1592C98.1006 17.0615 97.8994 17.0615 97.7394 17.1592L93.1481 19.9635C92.7685 20.1954 92.2979 19.8534 92.4011 19.4208L93.6494 14.1876C93.6929 14.0053 93.6307 13.8139 93.4883 13.6919L89.4024 10.1919C89.0646 9.90256 89.2444 9.3493 89.6877 9.31376L95.0505 8.88383C95.2374 8.86885 95.4002 8.75056 95.4722 8.57744L97.5383 3.60996Z" fill="#FDB022"/>
</g>
</g>
<g clip-path="url(#clip8_4622_6331)">
<path d="M117.538 3.60996C117.709 3.19932 118.291 3.19932 118.462 3.60996L120.528 8.57744C120.6 8.75056 120.763 8.86885 120.949 8.88383L126.312 9.31376C126.756 9.3493 126.935 9.90256 126.598 10.1919L122.512 13.6919C122.369 13.8139 122.307 14.0053 122.351 14.1876L123.599 19.4208C123.702 19.8534 123.231 20.1954 122.852 19.9635L118.261 17.1592C118.101 17.0615 117.899 17.0615 117.739 17.1592L113.148 19.9635C112.769 20.1954 112.298 19.8534 112.401 19.4208L113.649 14.1876C113.693 14.0053 113.631 13.8139 113.488 13.6919L109.402 10.1919C109.065 9.90256 109.244 9.3493 109.688 9.31376L115.051 8.88383C115.237 8.86885 115.4 8.75056 115.472 8.57744L117.538 3.60996Z" fill="#E5E7EA"/>
<g clip-path="url(#clip9_4622_6331)">
<path d="M117.538 3.60996C117.709 3.19932 118.291 3.19932 118.462 3.60996L120.528 8.57744C120.6 8.75056 120.763 8.86885 120.949 8.88383L126.312 9.31376C126.756 9.3493 126.935 9.90256 126.598 10.1919L122.512 13.6919C122.369 13.8139 122.307 14.0053 122.351 14.1876L123.599 19.4208C123.702 19.8534 123.231 20.1954 122.852 19.9635L118.261 17.1592C118.101 17.0615 117.899 17.0615 117.739 17.1592L113.148 19.9635C112.769 20.1954 112.298 19.8534 112.401 19.4208L113.649 14.1876C113.693 14.0053 113.631 13.8139 113.488 13.6919L109.402 10.1919C109.065 9.90256 109.244 9.3493 109.688 9.31376L115.051 8.88383C115.237 8.86885 115.4 8.75056 115.472 8.57744L117.538 3.60996Z" fill="#FDB022"/>
</g>
</g>
<defs>
<clipPath id="clip0_4622_6331">
<rect width="20" height="20" fill="white" transform="translate(28 2)"/>
</clipPath>
<clipPath id="clip1_4622_6331">
<rect width="20" height="20" fill="white" transform="translate(28 2)"/>
</clipPath>
<clipPath id="clip2_4622_6331">
<rect width="20" height="20" fill="white" transform="translate(48 2)"/>
</clipPath>
<clipPath id="clip3_4622_6331">
<rect width="20" height="20" fill="white" transform="translate(48 2)"/>
</clipPath>
<clipPath id="clip4_4622_6331">
<rect width="20" height="20" fill="white" transform="translate(68 2)"/>
</clipPath>
<clipPath id="clip5_4622_6331">
<rect width="20" height="20" fill="white" transform="translate(68 2)"/>
</clipPath>
<clipPath id="clip6_4622_6331">
<rect width="20" height="20" fill="white" transform="translate(88 2)"/>
</clipPath>
<clipPath id="clip7_4622_6331">
<rect width="20" height="20" fill="white" transform="translate(88 2)"/>
</clipPath>
<clipPath id="clip8_4622_6331">
<rect width="20" height="20" fill="white" transform="translate(108 2)"/>
</clipPath>
<clipPath id="clip9_4622_6331">
<rect width="15" height="20" fill="white" transform="translate(108 2)"/>
</clipPath>
</defs>
</svg>
