<svg width="129" height="24" viewBox="0 0 129 24" fill="none" xmlns="http://www.w3.org/2000/svg">
<path d="M22.0789 12.234C22.0789 11.557 22.0239 10.875 21.9069 10.209H12.5039V14.048H17.8879C17.7775 14.6612 17.5441 15.2457 17.2018 15.7663C16.8594 16.2869 16.4152 16.7327 15.8959 17.077V19.567H19.1079C20.9939 17.831 22.0779 15.267 22.0779 12.234H22.0789Z" fill="#2A84FC"/>
<path d="M12.5037 21.974C15.1917 21.974 17.4597 21.092 19.1117 19.568L15.8987 17.077C15.0057 17.685 13.8517 18.029 12.5067 18.029C9.90673 18.029 7.70073 16.275 6.90973 13.916H3.59473V16.483C4.42493 18.134 5.69767 19.5218 7.27085 20.4914C8.84403 21.461 10.6557 21.9743 12.5037 21.974Z" fill="#00AC47"/>
<path d="M6.90682 13.916C6.48919 12.6779 6.48919 11.3371 6.90682 10.099V7.53101H3.59482C2.89738 8.92017 2.53418 10.4531 2.53418 12.0075C2.53418 13.5619 2.89738 15.0948 3.59482 16.484L6.90682 13.916Z" fill="#FFBA00"/>
<path d="M12.5037 5.982C13.925 5.95897 15.2985 6.49555 16.3277 7.476L19.1737 4.63C17.3688 2.93661 14.9785 2.00739 12.5037 2.037C10.6555 2.03652 8.84346 2.54998 7.2702 3.52001C5.69693 4.49003 4.42438 5.8784 3.59473 7.53L6.90673 10.1C7.69373 7.737 9.90273 5.982 12.5037 5.982Z" fill="#FC2C25"/>
<g clip-path="url(#clip0_4765_698)">
<path d="M38.0383 3.60996C38.2091 3.19932 38.7909 3.19932 38.9617 3.60996L41.0278 8.57744C41.0998 8.75056 41.2626 8.86885 41.4495 8.88383L46.8123 9.31376C47.2556 9.3493 47.4354 9.90256 47.0976 10.1919L43.0117 13.6919C42.8693 13.8139 42.8071 14.0053 42.8506 14.1876L44.0989 19.4208C44.2021 19.8534 43.7315 20.1954 43.3519 19.9635L38.7606 17.1592C38.6006 17.0615 38.3994 17.0615 38.2394 17.1592L33.6481 19.9635C33.2685 20.1954 32.7979 19.8534 32.9011 19.4208L34.1494 14.1876C34.1929 14.0053 34.1307 13.8139 33.9883 13.6919L29.9024 10.1919C29.5646 9.90256 29.7444 9.3493 30.1877 9.31376L35.5505 8.88383C35.7374 8.86885 35.9002 8.75056 35.9722 8.57744L38.0383 3.60996Z" fill="#E5E7EA"/>
<g clip-path="url(#clip1_4765_698)">
<path d="M38.0383 3.60996C38.2091 3.19932 38.7909 3.19932 38.9617 3.60996L41.0278 8.57744C41.0998 8.75056 41.2626 8.86885 41.4495 8.88383L46.8123 9.31376C47.2556 9.3493 47.4354 9.90256 47.0976 10.1919L43.0117 13.6919C42.8693 13.8139 42.8071 14.0053 42.8506 14.1876L44.0989 19.4208C44.2021 19.8534 43.7315 20.1954 43.3519 19.9635L38.7606 17.1592C38.6006 17.0615 38.3994 17.0615 38.2394 17.1592L33.6481 19.9635C33.2685 20.1954 32.7979 19.8534 32.9011 19.4208L34.1494 14.1876C34.1929 14.0053 34.1307 13.8139 33.9883 13.6919L29.9024 10.1919C29.5646 9.90256 29.7444 9.3493 30.1877 9.31376L35.5505 8.88383C35.7374 8.86885 35.9002 8.75056 35.9722 8.57744L38.0383 3.60996Z" fill="#FDB022"/>
</g>
</g>
<g clip-path="url(#clip2_4765_698)">
<path d="M58.0383 3.60996C58.2091 3.19932 58.7909 3.19932 58.9617 3.60996L61.0278 8.57744C61.0998 8.75056 61.2626 8.86885 61.4495 8.88383L66.8123 9.31376C67.2556 9.3493 67.4354 9.90256 67.0976 10.1919L63.0117 13.6919C62.8693 13.8139 62.8071 14.0053 62.8506 14.1876L64.0989 19.4208C64.2021 19.8534 63.7315 20.1954 63.3519 19.9635L58.7606 17.1592C58.6006 17.0615 58.3994 17.0615 58.2394 17.1592L53.6481 19.9635C53.2685 20.1954 52.7979 19.8534 52.9011 19.4208L54.1494 14.1876C54.1929 14.0053 54.1307 13.8139 53.9883 13.6919L49.9024 10.1919C49.5646 9.90256 49.7444 9.3493 50.1877 9.31376L55.5505 8.88383C55.7374 8.86885 55.9002 8.75056 55.9722 8.57744L58.0383 3.60996Z" fill="#E5E7EA"/>
<g clip-path="url(#clip3_4765_698)">
<path d="M58.0383 3.60996C58.2091 3.19932 58.7909 3.19932 58.9617 3.60996L61.0278 8.57744C61.0998 8.75056 61.2626 8.86885 61.4495 8.88383L66.8123 9.31376C67.2556 9.3493 67.4354 9.90256 67.0976 10.1919L63.0117 13.6919C62.8693 13.8139 62.8071 14.0053 62.8506 14.1876L64.0989 19.4208C64.2021 19.8534 63.7315 20.1954 63.3519 19.9635L58.7606 17.1592C58.6006 17.0615 58.3994 17.0615 58.2394 17.1592L53.6481 19.9635C53.2685 20.1954 52.7979 19.8534 52.9011 19.4208L54.1494 14.1876C54.1929 14.0053 54.1307 13.8139 53.9883 13.6919L49.9024 10.1919C49.5646 9.90256 49.7444 9.3493 50.1877 9.31376L55.5505 8.88383C55.7374 8.86885 55.9002 8.75056 55.9722 8.57744L58.0383 3.60996Z" fill="#FDB022"/>
</g>
</g>
<g clip-path="url(#clip4_4765_698)">
<path d="M78.0383 3.60996C78.2091 3.19932 78.7909 3.19932 78.9617 3.60996L81.0278 8.57744C81.0998 8.75056 81.2626 8.86885 81.4495 8.88383L86.8123 9.31376C87.2556 9.3493 87.4354 9.90256 87.0976 10.1919L83.0117 13.6919C82.8693 13.8139 82.8071 14.0053 82.8506 14.1876L84.0989 19.4208C84.2021 19.8534 83.7315 20.1954 83.3519 19.9635L78.7606 17.1592C78.6006 17.0615 78.3994 17.0615 78.2394 17.1592L73.6481 19.9635C73.2685 20.1954 72.7979 19.8534 72.9011 19.4208L74.1494 14.1876C74.1929 14.0053 74.1307 13.8139 73.9883 13.6919L69.9024 10.1919C69.5646 9.90256 69.7444 9.3493 70.1877 9.31376L75.5505 8.88383C75.7374 8.86885 75.9002 8.75056 75.9722 8.57744L78.0383 3.60996Z" fill="#E5E7EA"/>
<g clip-path="url(#clip5_4765_698)">
<path d="M78.0383 3.60996C78.2091 3.19932 78.7909 3.19932 78.9617 3.60996L81.0278 8.57744C81.0998 8.75056 81.2626 8.86885 81.4495 8.88383L86.8123 9.31376C87.2556 9.3493 87.4354 9.90256 87.0976 10.1919L83.0117 13.6919C82.8693 13.8139 82.8071 14.0053 82.8506 14.1876L84.0989 19.4208C84.2021 19.8534 83.7315 20.1954 83.3519 19.9635L78.7606 17.1592C78.6006 17.0615 78.3994 17.0615 78.2394 17.1592L73.6481 19.9635C73.2685 20.1954 72.7979 19.8534 72.9011 19.4208L74.1494 14.1876C74.1929 14.0053 74.1307 13.8139 73.9883 13.6919L69.9024 10.1919C69.5646 9.90256 69.7444 9.3493 70.1877 9.31376L75.5505 8.88383C75.7374 8.86885 75.9002 8.75056 75.9722 8.57744L78.0383 3.60996Z" fill="#FDB022"/>
</g>
</g>
<g clip-path="url(#clip6_4765_698)">
<path d="M98.0383 3.60996C98.2091 3.19932 98.7909 3.19932 98.9617 3.60996L101.028 8.57744C101.1 8.75056 101.263 8.86885 101.449 8.88383L106.812 9.31376C107.256 9.3493 107.435 9.90256 107.098 10.1919L103.012 13.6919C102.869 13.8139 102.807 14.0053 102.851 14.1876L104.099 19.4208C104.202 19.8534 103.731 20.1954 103.352 19.9635L98.7606 17.1592C98.6006 17.0615 98.3994 17.0615 98.2394 17.1592L93.6481 19.9635C93.2685 20.1954 92.7979 19.8534 92.9011 19.4208L94.1494 14.1876C94.1929 14.0053 94.1307 13.8139 93.9883 13.6919L89.9024 10.1919C89.5646 9.90256 89.7444 9.3493 90.1877 9.31376L95.5505 8.88383C95.7374 8.86885 95.9002 8.75056 95.9722 8.57744L98.0383 3.60996Z" fill="#E5E7EA"/>
<g clip-path="url(#clip7_4765_698)">
<path d="M98.0383 3.60996C98.2091 3.19932 98.7909 3.19932 98.9617 3.60996L101.028 8.57744C101.1 8.75056 101.263 8.86885 101.449 8.88383L106.812 9.31376C107.256 9.3493 107.435 9.90256 107.098 10.1919L103.012 13.6919C102.869 13.8139 102.807 14.0053 102.851 14.1876L104.099 19.4208C104.202 19.8534 103.731 20.1954 103.352 19.9635L98.7606 17.1592C98.6006 17.0615 98.3994 17.0615 98.2394 17.1592L93.6481 19.9635C93.2685 20.1954 92.7979 19.8534 92.9011 19.4208L94.1494 14.1876C94.1929 14.0053 94.1307 13.8139 93.9883 13.6919L89.9024 10.1919C89.5646 9.90256 89.7444 9.3493 90.1877 9.31376L95.5505 8.88383C95.7374 8.86885 95.9002 8.75056 95.9722 8.57744L98.0383 3.60996Z" fill="#FDB022"/>
</g>
</g>
<g clip-path="url(#clip8_4765_698)">
<path d="M118.038 3.60996C118.209 3.19932 118.791 3.19932 118.962 3.60996L121.028 8.57744C121.1 8.75056 121.263 8.86885 121.449 8.88383L126.812 9.31376C127.256 9.3493 127.435 9.90256 127.098 10.1919L123.012 13.6919C122.869 13.8139 122.807 14.0053 122.851 14.1876L124.099 19.4208C124.202 19.8534 123.731 20.1954 123.352 19.9635L118.761 17.1592C118.601 17.0615 118.399 17.0615 118.239 17.1592L113.648 19.9635C113.269 20.1954 112.798 19.8534 112.901 19.4208L114.149 14.1876C114.193 14.0053 114.131 13.8139 113.988 13.6919L109.902 10.1919C109.565 9.90256 109.744 9.3493 110.188 9.31376L115.551 8.88383C115.737 8.86885 115.9 8.75056 115.972 8.57744L118.038 3.60996Z" fill="#E5E7EA"/>
<g clip-path="url(#clip9_4765_698)">
<path d="M118.038 3.60996C118.209 3.19932 118.791 3.19932 118.962 3.60996L121.028 8.57744C121.1 8.75056 121.263 8.86885 121.449 8.88383L126.812 9.31376C127.256 9.3493 127.435 9.90256 127.098 10.1919L123.012 13.6919C122.869 13.8139 122.807 14.0053 122.851 14.1876L124.099 19.4208C124.202 19.8534 123.731 20.1954 123.352 19.9635L118.761 17.1592C118.601 17.0615 118.399 17.0615 118.239 17.1592L113.648 19.9635C113.269 20.1954 112.798 19.8534 112.901 19.4208L114.149 14.1876C114.193 14.0053 114.131 13.8139 113.988 13.6919L109.902 10.1919C109.565 9.90256 109.744 9.3493 110.188 9.31376L115.551 8.88383C115.737 8.86885 115.9 8.75056 115.972 8.57744L118.038 3.60996Z" fill="#FDB022"/>
</g>
</g>
<defs>
<clipPath id="clip0_4765_698">
<rect width="20" height="20" fill="white" transform="translate(28.5 2)"/>
</clipPath>
<clipPath id="clip1_4765_698">
<rect width="20" height="20" fill="white" transform="translate(28.5 2)"/>
</clipPath>
<clipPath id="clip2_4765_698">
<rect width="20" height="20" fill="white" transform="translate(48.5 2)"/>
</clipPath>
<clipPath id="clip3_4765_698">
<rect width="20" height="20" fill="white" transform="translate(48.5 2)"/>
</clipPath>
<clipPath id="clip4_4765_698">
<rect width="20" height="20" fill="white" transform="translate(68.5 2)"/>
</clipPath>
<clipPath id="clip5_4765_698">
<rect width="20" height="20" fill="white" transform="translate(68.5 2)"/>
</clipPath>
<clipPath id="clip6_4765_698">
<rect width="20" height="20" fill="white" transform="translate(88.5 2)"/>
</clipPath>
<clipPath id="clip7_4765_698">
<rect width="20" height="20" fill="white" transform="translate(88.5 2)"/>
</clipPath>
<clipPath id="clip8_4765_698">
<rect width="20" height="20" fill="white" transform="translate(108.5 2)"/>
</clipPath>
<clipPath id="clip9_4765_698">
<rect width="15" height="20" fill="white" transform="translate(108.5 2)"/>
</clipPath>
</defs>
</svg>
