<svg width="40" height="40" viewBox="0 0 40 40" fill="none" xmlns="http://www.w3.org/2000/svg">
<g clip-path="url(#clip0_6002_1490)">
<path d="M26.2055 19.6901L17.5641 19.9422L12.4381 12.8823C12.079 12.3876 11.2849 12.5279 11.1165 13.1153L8.7099 21.5097L0.504207 24.2406C-0.0697132 24.4315 -0.182466 25.2189 0.315505 25.5626L7.47603 30.5038L7.49228 33.0564C7.49712 33.8145 8.66919 33.8066 8.66434 33.0489L8.64661 30.274C8.64496 30.0307 8.52448 29.803 8.32437 29.6651L1.68424 25.0831L9.29272 22.5509C9.52651 22.4732 9.7067 22.2854 9.77475 22.0484L12.0027 14.2773L16.7478 20.8126C16.8928 21.0123 17.1277 21.1264 17.3735 21.1202L25.3848 20.8865L20.7099 27.472C20.5693 27.6703 20.5341 27.9252 20.6156 28.1539L23.336 35.7943L15.7088 33.3167C15.4722 33.2401 15.2141 33.2856 15.018 33.4389L8.69857 38.3851L8.68435 36.1637C8.6795 35.4052 7.50744 35.4139 7.51228 36.1712L7.53205 39.2599C7.53596 39.8666 8.25342 40.2219 8.73834 39.8423L15.5622 34.5014L23.7964 37.1761C24.3751 37.3639 24.9345 36.7895 24.7304 36.216L21.7941 27.9694L26.8356 20.8674C27.1861 20.3741 26.8104 19.6727 26.2055 19.6901Z" fill="#24292E"/>
<path d="M31.8445 16.1427C32.1913 16.1427 32.5148 15.8282 32.5226 15.4797L32.6288 10.628L32.9104 10.44C33.5407 10.0195 32.89 9.04442 32.2599 9.46511L31.7636 9.79626C31.58 9.91886 31.4675 10.1237 31.4627 10.3445L31.3728 14.4466L28.2195 11.8984C28.0439 11.7566 27.8102 11.7115 27.5944 11.7778L23.7217 12.9694L25.158 9.12506C25.2351 8.91846 25.2066 8.68671 25.0818 8.50496L22.7662 5.13309L26.8177 5.31452C27.0412 5.32468 27.2553 5.22334 27.3895 5.0444L29.8373 1.78091L30.9019 5.72404C30.9603 5.93986 31.1211 6.11286 31.332 6.18662L35.1625 7.528L34.8057 7.76609C34.1755 8.1867 34.8261 9.16163 35.4563 8.74109L36.6386 7.95214C37.0953 7.64732 37.0043 6.93111 36.4862 6.74975L31.9654 5.16661L30.7043 0.495705C30.5597 -0.0393808 29.8412 -0.177919 29.5086 0.265824L26.6088 4.13191L21.8258 3.91766C21.2769 3.89258 20.9267 4.5251 21.2374 4.97736L23.9699 8.95605L22.2719 13.5007C22.0785 14.0181 22.5779 14.5473 23.1057 14.385L27.6876 12.9753L31.4198 15.9912C31.5433 16.0912 31.693 16.1427 31.8445 16.1427Z" fill="#24292E"/>
<path d="M39.9683 26.0086C39.8923 25.7727 39.6928 25.6032 39.4478 25.566L36.2637 25.0831L34.8512 22.1525C34.6225 21.6781 33.9176 21.6732 33.684 22.1473L32.2457 25.0653L29.0575 25.5199C28.5367 25.5942 28.318 26.2512 28.6912 26.6224L30.9916 28.9129L30.4318 32.1312C30.3411 32.6528 30.9055 33.0636 31.374 32.8165L34.2272 31.3139L37.067 32.8417C37.5312 33.0917 38.1018 32.6875 38.0153 32.1645L37.484 28.9417L39.8045 26.6716C39.9816 26.4984 40.0443 26.2443 39.9683 26.0086ZM36.4695 28.2945C36.3187 28.4421 36.249 28.6548 36.2833 28.8639L36.6858 31.3058L34.5379 30.1502C34.3346 30.0473 34.131 30.0463 33.9273 30.1473L31.7687 31.284L32.1929 28.8453C32.2289 28.6372 32.1612 28.4239 32.0113 28.2745L30.2614 26.5322L32.685 26.1866C32.8973 26.156 33.0806 26.0229 33.175 25.831L34.261 23.6276L35.3276 25.8405C35.4207 26.0338 35.6029 26.1684 35.8151 26.2005L38.2348 26.5676L36.4695 28.2945Z" fill="#24292E"/>
<path d="M4.61567 17.9404C5.36985 17.9404 5.3711 16.7683 4.61567 16.7683C3.86148 16.7683 3.86023 17.9404 4.61567 17.9404Z" fill="#24292E"/>
<path d="M10.3585 3.99347C11.1126 3.99347 11.1139 2.82141 10.3585 2.82141C9.60436 2.82141 9.60311 3.99347 10.3585 3.99347Z" fill="#24292E"/>
<path d="M16.9217 9.97077C17.6759 9.97077 17.6771 8.79871 16.9217 8.79871C16.1675 8.79871 16.1663 9.97077 16.9217 9.97077Z" fill="#24292E"/>
<path d="M30.3997 37.63C29.6455 37.63 29.6443 38.8021 30.3997 38.8021C31.1538 38.8021 31.1551 37.63 30.3997 37.63Z" fill="#24292E"/>
<path d="M36.8457 17.5887C37.5999 17.5887 37.6011 16.4166 36.8457 16.4166C36.0916 16.4166 36.0904 17.5887 36.8457 17.5887Z" fill="#24292E"/>
</g>
<defs>
<clipPath id="clip0_6002_1490">
<rect width="40" height="40" fill="white"/>
</clipPath>
</defs>
</svg>
