<svg width="140" height="45" viewBox="0 0 140 45" fill="none" xmlns="http://www.w3.org/2000/svg">
<path d="M53.3855 10.4688L53.9392 10.4922C54.49 10.5231 55.0292 10.5808 55.5496 10.7109L55.573 10.7168C56.3907 10.8804 57.1712 11.2152 57.9031 11.6621C57.8302 11.7746 57.7588 11.8882 57.6853 12.001C57.6097 12.1171 57.534 12.234 57.4578 12.3516C57.0102 12.0928 56.5297 11.8682 56.0281 11.7139H56.0271C55.0228 11.3878 53.9541 11.2734 52.9217 11.2988L52.492 11.3174C51.9655 11.3384 51.3693 11.3973 50.8045 11.6143L50.5642 11.7178L50.5564 11.7217C50.207 11.8965 49.8249 12.2042 49.6385 12.6406L49.5711 12.835L49.5691 12.8428C49.4809 13.1956 49.4651 13.6404 49.6863 14.0459L49.6961 14.0635C49.9197 14.4361 50.2992 14.6571 50.6453 14.7725V14.7715C50.8362 14.8388 51.0372 14.8865 51.2322 14.9219L51.7908 15.0039L51.8016 15.0059C52.3248 15.064 52.8489 15.128 53.3758 15.1924L54.9607 15.3799C55.5994 15.46 56.2028 15.5721 56.7644 15.7949L57.0037 15.8975L57.0066 15.8994C57.487 16.1196 57.8969 16.4537 58.1902 16.9199C58.5276 17.5293 58.5765 18.2964 58.3924 19.0146C58.2257 19.5861 57.7926 20.0979 57.2537 20.4336L57.0154 20.5664L57.0076 20.5703C55.9894 21.1006 54.7754 21.2397 53.5232 21.2861H53.157C52.306 21.2631 51.4873 21.1944 50.7029 20.9766L50.6853 20.9727L50.3152 20.8721C49.6052 20.6566 48.9341 20.3198 48.2996 19.9092C48.4545 19.6607 48.6103 19.4096 48.7644 19.1572C49.86 19.8172 51.0923 20.2766 52.3963 20.3877V20.3887C53.4392 20.4835 54.5866 20.5136 55.6805 20.21L55.6814 20.2109C56.118 20.096 56.5998 19.8895 56.9793 19.5127L57.1355 19.3398C57.5249 18.8604 57.5826 18.2114 57.4246 17.6826L57.3445 17.4648L57.3396 17.4541L57.3348 17.4443L57.2478 17.293C57.0296 16.9585 56.7057 16.748 56.4012 16.6211L56.3933 16.6172L56.3846 16.6143L56.2166 16.5576C55.9348 16.4708 55.6432 16.423 55.3777 16.3887L55.074 16.3516H55.0711C54.545 16.2931 54.0244 16.2343 53.5037 16.1758C52.9832 16.1173 52.4621 16.0595 51.9353 16.001L51.9197 15.999L51.5076 15.957C51.2368 15.9232 50.9739 15.8778 50.7185 15.8174L50.3406 15.7148C49.9208 15.5808 49.5376 15.4079 49.2351 15.166L49.1101 15.0566H49.1092C48.8111 14.7771 48.6066 14.4036 48.533 14.0176L48.5291 13.9961L48.4803 13.7373C48.4 13.1749 48.4881 12.6122 48.7615 12.1572L48.8279 12.0547L48.8299 12.0518C49.1967 11.5111 49.7949 11.1193 50.4744 10.8857V10.8867L50.4822 10.8838C51.1616 10.6385 51.8837 10.5218 52.6111 10.4814L52.9226 10.4688H53.3855Z" fill="black" stroke="black"/>
<path d="M128.81 10.4922L129.171 10.5039C129.891 10.5354 130.598 10.6145 131.264 10.792L131.593 10.8887L131.597 10.8906C132.203 11.0812 132.774 11.3571 133.322 11.6885C133.25 11.8 133.179 11.9126 133.107 12.0244C133.03 12.1427 132.953 12.262 132.875 12.3818C132.38 12.0999 131.847 11.8451 131.272 11.6738L130.949 11.5879H130.947C129.979 11.3644 128.996 11.3168 128.037 11.3408L128.01 11.3428C127.437 11.3886 126.773 11.4377 126.126 11.707L126.109 11.7148C125.765 11.8733 125.368 12.1192 125.129 12.5635L125.121 12.5781L125.114 12.5938C124.969 12.914 124.927 13.2757 124.984 13.6182L125.014 13.7637L125.017 13.7744C125.119 14.1503 125.386 14.4337 125.669 14.6074L125.79 14.6748L125.801 14.6797C126.281 14.9054 126.822 14.9811 127.27 15.0283V15.0293C127.793 15.0874 128.316 15.1514 128.843 15.2158L130.428 15.4033L130.44 15.4043C131.202 15.4716 131.949 15.6263 132.594 15.959L132.601 15.9629L132.608 15.9658C133.059 16.1816 133.442 16.5313 133.668 16.9424H133.669C133.84 17.2657 133.924 17.6494 133.873 17.9912L133.868 18.0283V18.0654C133.868 18.549 133.784 19.023 133.576 19.4209C133.328 19.8848 132.89 20.2698 132.376 20.542L132.152 20.6514L132.148 20.6523C131.162 21.1021 130.049 21.2398 128.905 21.2627H128.528C127.586 21.2426 126.657 21.1524 125.799 20.8975L125.436 20.7783L125.427 20.7754L125.144 20.6709C124.632 20.4701 124.146 20.2085 123.676 19.9072C123.83 19.6604 123.985 19.4109 124.138 19.1602C124.639 19.4655 125.169 19.7258 125.714 19.9297L126.02 20.0371L126.027 20.04C127.053 20.3654 128.115 20.4609 129.15 20.4609H129.166C129.795 20.44 130.459 20.3818 131.103 20.1934L131.377 20.1045L131.385 20.1016C131.792 19.9489 132.266 19.6969 132.584 19.2627L132.585 19.2637C132.928 18.8274 132.976 18.2676 132.862 17.793L132.804 17.5947L132.802 17.5908L132.742 17.4482C132.61 17.1754 132.408 16.9716 132.187 16.8193L132.074 16.7471L132.063 16.7402L131.883 16.6494C131.459 16.4567 131.003 16.3927 130.632 16.3516H130.631C130.033 16.2813 129.436 16.2165 128.841 16.1523L127.055 15.9541C126.276 15.8624 125.523 15.708 124.916 15.3447H124.917C124.521 15.1038 124.206 14.7534 124.05 14.3613L123.993 14.1914L123.99 14.1836L123.928 13.915C123.819 13.3283 123.893 12.7157 124.167 12.2236L124.235 12.1123L124.24 12.1025C124.542 11.6127 125.048 11.2501 125.635 11.0195L125.656 11.0098C126.36 10.6948 127.162 10.5519 127.987 10.5059L128.343 10.4922H128.81Z" fill="black" stroke="black"/>
<path d="M88.1898 10.7393V20.1104H96.2865V20.9824H87.1302V10.7451C87.49 10.7413 87.8394 10.7364 88.1898 10.7393Z" fill="black" stroke="black"/>
<path d="M112.386 10.7266V15.0791H117.064L117.213 14.8535C118.098 13.5019 119.028 12.1773 119.945 10.8369L119.961 10.8115C119.978 10.7817 119.994 10.7515 120.007 10.7266H121.158C120.167 12.1739 119.175 13.621 118.183 15.0684L118.096 15.1963V15.6162L118.176 15.7402C119.298 17.4743 120.402 19.2075 121.521 20.959H120.277C119.802 20.2064 119.329 19.4494 118.857 18.6904C118.337 17.8542 117.815 17.0163 117.287 16.1836L117.139 15.9512H112.386V20.959H111.327V10.7266H112.386Z" fill="black" stroke="black"/>
<path d="M71.317 10.7266V11.5996C69.8875 11.6031 68.477 11.6168 67.0817 11.5752L66.567 11.5605V20.959H65.484V11.5986H60.7106V10.7266H71.317Z" fill="black" stroke="black"/>
<path d="M108.01 10.7266V11.5986H100.031V15.4766H104.399L100.36 16.7227L100.007 16.8311V20.0869H100.507C103.101 20.0869 105.698 20.0849 108.314 20.0654V20.959H98.9477V10.7266H108.01Z" fill="black" stroke="black"/>
<path d="M84.0956 20.959H83.0068C82.3762 19.4685 79.9063 13.6292 79.1826 11.8838L79.0546 11.5752H77.1025L76.9736 11.8799C76.3878 13.2622 75.2867 15.9085 74.7021 17.3115L74.414 18.0039H77.6415L74.1503 19.0859L73.9306 19.1543L73.8388 19.3652L73.1503 20.959H72.0439C73.5355 17.5496 75.0259 14.1398 76.5175 10.7305C77.5902 10.7466 78.6762 10.7465 79.749 10.7305C81.198 14.1399 82.6466 17.5495 84.0956 20.959Z" fill="black" stroke="black"/>
<path d="M34.008 17.7383C34.8921 18.1901 35.4435 19.0939 35.4436 20.1016V32.5273C35.4436 33.472 34.9591 34.3255 34.1701 34.8008L34.008 34.8906L20.9055 41.5967V34.9795L28.9103 23.667C29.4688 22.8786 29.2346 21.7257 28.3547 21.2949L28.3557 21.2939L21.8029 17.9482L21.7932 17.9434L21.6945 17.8906C21.21 17.6101 20.9055 17.0746 20.9055 16.4746V11.0322L34.008 17.7383ZM19.9055 10.0664L11.8781 21.332L11.8771 21.334C11.3103 22.1347 11.5664 23.2806 12.4562 23.7285V23.7295L19.0061 27.0742V27.0752C19.5659 27.3642 19.9055 27.9187 19.9055 28.5498V33.9912L6.8039 27.2852H6.80293C5.91899 26.8333 5.36738 25.9295 5.36738 24.9219V12.4961C5.36745 11.5514 5.8527 10.6988 6.6418 10.2236L6.80293 10.1338L6.8039 10.1328L19.9055 3.42676V10.0664Z" fill="black" stroke="black"/>
<mask id="path-9-inside-1_4635_233" fill="white">
<path d="M51.7395 34.8673C50.8736 34.8907 50.0078 34.6098 49.3526 34.0482C48.2059 33.042 48.0889 31.3103 49.0951 30.1637C49.1653 30.0701 49.2589 29.9999 49.3526 29.9063C50.0312 29.3446 50.8736 29.0638 51.7395 29.0872C52.6053 29.0404 53.4711 29.3446 54.1497 29.9063C55.2964 30.9125 55.4134 32.6442 54.4072 33.7908C54.337 33.8844 54.2433 33.978 54.1497 34.0482C53.4711 34.6098 52.6053 34.8907 51.7395 34.8673ZM51.7395 34.0716C52.3947 34.095 53.0265 33.8844 53.5179 33.4866C54.337 32.7846 54.454 31.5443 53.7519 30.7019C53.6817 30.6317 53.6115 30.5381 53.5179 30.4679C53.0265 30.0701 52.3947 29.8595 51.7395 29.8829C51.1076 29.8595 50.4758 30.0701 49.961 30.4679C49.1419 31.1933 49.0483 32.457 49.7738 33.276C49.844 33.3462 49.8908 33.4164 49.961 33.4632C50.4758 33.8844 51.0842 34.095 51.7395 34.0716Z"/>
</mask>
<path d="M51.7395 34.8673C50.8736 34.8907 50.0078 34.6098 49.3526 34.0482C48.2059 33.042 48.0889 31.3103 49.0951 30.1637C49.1653 30.0701 49.2589 29.9999 49.3526 29.9063C50.0312 29.3446 50.8736 29.0638 51.7395 29.0872C52.6053 29.0404 53.4711 29.3446 54.1497 29.9063C55.2964 30.9125 55.4134 32.6442 54.4072 33.7908C54.337 33.8844 54.2433 33.978 54.1497 34.0482C53.4711 34.6098 52.6053 34.8907 51.7395 34.8673ZM51.7395 34.0716C52.3947 34.095 53.0265 33.8844 53.5179 33.4866C54.337 32.7846 54.454 31.5443 53.7519 30.7019C53.6817 30.6317 53.6115 30.5381 53.5179 30.4679C53.0265 30.0701 52.3947 29.8595 51.7395 29.8829C51.1076 29.8595 50.4758 30.0701 49.961 30.4679C49.1419 31.1933 49.0483 32.457 49.7738 33.276C49.844 33.3462 49.8908 33.4164 49.961 33.4632C50.4758 33.8844 51.0842 34.095 51.7395 34.0716Z" fill="black"/>
<path d="M51.7395 34.8673L51.7665 33.8676L51.7395 33.8669L51.7124 33.8676L51.7395 34.8673ZM49.3526 34.0482L48.6929 34.7999L48.7018 34.8075L49.3526 34.0482ZM49.0951 30.1637L49.8468 30.8233L49.8721 30.7944L49.8951 30.7637L49.0951 30.1637ZM49.3526 29.9063L48.715 29.1359L48.6787 29.1659L48.6454 29.1992L49.3526 29.9063ZM51.7395 29.0872L51.7124 30.0869L51.753 30.088L51.7934 30.0858L51.7395 29.0872ZM54.1497 29.9063L54.8093 29.1546L54.7985 29.1451L54.7873 29.1359L54.1497 29.9063ZM54.4072 33.7908L53.6555 33.1312L53.6302 33.1601L53.6072 33.1908L54.4072 33.7908ZM54.1497 34.0482L53.5497 33.2482L53.5306 33.2626L53.5122 33.2778L54.1497 34.0482ZM51.7395 34.0716L51.7751 33.0723L51.7395 33.071L51.7038 33.0723L51.7395 34.0716ZM53.5179 33.4866L54.1471 34.2638L54.158 34.255L54.1687 34.2459L53.5179 33.4866ZM53.7519 30.7019L54.5201 30.0617L54.4911 30.0269L54.459 29.9948L53.7519 30.7019ZM53.5179 30.4679L52.8887 31.2451L52.9031 31.2568L52.9179 31.2679L53.5179 30.4679ZM51.7395 29.8829L51.7024 30.8822L51.7388 30.8835L51.7751 30.8822L51.7395 29.8829ZM49.961 30.4679L49.3495 29.6766L49.323 29.6971L49.2979 29.7193L49.961 30.4679ZM49.7738 33.276L49.0252 33.939L49.0453 33.9617L49.0667 33.9831L49.7738 33.276ZM49.961 33.4632L50.5942 32.6892L50.5564 32.6583L50.5157 32.6312L49.961 33.4632ZM51.7395 34.8673L51.7124 33.8676C51.0731 33.8849 50.4546 33.6757 50.0033 33.289L49.3526 34.0482L48.7018 34.8075C49.561 35.544 50.6742 35.8964 51.7665 35.8669L51.7395 34.8673ZM49.3526 34.0482L50.0121 33.2966C49.2786 32.6528 49.2066 31.5528 49.8468 30.8233L49.0951 30.1637L48.3435 29.5041C46.9712 31.0679 47.1333 33.4311 48.693 34.7999L49.3526 34.0482ZM49.0951 30.1637L49.8951 30.7637C49.8765 30.7885 49.8659 30.7955 49.8974 30.766C49.9173 30.7474 49.9263 30.7396 49.96 30.7085C49.9871 30.6836 50.022 30.651 50.0597 30.6134L49.3526 29.9063L48.6454 29.1992C48.6136 29.231 48.6081 29.2336 48.5328 29.3039C48.4765 29.3564 48.384 29.4452 48.2951 29.5637L49.0951 30.1637ZM49.3526 29.9063L49.9901 30.6767C50.478 30.2729 51.083 30.0699 51.7124 30.0869L51.7395 29.0872L51.7665 28.0876C50.6642 28.0578 49.5844 28.4164 48.715 29.1359L49.3526 29.9063ZM51.7395 29.0872L51.7934 30.0858C52.3919 30.0534 53.0142 30.2645 53.5122 30.6767L54.1497 29.9063L54.7873 29.1359C53.9281 28.4248 52.8187 28.0274 51.6855 28.0887L51.7395 29.0872ZM54.1497 29.9063L53.4902 30.6579C54.2237 31.3016 54.2957 32.4017 53.6555 33.1312L54.4072 33.7908L55.1588 34.4504C56.5311 32.8866 56.369 30.5234 54.8093 29.1546L54.1497 29.9063ZM54.4072 33.7908L53.6072 33.1908C53.5938 33.2086 53.5675 33.2349 53.5497 33.2482L54.1497 34.0482L54.7497 34.8482C54.9192 34.7212 55.0801 34.5602 55.2072 34.3908L54.4072 33.7908ZM54.1497 34.0482L53.5122 33.2778C53.029 33.6777 52.4022 33.8848 51.7665 33.8676L51.7395 34.8673L51.7124 35.8669C52.8083 35.8965 53.9132 35.542 54.7873 34.8186L54.1497 34.0482ZM51.7395 34.0716L51.7038 35.071C52.595 35.1028 53.4642 34.8167 54.1471 34.2638L53.5179 33.4866L52.8887 32.7094C52.5888 32.9521 52.1943 33.0872 51.7751 33.0723L51.7395 34.0716ZM53.5179 33.4866L54.1687 34.2459C55.3983 33.1919 55.5762 31.329 54.5201 30.0617L53.7519 30.7019L52.9837 31.3421C53.3317 31.7597 53.2756 32.3772 52.8671 32.7273L53.5179 33.4866ZM53.7519 30.7019L54.459 29.9948C54.4594 29.9952 54.4553 29.991 54.4395 29.9736C54.4288 29.9618 54.4006 29.9304 54.3765 29.9044C54.3243 29.8482 54.2358 29.7563 54.1179 29.6679L53.5179 30.4679L52.9179 31.2679C52.8936 31.2497 52.8871 31.2397 52.9109 31.2653C52.9248 31.2803 52.9332 31.2899 52.9584 31.3176C52.9784 31.3397 53.0093 31.3735 53.0448 31.409L53.7519 30.7019ZM53.5179 30.4679L54.1471 29.6906C53.4642 29.1378 52.595 28.8517 51.7038 28.8835L51.7395 29.8829L51.7751 30.8822C52.1943 30.8673 52.5888 31.0023 52.8887 31.2451L53.5179 30.4679ZM51.7395 29.8829L51.7765 28.8835C50.899 28.851 50.04 29.1431 49.3495 29.6766L49.961 30.4679L50.5724 31.2592C50.9116 30.9971 51.3162 30.8679 51.7024 30.8822L51.7395 29.8829ZM49.961 30.4679L49.2979 29.7193C48.0773 30.8005 47.9232 32.6949 49.0252 33.939L49.7738 33.276L50.5224 32.613C50.1735 32.2191 50.2066 31.5862 50.624 31.2165L49.961 30.4679ZM49.7738 33.276L49.0667 33.9831C49.0651 33.9815 49.067 33.9834 49.0771 33.9946C49.0781 33.9957 49.1113 34.0333 49.1274 34.051C49.1722 34.1003 49.2673 34.2026 49.4063 34.2953L49.961 33.4632L50.5157 32.6312C50.5517 32.6552 50.5775 32.6774 50.5924 32.6913C50.6063 32.7042 50.6129 32.7119 50.6073 32.7057C50.6047 32.7028 50.601 32.6987 50.5941 32.6909C50.5884 32.6845 50.5782 32.6729 50.5684 32.6619C50.5478 32.6388 50.5175 32.6056 50.4809 32.5689L49.7738 33.276ZM49.961 33.4632L49.3277 34.2372C50.0246 34.8073 50.8691 35.1033 51.7751 35.071L51.7395 34.0716L51.7038 33.0723C51.2993 33.0867 50.927 32.9615 50.5942 32.6892L49.961 33.4632Z" fill="black" mask="url(#path-9-inside-1_4635_233)"/>
<mask id="path-11-inside-2_4635_233" fill="white">
<path d="M57.3089 32.1766V34.6805H56.443V29.2515H61.4742V30.0471H57.3089V31.4044H60V32.1766H57.3089Z"/>
</mask>
<path d="M57.3089 32.1766V34.6805H56.443V29.2515H61.4742V30.0471H57.3089V31.4044H60V32.1766H57.3089Z" fill="black"/>
<path d="M57.3089 32.1766V31.1766H56.3089V32.1766H57.3089ZM57.3089 34.6805V35.6805H58.3089V34.6805H57.3089ZM56.443 34.6805H55.443V35.6805H56.443V34.6805ZM56.443 29.2515V28.2515H55.443V29.2515H56.443ZM61.4742 29.2515H62.4742V28.2515H61.4742V29.2515ZM61.4742 30.0471V31.0471H62.4742V30.0471H61.4742ZM57.3089 30.0471V29.0471H56.3089V30.0471H57.3089ZM57.3089 31.4044H56.3089V32.4044H57.3089V31.4044ZM60 31.4044H61V30.4044H60V31.4044ZM60 32.1766V33.1766H61V32.1766H60ZM57.3089 32.1766H56.3089V34.6805H57.3089H58.3089V32.1766H57.3089ZM57.3089 34.6805V33.6805H56.443V34.6805V35.6805H57.3089V34.6805ZM56.443 34.6805H57.443V29.2515H56.443H55.443V34.6805H56.443ZM56.443 29.2515V30.2515H61.4742V29.2515V28.2515H56.443V29.2515ZM61.4742 29.2515H60.4742V30.0471H61.4742H62.4742V29.2515H61.4742ZM61.4742 30.0471V29.0471H57.3089V30.0471V31.0471H61.4742V30.0471ZM57.3089 30.0471H56.3089V31.4044H57.3089H58.3089V30.0471H57.3089ZM57.3089 31.4044V32.4044H60V31.4044V30.4044H57.3089V31.4044ZM60 31.4044H59V32.1766H60H61V31.4044H60ZM60 32.1766V31.1766H57.3089V32.1766V33.1766H60V32.1766Z" fill="black" mask="url(#path-11-inside-2_4635_233)"/>
<mask id="path-13-inside-3_4635_233" fill="white">
<path d="M63.4399 32.1766V34.6805H62.5975V29.2515H67.6287V30.0471H63.4633V31.4044H66.1544V32.1766H63.4399Z"/>
</mask>
<path d="M63.4399 32.1766V34.6805H62.5975V29.2515H67.6287V30.0471H63.4633V31.4044H66.1544V32.1766H63.4399Z" fill="black"/>
<path d="M63.4399 32.1766V31.1766H62.4399V32.1766H63.4399ZM63.4399 34.6805V35.6805H64.4399V34.6805H63.4399ZM62.5975 34.6805H61.5975V35.6805H62.5975V34.6805ZM62.5975 29.2515V28.2515H61.5975V29.2515H62.5975ZM67.6287 29.2515H68.6287V28.2515H67.6287V29.2515ZM67.6287 30.0471V31.0471H68.6287V30.0471H67.6287ZM63.4633 30.0471V29.0471H62.4633V30.0471H63.4633ZM63.4633 31.4044H62.4633V32.4044H63.4633V31.4044ZM66.1544 31.4044H67.1544V30.4044H66.1544V31.4044ZM66.1544 32.1766V33.1766H67.1544V32.1766H66.1544ZM63.4399 32.1766H62.4399V34.6805H63.4399H64.4399V32.1766H63.4399ZM63.4399 34.6805V33.6805H62.5975V34.6805V35.6805H63.4399V34.6805ZM62.5975 34.6805H63.5975V29.2515H62.5975H61.5975V34.6805H62.5975ZM62.5975 29.2515V30.2515H67.6287V29.2515V28.2515H62.5975V29.2515ZM67.6287 29.2515H66.6287V30.0471H67.6287H68.6287V29.2515H67.6287ZM67.6287 30.0471V29.0471H63.4633V30.0471V31.0471H67.6287V30.0471ZM63.4633 30.0471H62.4633V31.4044H63.4633H64.4633V30.0471H63.4633ZM63.4633 31.4044V32.4044H66.1544V31.4044V30.4044H63.4633V31.4044ZM66.1544 31.4044H65.1544V32.1766H66.1544H67.1544V31.4044H66.1544ZM66.1544 32.1766V31.1766H63.4399V32.1766V33.1766H66.1544V32.1766Z" fill="black" mask="url(#path-13-inside-3_4635_233)"/>
<mask id="path-15-inside-4_4635_233" fill="white">
<path d="M68.7519 34.6804V29.228H69.6178V34.6804H68.7519Z"/>
</mask>
<path d="M68.7519 34.6804V29.228H69.6178V34.6804H68.7519Z" fill="black"/>
<path d="M68.7519 34.6804H67.7519V35.6804H68.7519V34.6804ZM68.7519 29.228V28.228H67.7519V29.228H68.7519ZM69.6178 29.228H70.6178V28.228H69.6178V29.228ZM69.6178 34.6804V35.6804H70.6178V34.6804H69.6178ZM68.7519 34.6804H69.7519V29.228H68.7519H67.7519V34.6804H68.7519ZM68.7519 29.228V30.228H69.6178V29.228V28.228H68.7519V29.228ZM69.6178 29.228H68.6178V34.6804H69.6178H70.6178V29.228H69.6178ZM69.6178 34.6804V33.6804H68.7519V34.6804V35.6804H69.6178V34.6804Z" fill="black" mask="url(#path-15-inside-4_4635_233)"/>
<mask id="path-17-inside-5_4635_233" fill="white">
<path d="M77.2465 33.3696C76.9423 33.8376 76.521 34.2354 76.0296 34.4928C75.4914 34.7502 74.9064 34.8906 74.2979 34.8672C73.4321 34.8906 72.6131 34.6098 71.9579 34.0716C70.8112 33.0654 70.7176 31.3103 71.7238 30.1636C71.794 30.0934 71.8643 29.9998 71.9579 29.9296C72.6131 29.368 73.4555 29.0638 74.2979 29.0872C74.8596 29.0872 75.3978 29.2042 75.9126 29.4148C76.3806 29.6254 76.7784 29.953 77.0827 30.3508L76.404 30.8189C76.17 30.4912 75.8658 30.2572 75.5148 30.0934C75.1404 29.9296 74.7192 29.836 74.2979 29.8594C73.6661 29.836 73.0577 30.0466 72.5663 30.4444C71.7472 31.1465 71.6536 32.3867 72.3557 33.2058C72.4259 33.276 72.4961 33.3462 72.5663 33.4164C73.0577 33.8142 73.6661 34.0248 74.2979 34.0014C75.2106 34.0248 76.053 33.5802 76.5444 32.8313L77.2465 33.3696Z"/>
</mask>
<path d="M77.2465 33.3696C76.9423 33.8376 76.521 34.2354 76.0296 34.4928C75.4914 34.7502 74.9064 34.8906 74.2979 34.8672C73.4321 34.8906 72.6131 34.6098 71.9579 34.0716C70.8112 33.0654 70.7176 31.3103 71.7238 30.1636C71.794 30.0934 71.8643 29.9998 71.9579 29.9296C72.6131 29.368 73.4555 29.0638 74.2979 29.0872C74.8596 29.0872 75.3978 29.2042 75.9126 29.4148C76.3806 29.6254 76.7784 29.953 77.0827 30.3508L76.404 30.8189C76.17 30.4912 75.8658 30.2572 75.5148 30.0934C75.1404 29.9296 74.7192 29.836 74.2979 29.8594C73.6661 29.836 73.0577 30.0466 72.5663 30.4444C71.7472 31.1465 71.6536 32.3867 72.3557 33.2058C72.4259 33.276 72.4961 33.3462 72.5663 33.4164C73.0577 33.8142 73.6661 34.0248 74.2979 34.0014C75.2106 34.0248 76.053 33.5802 76.5444 32.8313L77.2465 33.3696Z" fill="black"/>
<path d="M77.2465 33.3696L78.0849 33.9146L78.5891 33.1389L77.8549 32.576L77.2465 33.3696ZM76.0296 34.4928L76.4611 35.3949L76.4775 35.3871L76.4936 35.3786L76.0296 34.4928ZM74.2979 34.8672L74.3364 33.868L74.3037 33.8667L74.2709 33.8676L74.2979 34.8672ZM71.9579 34.0716L71.2983 34.8232L71.3105 34.834L71.3231 34.8443L71.9579 34.0716ZM71.7238 30.1636L71.0167 29.4565L70.9937 29.4796L70.9722 29.504L71.7238 30.1636ZM71.9579 29.9296L72.5579 30.7296L72.5839 30.7101L72.6086 30.6889L71.9579 29.9296ZM74.2979 29.0872L74.2702 30.0868L74.2841 30.0872H74.2979V29.0872ZM75.9126 29.4148L76.323 28.5029L76.3072 28.4958L76.2912 28.4893L75.9126 29.4148ZM77.0827 30.3508L77.6504 31.1741L78.515 30.5777L77.877 29.7434L77.0827 30.3508ZM76.404 30.8189L75.5903 31.4001L76.162 32.2005L76.9718 31.6421L76.404 30.8189ZM75.5148 30.0934L75.9377 29.1873L75.9267 29.1821L75.9156 29.1773L75.5148 30.0934ZM74.2979 29.8594L74.2609 30.8587L74.3072 30.8605L74.3534 30.8579L74.2979 29.8594ZM72.5663 30.4444L71.9371 29.6672L71.9262 29.676L71.9155 29.6852L72.5663 30.4444ZM72.3557 33.2058L71.5964 33.8565L71.6214 33.8857L71.6486 33.9129L72.3557 33.2058ZM72.5663 33.4164L71.8592 34.1235L71.8963 34.1606L71.9371 34.1936L72.5663 33.4164ZM74.2979 34.0014L74.3236 33.0017L74.2923 33.0009L74.2609 33.0021L74.2979 34.0014ZM76.5444 32.8313L77.1529 32.0377L76.2988 31.383L75.7084 32.2827L76.5444 32.8313ZM77.2465 33.3696L76.408 32.8246C76.1897 33.1604 75.8932 33.4354 75.5656 33.607L76.0296 34.4928L76.4936 35.3786C77.1489 35.0354 77.6948 34.5148 78.0849 33.9146L77.2465 33.3696ZM76.0296 34.4928L75.5982 33.5907C75.1874 33.7871 74.7629 33.8844 74.3364 33.868L74.2979 34.8672L74.2595 35.8665C75.0499 35.8969 75.7954 35.7133 76.4611 35.3949L76.0296 34.4928ZM74.2979 34.8672L74.2709 33.8676C73.6431 33.8846 73.0596 33.6825 72.5926 33.2989L71.9579 34.0716L71.3231 34.8443C72.1665 35.5371 73.2212 35.8967 74.325 35.8669L74.2979 34.8672ZM71.9579 34.0716L72.6174 33.32C71.8963 32.6871 71.8244 31.5652 72.4755 30.8232L71.7238 30.1636L70.9722 29.504C69.6109 31.0554 69.7261 33.4436 71.2983 34.8232L71.9579 34.0716ZM71.7238 30.1636L72.431 30.8707C72.4664 30.8353 72.4974 30.8014 72.5174 30.7793C72.5425 30.7516 72.551 30.7421 72.5649 30.7271C72.5887 30.7014 72.5822 30.7114 72.5579 30.7296L71.9579 29.9296L71.3579 29.1296C71.24 29.2181 71.1515 29.31 71.0993 29.3662C71.0752 29.3922 71.047 29.4235 71.0363 29.4353C71.0205 29.4527 71.0164 29.4569 71.0167 29.4565L71.7238 30.1636ZM71.9579 29.9296L72.6086 30.6889C73.0813 30.2838 73.6836 30.0705 74.2702 30.0868L74.2979 29.0872L74.3257 28.0876C73.2275 28.0571 72.1449 28.4522 71.3071 29.1704L71.9579 29.9296ZM74.2979 29.0872V30.0872C74.7171 30.0872 75.1271 30.1739 75.534 30.3404L75.9126 29.4148L76.2912 28.4893C75.6685 28.2345 75.002 28.0872 74.2979 28.0872V29.0872ZM75.9126 29.4148L75.5022 30.3267C75.8092 30.4648 76.0781 30.6834 76.2883 30.9583L77.0827 30.3508L77.877 29.7434C77.4788 29.2227 76.9521 28.786 76.323 28.5029L75.9126 29.4148ZM77.0827 30.3508L76.5149 29.5276L75.8363 29.9956L76.404 30.8189L76.9718 31.6421L77.6504 31.1741L77.0827 30.3508ZM76.404 30.8189L77.2178 30.2376C76.8709 29.752 76.4236 29.414 75.9377 29.1873L75.5148 30.0934L75.0919 30.9996C75.308 31.1005 75.4692 31.2305 75.5903 31.4001L76.404 30.8189ZM75.5148 30.0934L75.9156 29.1773C75.4224 28.9615 74.845 28.8275 74.2425 28.861L74.2979 29.8594L74.3534 30.8579C74.5933 30.8446 74.8584 30.8978 75.114 31.0096L75.5148 30.0934ZM74.2979 29.8594L74.335 28.8601C73.4531 28.8274 72.6097 29.1227 71.9371 29.6672L72.5663 30.4444L73.1955 31.2217C73.5057 30.9706 73.8792 30.8446 74.2609 30.8587L74.2979 29.8594ZM72.5663 30.4444L71.9155 29.6852C70.6758 30.7477 70.5361 32.6195 71.5964 33.8565L72.3557 33.2058L73.1149 32.555C72.7712 32.154 72.8186 31.5452 73.2171 31.2037L72.5663 30.4444ZM72.3557 33.2058L71.6486 33.9129C71.6837 33.948 71.7188 33.9831 71.7539 34.0182C71.789 34.0533 71.8241 34.0884 71.8592 34.1235L72.5663 33.4164L73.2734 32.7093C73.2383 32.6742 73.2032 32.6391 73.1681 32.604C73.133 32.5689 73.0979 32.5338 73.0628 32.4987L72.3557 33.2058ZM72.5663 33.4164L71.9371 34.1936C72.6097 34.7381 73.4531 35.0334 74.335 35.0007L74.2979 34.0014L74.2609 33.0021C73.8792 33.0162 73.5057 32.8902 73.1955 32.6391L72.5663 33.4164ZM74.2979 34.0014L74.2723 35.0011C75.53 35.0333 76.6988 34.4188 77.3805 33.38L76.5444 32.8313L75.7084 32.2827C75.4073 32.7415 74.8911 33.0163 74.3236 33.0017L74.2979 34.0014ZM76.5444 32.8313L75.936 33.6249L76.638 34.1632L77.2465 33.3696L77.8549 32.576L77.1529 32.0377L76.5444 32.8313Z" fill="black" mask="url(#path-17-inside-5_4635_233)"/>
<mask id="path-19-inside-6_4635_233" fill="white">
<path d="M78.6739 34.6804V29.228H79.5398V34.6804H78.6739Z"/>
</mask>
<path d="M78.6739 34.6804V29.228H79.5398V34.6804H78.6739Z" fill="black"/>
<path d="M78.6739 34.6804H77.6739V35.6804H78.6739V34.6804ZM78.6739 29.228V28.228H77.6739V29.228H78.6739ZM79.5398 29.228H80.5398V28.228H79.5398V29.228ZM79.5398 34.6804V35.6804H80.5398V34.6804H79.5398ZM78.6739 34.6804H79.6739V29.228H78.6739H77.6739V34.6804H78.6739ZM78.6739 29.228V30.228H79.5398V29.228V28.228H78.6739V29.228ZM79.5398 29.228H78.5398V34.6804H79.5398H80.5398V29.228H79.5398ZM79.5398 34.6804V33.6804H78.6739V34.6804V35.6804H79.5398V34.6804Z" fill="black" mask="url(#path-19-inside-6_4635_233)"/>
<mask id="path-21-inside-7_4635_233" fill="white">
<path d="M80.3822 34.6804L83.1435 29.228H83.6817L86.4664 34.6804H85.5538L84.8518 33.2998H81.9735L81.2714 34.6804H80.3822ZM82.3713 32.5978H84.5008L83.4477 30.5151L82.3713 32.5978Z"/>
</mask>
<path d="M80.3822 34.6804L83.1435 29.228H83.6817L86.4664 34.6804H85.5538L84.8518 33.2998H81.9735L81.2714 34.6804H80.3822ZM82.3713 32.5978H84.5008L83.4477 30.5151L82.3713 32.5978Z" fill="black"/>
<path d="M80.3822 34.6804L79.4901 34.2286L78.7548 35.6804H80.3822V34.6804ZM83.1435 29.228V28.228H82.529L82.2514 28.7762L83.1435 29.228ZM83.6817 29.228L84.5723 28.7732L84.2939 28.228H83.6817V29.228ZM86.4664 34.6804V35.6804H88.1L87.357 34.2256L86.4664 34.6804ZM85.5538 34.6804L84.6624 35.1337L84.9404 35.6804H85.5538V34.6804ZM84.8518 33.2998L85.7432 32.8465L85.4651 32.2998H84.8518V33.2998ZM81.9735 33.2998V32.2998H81.3601L81.0821 32.8465L81.9735 33.2998ZM81.2714 34.6804V35.6804H81.8848L82.1628 35.1337L81.2714 34.6804ZM82.3713 32.5978L81.4829 32.1386L80.7287 33.5978H82.3713V32.5978ZM84.5008 32.5978V33.5978H86.1269L85.3932 32.1465L84.5008 32.5978ZM83.4477 30.5151L84.3401 30.0639L83.4575 28.3182L82.5594 30.0559L83.4477 30.5151ZM80.3822 34.6804L81.2743 35.1322L84.0356 29.6798L83.1435 29.228L82.2514 28.7762L79.4901 34.2286L80.3822 34.6804ZM83.1435 29.228V30.228H83.6817V29.228V28.228H83.1435V29.228ZM83.6817 29.228L82.7912 29.6829L85.5759 35.1353L86.4664 34.6804L87.357 34.2256L84.5723 28.7732L83.6817 29.228ZM86.4664 34.6804V33.6804H85.5538V34.6804V35.6804H86.4664V34.6804ZM85.5538 34.6804L86.4452 34.2272L85.7432 32.8465L84.8518 33.2998L83.9604 33.753L84.6624 35.1337L85.5538 34.6804ZM84.8518 33.2998V32.2998H81.9735V33.2998V34.2998H84.8518V33.2998ZM81.9735 33.2998L81.0821 32.8465L80.38 34.2272L81.2714 34.6804L82.1628 35.1337L82.8648 33.753L81.9735 33.2998ZM81.2714 34.6804V33.6804H80.3822V34.6804V35.6804H81.2714V34.6804ZM82.3713 32.5978V33.5978H84.5008V32.5978V31.5978H82.3713V32.5978ZM84.5008 32.5978L85.3932 32.1465L84.3401 30.0639L83.4477 30.5151L82.5553 30.9663L83.6083 33.049L84.5008 32.5978ZM83.4477 30.5151L82.5594 30.0559L81.4829 32.1386L82.3713 32.5978L83.2596 33.0569L84.3361 30.9742L83.4477 30.5151Z" fill="black" mask="url(#path-21-inside-7_4635_233)"/>
<mask id="path-23-inside-8_4635_233" fill="white">
<path d="M87.2855 34.6805V29.2515H88.1513V33.9082H92.1997V34.6805H87.2855Z"/>
</mask>
<path d="M87.2855 34.6805V29.2515H88.1513V33.9082H92.1997V34.6805H87.2855Z" fill="black"/>
<path d="M87.2855 34.6805H86.2855V35.6805H87.2855V34.6805ZM87.2855 29.2515V28.2515H86.2855V29.2515H87.2855ZM88.1513 29.2515H89.1513V28.2515H88.1513V29.2515ZM88.1513 33.9082H87.1513V34.9082H88.1513V33.9082ZM92.1997 33.9082H93.1997V32.9082H92.1997V33.9082ZM92.1997 34.6805V35.6805H93.1997V34.6805H92.1997ZM87.2855 34.6805H88.2855V29.2515H87.2855H86.2855V34.6805H87.2855ZM87.2855 29.2515V30.2515H88.1513V29.2515V28.2515H87.2855V29.2515ZM88.1513 29.2515H87.1513V33.9082H88.1513H89.1513V29.2515H88.1513ZM88.1513 33.9082V34.9082H92.1997V33.9082V32.9082H88.1513V33.9082ZM92.1997 33.9082H91.1997V34.6805H92.1997H93.1997V33.9082H92.1997ZM92.1997 34.6805V33.6805H87.2855V34.6805V35.6805H92.1997V34.6805Z" fill="black" mask="url(#path-23-inside-8_4635_233)"/>
<mask id="path-25-inside-9_4635_233" fill="white">
<path d="M101.396 34.0016L101.817 33.2762C102.192 33.5336 102.613 33.7208 103.034 33.8612C103.432 34.0016 103.877 34.0718 104.298 34.0718C104.719 34.0952 105.117 33.9782 105.468 33.7676C105.749 33.6038 105.913 33.323 105.913 32.9954C105.936 32.7146 105.772 32.4338 105.515 32.2933C105.117 32.1061 104.672 32.0359 104.228 32.0359C103.245 32.0125 102.566 31.8955 102.192 31.6849C101.817 31.4509 101.607 31.0297 101.63 30.5851C101.63 30.1171 101.864 29.6958 102.239 29.4618C102.73 29.1576 103.292 28.9938 103.877 29.0406C104.345 29.0406 104.789 29.1108 105.234 29.2278C105.679 29.3682 106.1 29.5554 106.498 29.8128L106.076 30.5617C105.749 30.3277 105.374 30.1405 104.977 30.0235C104.626 29.9064 104.228 29.8362 103.853 29.8362C103.502 29.8128 103.175 29.9064 102.87 30.0469C102.66 30.1639 102.519 30.3745 102.496 30.6085C102.496 30.8425 102.636 31.0531 102.87 31.1233C103.292 31.2403 103.736 31.3105 104.181 31.2871C104.86 31.2403 105.538 31.4041 106.147 31.7317C106.591 32.0125 106.849 32.5274 106.802 33.0656C106.802 33.5804 106.544 34.0484 106.123 34.3526C105.608 34.7036 105 34.8908 104.368 34.8674C103.83 34.8674 103.315 34.7972 102.8 34.6334C102.309 34.493 101.841 34.2824 101.396 34.0016Z"/>
</mask>
<path d="M101.396 34.0016L101.817 33.2762C102.192 33.5336 102.613 33.7208 103.034 33.8612C103.432 34.0016 103.877 34.0718 104.298 34.0718C104.719 34.0952 105.117 33.9782 105.468 33.7676C105.749 33.6038 105.913 33.323 105.913 32.9954C105.936 32.7146 105.772 32.4338 105.515 32.2933C105.117 32.1061 104.672 32.0359 104.228 32.0359C103.245 32.0125 102.566 31.8955 102.192 31.6849C101.817 31.4509 101.607 31.0297 101.63 30.5851C101.63 30.1171 101.864 29.6958 102.239 29.4618C102.73 29.1576 103.292 28.9938 103.877 29.0406C104.345 29.0406 104.789 29.1108 105.234 29.2278C105.679 29.3682 106.1 29.5554 106.498 29.8128L106.076 30.5617C105.749 30.3277 105.374 30.1405 104.977 30.0235C104.626 29.9064 104.228 29.8362 103.853 29.8362C103.502 29.8128 103.175 29.9064 102.87 30.0469C102.66 30.1639 102.519 30.3745 102.496 30.6085C102.496 30.8425 102.636 31.0531 102.87 31.1233C103.292 31.2403 103.736 31.3105 104.181 31.2871C104.86 31.2403 105.538 31.4041 106.147 31.7317C106.591 32.0125 106.849 32.5274 106.802 33.0656C106.802 33.5804 106.544 34.0484 106.123 34.3526C105.608 34.7036 105 34.8908 104.368 34.8674C103.83 34.8674 103.315 34.7972 102.8 34.6334C102.309 34.493 101.841 34.2824 101.396 34.0016Z" fill="black"/>
<path d="M101.396 34.0016L100.531 33.4995L100.048 34.3326L100.862 34.8471L101.396 34.0016ZM101.817 33.2762L102.384 32.4521L101.495 31.8407L100.953 32.774L101.817 33.2762ZM103.034 33.8612L103.367 32.9182L103.359 32.9153L103.351 32.9125L103.034 33.8612ZM104.298 34.0718L104.353 33.0734L104.326 33.0718H104.298V34.0718ZM105.468 33.7676L104.964 32.9038L104.954 32.9101L105.468 33.7676ZM105.913 32.9954L104.916 32.9123L104.913 32.9538V32.9954H105.913ZM105.515 32.2933L105.994 31.4154L105.968 31.4012L105.941 31.3885L105.515 32.2933ZM104.228 32.0359L104.204 33.0356L104.216 33.0359H104.228V32.0359ZM102.192 31.6849L101.662 32.5329L101.681 32.5452L101.702 32.5565L102.192 31.6849ZM101.63 30.5851L102.629 30.6376L102.63 30.6114V30.5851H101.63ZM102.239 29.4618L101.712 28.6116L101.709 28.6138L102.239 29.4618ZM103.877 29.0406L103.797 30.0374L103.837 30.0406H103.877V29.0406ZM105.234 29.2278L105.535 28.2742L105.512 28.2669L105.488 28.2607L105.234 29.2278ZM106.498 29.8128L107.369 30.3031L107.83 29.4839L107.041 28.9733L106.498 29.8128ZM106.076 30.5617L105.495 31.3754L106.402 32.023L106.948 31.0519L106.076 30.5617ZM104.977 30.0235L104.66 30.9721L104.677 30.9778L104.694 30.9828L104.977 30.0235ZM103.853 29.8362L103.787 30.834L103.82 30.8362H103.853V29.8362ZM102.87 30.0469L102.451 29.1389L102.418 29.1546L102.385 29.1727L102.87 30.0469ZM102.496 30.6085L101.501 30.509L101.496 30.5586V30.6085H102.496ZM102.87 31.1233L102.583 32.0811L102.593 32.0841L102.603 32.0868L102.87 31.1233ZM104.181 31.2871L104.234 32.2857L104.242 32.2853L104.25 32.2847L104.181 31.2871ZM106.147 31.7317L106.681 30.8862L106.651 30.8677L106.621 30.8513L106.147 31.7317ZM106.802 33.0656L105.806 32.9789L105.802 33.0222V33.0656H106.802ZM106.123 34.3526L106.687 35.1789L106.698 35.1712L106.709 35.1633L106.123 34.3526ZM104.368 34.8674L104.405 33.8681L104.387 33.8674H104.368V34.8674ZM102.8 34.6334L103.103 33.6805L103.089 33.676L103.075 33.6719L102.8 34.6334ZM101.396 34.0016L102.261 34.5038L102.682 33.7783L101.817 33.2762L100.953 32.774L100.531 33.4995L101.396 34.0016ZM101.817 33.2762L101.251 34.1002C101.725 34.4258 102.238 34.6497 102.718 34.8099L103.034 33.8612L103.351 32.9125C102.989 32.7919 102.659 32.6413 102.384 32.4521L101.817 33.2762ZM103.034 33.8612L102.701 34.8042C103.215 34.9853 103.773 35.0718 104.298 35.0718V34.0718V33.0718C103.981 33.0718 103.65 33.0179 103.367 32.9182L103.034 33.8612ZM104.298 34.0718L104.242 35.0703C104.89 35.1063 105.485 34.9238 105.982 34.6251L105.468 33.7676L104.954 32.9101C104.749 33.0326 104.548 33.0842 104.353 33.0734L104.298 34.0718ZM105.468 33.7676L105.972 34.6314C106.556 34.2904 106.913 33.6826 106.913 32.9954H105.913H104.913C104.913 32.9897 104.915 32.9683 104.93 32.9426C104.944 32.9173 104.961 32.9057 104.964 32.9038L105.468 33.7676ZM105.913 32.9954L106.909 33.0784C106.969 32.3642 106.563 31.726 105.994 31.4154L105.515 32.2933L105.036 33.1712C104.999 33.1509 104.971 33.1226 104.951 33.0878C104.931 33.0528 104.909 32.9929 104.916 32.9123L105.913 32.9954ZM105.515 32.2933L105.941 31.3885C105.372 31.1209 104.771 31.0359 104.228 31.0359V32.0359V33.0359C104.573 33.0359 104.862 33.0914 105.089 33.1982L105.515 32.2933ZM104.228 32.0359L104.252 31.0362C103.273 31.0129 102.82 30.891 102.682 30.8133L102.192 31.6849L101.702 32.5565C102.312 32.9 103.217 33.0122 104.204 33.0356L104.228 32.0359ZM102.192 31.6849L102.722 30.8369C102.669 30.8037 102.624 30.7348 102.629 30.6376L101.63 30.5851L100.632 30.5325C100.59 31.3246 100.966 32.0981 101.662 32.5329L102.192 31.6849ZM101.63 30.5851H102.63C102.63 30.4515 102.695 30.3557 102.769 30.3098L102.239 29.4618L101.709 28.6138C101.033 29.036 100.63 29.7826 100.63 30.5851H101.63ZM102.239 29.4618L102.765 30.3121C103.103 30.1027 103.455 30.0101 103.797 30.0374L103.877 29.0406L103.956 28.0438C103.128 27.9775 102.357 28.2125 101.712 28.6116L102.239 29.4618ZM103.877 29.0406V30.0406C104.242 30.0406 104.6 30.095 104.979 30.1949L105.234 29.2278L105.488 28.2607C104.979 28.1266 104.448 28.0406 103.877 28.0406V29.0406ZM105.234 29.2278L104.933 30.1814C105.306 30.2992 105.643 30.4509 105.954 30.6524L106.498 29.8128L107.041 28.9733C106.557 28.6599 106.051 28.4373 105.535 28.2742L105.234 29.2278ZM106.498 29.8128L105.626 29.3226L105.205 30.0714L106.076 30.5617L106.948 31.0519L107.369 30.3031L106.498 29.8128ZM106.076 30.5617L106.658 29.7479C106.244 29.4523 105.769 29.2142 105.259 29.0641L104.977 30.0235L104.694 30.9828C104.98 31.0668 105.254 31.203 105.495 31.3754L106.076 30.5617ZM104.977 30.0235L105.293 29.0748C104.849 28.9267 104.344 28.8362 103.853 28.8362V29.8362V30.8362C104.111 30.8362 104.402 30.8862 104.66 30.9721L104.977 30.0235ZM103.853 29.8362L103.92 28.8385C103.346 28.8002 102.846 28.9568 102.451 29.1389L102.87 30.0469L103.29 30.9548C103.503 30.8561 103.659 30.8255 103.787 30.834L103.853 29.8362ZM102.87 30.0469L102.385 29.1727C101.896 29.4442 101.558 29.9395 101.501 30.509L102.496 30.6085L103.491 30.708C103.481 30.8095 103.424 30.8835 103.356 30.921L102.87 30.0469ZM102.496 30.6085H101.496C101.496 31.2462 101.891 31.8735 102.583 32.0811L102.87 31.1233L103.158 30.1655C103.382 30.2327 103.496 30.4388 103.496 30.6085H102.496ZM102.87 31.1233L102.603 32.0868C103.096 32.2237 103.652 32.3163 104.234 32.2857L104.181 31.2871L104.128 30.2885C103.821 30.3047 103.488 30.2569 103.138 30.1598L102.87 31.1233ZM104.181 31.2871L104.25 32.2847C104.722 32.2522 105.213 32.3649 105.673 32.6122L106.147 31.7317L106.621 30.8513C105.863 30.4433 104.998 30.2284 104.112 30.2895L104.181 31.2871ZM106.147 31.7317L105.613 32.5772C105.739 32.6567 105.82 32.8106 105.806 32.9789L106.802 33.0656L107.798 33.1522C107.877 32.2441 107.444 31.3683 106.681 30.8862L106.147 31.7317ZM106.802 33.0656H105.802C105.802 33.2338 105.72 33.4103 105.538 33.5419L106.123 34.3526L106.709 35.1633C107.369 34.6865 107.802 33.927 107.802 33.0656H106.802ZM106.123 34.3526L105.56 33.5264C105.212 33.7635 104.812 33.8832 104.405 33.8681L104.368 34.8674L104.331 35.8668C105.188 35.8985 106.005 35.6438 106.687 35.1789L106.123 34.3526ZM104.368 34.8674V33.8674C103.92 33.8674 103.509 33.8096 103.103 33.6805L102.8 34.6334L102.497 35.5864C103.121 35.7849 103.74 35.8674 104.368 35.8674V34.8674ZM102.8 34.6334L103.075 33.6719C102.678 33.5584 102.297 33.3876 101.93 33.1561L101.396 34.0016L100.862 34.8471C101.385 35.1773 101.94 35.4277 102.526 35.595L102.8 34.6334Z" fill="black" mask="url(#path-25-inside-9_4635_233)"/>
<mask id="path-27-inside-10_4635_233" fill="white">
<path d="M109.61 34.6805V30.0003H107.317V29.2515H112.769V30.0003H110.452V34.6805H109.61Z"/>
</mask>
<path d="M109.61 34.6805V30.0003H107.317V29.2515H112.769V30.0003H110.452V34.6805H109.61Z" fill="black"/>
<path d="M109.61 34.6805H108.61V35.6805H109.61V34.6805ZM109.61 30.0003H110.61V29.0003H109.61V30.0003ZM107.317 30.0003H106.317V31.0003H107.317V30.0003ZM107.317 29.2515V28.2515H106.317V29.2515H107.317ZM112.769 29.2515H113.769V28.2515H112.769V29.2515ZM112.769 30.0003V31.0003H113.769V30.0003H112.769ZM110.452 30.0003V29.0003H109.452V30.0003H110.452ZM110.452 34.6805V35.6805H111.452V34.6805H110.452ZM109.61 34.6805H110.61V30.0003H109.61H108.61V34.6805H109.61ZM109.61 30.0003V29.0003H107.317V30.0003V31.0003H109.61V30.0003ZM107.317 30.0003H108.317V29.2515H107.317H106.317V30.0003H107.317ZM107.317 29.2515V30.2515H112.769V29.2515V28.2515H107.317V29.2515ZM112.769 29.2515H111.769V30.0003H112.769H113.769V29.2515H112.769ZM112.769 30.0003V29.0003H110.452V30.0003V31.0003H112.769V30.0003ZM110.452 30.0003H109.452V34.6805H110.452H111.452V30.0003H110.452ZM110.452 34.6805V33.6805H109.61V34.6805V35.6805H110.452V34.6805Z" fill="black" mask="url(#path-27-inside-10_4635_233)"/>
<mask id="path-29-inside-11_4635_233" fill="white">
<path d="M116.466 34.8675C115.601 34.8909 114.735 34.6101 114.08 34.0485C112.933 33.0422 112.816 31.3105 113.822 30.1873C113.892 30.0937 113.986 30.0001 114.08 29.9299C115.507 28.8534 117.473 28.8534 118.877 29.9299C120.023 30.9361 120.117 32.6678 119.111 33.8144C119.041 33.908 118.947 33.9783 118.877 34.0485C118.198 34.6101 117.332 34.8909 116.466 34.8675ZM116.466 34.0719C117.122 34.0953 117.753 33.8847 118.245 33.4868C119.064 32.7848 119.158 31.5212 118.456 30.7021C118.385 30.6319 118.315 30.5617 118.245 30.4915C117.753 30.0937 117.122 29.8831 116.466 29.9065C115.835 29.8831 115.203 30.0937 114.688 30.4915C113.869 31.2169 113.775 32.4572 114.477 33.2996C114.548 33.3698 114.618 33.44 114.688 33.5102C115.203 33.8846 115.811 34.0953 116.466 34.0719Z"/>
</mask>
<path d="M116.466 34.8675C115.601 34.8909 114.735 34.6101 114.08 34.0485C112.933 33.0422 112.816 31.3105 113.822 30.1873C113.892 30.0937 113.986 30.0001 114.08 29.9299C115.507 28.8534 117.473 28.8534 118.877 29.9299C120.023 30.9361 120.117 32.6678 119.111 33.8144C119.041 33.908 118.947 33.9783 118.877 34.0485C118.198 34.6101 117.332 34.8909 116.466 34.8675ZM116.466 34.0719C117.122 34.0953 117.753 33.8847 118.245 33.4868C119.064 32.7848 119.158 31.5212 118.456 30.7021C118.385 30.6319 118.315 30.5617 118.245 30.4915C117.753 30.0937 117.122 29.8831 116.466 29.9065C115.835 29.8831 115.203 30.0937 114.688 30.4915C113.869 31.2169 113.775 32.4572 114.477 33.2996C114.548 33.3698 114.618 33.44 114.688 33.5102C115.203 33.8846 115.811 34.0953 116.466 34.0719Z" fill="black"/>
<path d="M116.466 34.8675L116.493 33.8679L116.466 33.8671L116.439 33.8679L116.466 34.8675ZM114.08 34.0485L113.42 34.8001L113.429 34.8077L114.08 34.0485ZM113.822 30.1873L114.567 30.8545L114.596 30.8221L114.622 30.7873L113.822 30.1873ZM114.08 29.9299L114.68 30.7299L114.682 30.7283L114.08 29.9299ZM118.877 29.9299L119.536 29.1783L119.511 29.1564L119.485 29.1363L118.877 29.9299ZM119.111 33.8144L118.359 33.1549L118.334 33.1837L118.311 33.2144L119.111 33.8144ZM118.877 34.0485L119.514 34.8188L119.551 34.7888L119.584 34.7556L118.877 34.0485ZM116.466 34.0719L116.502 33.0725L116.466 33.0712L116.431 33.0725L116.466 34.0719ZM118.245 33.4868L118.874 34.2641L118.885 34.2552L118.896 34.2461L118.245 33.4868ZM118.456 30.7021L119.215 30.0513L119.19 30.0222L119.163 29.995L118.456 30.7021ZM118.245 30.4915L118.952 29.7844L118.915 29.7473L118.874 29.7143L118.245 30.4915ZM116.466 29.9065L116.429 30.9058L116.466 30.9072L116.502 30.9059L116.466 29.9065ZM114.688 30.4915L114.077 29.7002L114.05 29.7207L114.025 29.7429L114.688 30.4915ZM114.477 33.2996L113.709 33.9398L113.738 33.9747L113.77 34.0067L114.477 33.2996ZM114.688 33.5102L113.981 34.2173L114.036 34.2728L114.1 34.319L114.688 33.5102ZM116.466 34.8675L116.439 33.8679C115.8 33.8851 115.182 33.676 114.73 33.2892L114.08 34.0485L113.429 34.8077C114.288 35.5442 115.401 35.8966 116.493 35.8671L116.466 34.8675ZM114.08 34.0485L114.739 33.2968C114.001 32.6489 113.941 31.5538 114.567 30.8545L113.822 30.1873L113.077 29.5201C111.691 31.0673 111.865 33.4355 113.42 34.8001L114.08 34.0485ZM113.822 30.1873L114.622 30.7873C114.635 30.7695 114.662 30.7432 114.68 30.7299L114.08 29.9299L113.48 29.1299C113.31 29.2569 113.149 29.4179 113.022 29.5873L113.822 30.1873ZM114.08 29.9299L114.682 30.7283C115.756 29.9184 117.226 29.9245 118.268 30.7235L118.877 29.9299L119.485 29.1363C117.719 27.7824 115.258 27.7885 113.477 29.1315L114.08 29.9299ZM118.877 29.9299L118.217 30.6815C118.939 31.315 119.01 32.4136 118.359 33.1549L119.111 33.8144L119.862 34.474C121.224 32.922 121.108 30.5573 119.536 29.1783L118.877 29.9299ZM119.111 33.8144L118.311 33.2144C118.329 33.1901 118.339 33.1836 118.313 33.2074C118.298 33.2213 118.289 33.2298 118.261 33.2549C118.239 33.2749 118.205 33.3059 118.17 33.3413L118.877 34.0485L119.584 34.7556C119.583 34.7559 119.588 34.7518 119.605 34.736C119.617 34.7253 119.648 34.6971 119.674 34.673C119.73 34.6208 119.822 34.5324 119.911 34.4144L119.111 33.8144ZM118.877 34.0485L118.239 33.2781C117.756 33.6779 117.129 33.885 116.493 33.8679L116.466 34.8675L116.439 35.8671C117.535 35.8967 118.64 35.5422 119.514 34.8188L118.877 34.0485ZM116.466 34.0719L116.431 35.0712C117.322 35.1031 118.191 34.8169 118.874 34.2641L118.245 33.4868L117.616 32.7096C117.316 32.9524 116.921 33.0875 116.502 33.0725L116.466 34.0719ZM118.245 33.4868L118.896 34.2461C120.137 33.1825 120.274 31.2872 119.215 30.0513L118.456 30.7021L117.696 31.3529C118.041 31.7551 117.991 32.3871 117.594 32.7276L118.245 33.4868ZM118.456 30.7021L119.163 29.995C119.128 29.9599 119.092 29.9248 119.057 29.8897C119.022 29.8546 118.987 29.8195 118.952 29.7844L118.245 30.4915L117.538 31.1986C117.573 31.2337 117.608 31.2688 117.643 31.3039C117.678 31.339 117.713 31.3741 117.748 31.4092L118.456 30.7021ZM118.245 30.4915L118.874 29.7143C118.191 29.1614 117.322 28.8753 116.431 28.9071L116.466 29.9065L116.502 30.9059C116.921 30.8909 117.316 31.026 117.616 31.2688L118.245 30.4915ZM116.466 29.9065L116.503 28.9072C115.626 28.8747 114.767 29.1667 114.077 29.7002L114.688 30.4915L115.299 31.2828C115.639 31.0207 116.043 30.8915 116.429 30.9058L116.466 29.9065ZM114.688 30.4915L114.025 29.7429C112.8 30.8275 112.662 32.683 113.709 33.9398L114.477 33.2996L115.246 32.6594C114.889 32.2314 114.937 31.6064 115.351 31.2401L114.688 30.4915ZM114.477 33.2996L113.77 34.0067C113.811 34.0476 113.835 34.0711 113.876 34.112C113.892 34.1287 113.872 34.1085 113.889 34.1252C113.902 34.138 113.889 34.1256 113.902 34.1384C113.927 34.164 113.903 34.1391 113.928 34.1647C113.943 34.1794 113.94 34.1763 113.955 34.191C113.955 34.1912 113.958 34.1942 113.958 34.1943C113.958 34.195 113.96 34.1969 113.961 34.1976C113.98 34.216 113.944 34.1808 113.963 34.1992C113.963 34.1994 113.963 34.1995 113.963 34.1997C113.963 34.1998 113.963 34.1999 113.964 34.2001C113.964 34.2002 113.964 34.2003 113.964 34.2005C113.964 34.2006 113.964 34.2007 113.964 34.2009C113.965 34.2015 113.965 34.2011 113.965 34.2017C113.966 34.2024 113.965 34.2018 113.966 34.2025C113.968 34.2046 113.966 34.2021 113.968 34.2042C113.976 34.213 113.961 34.197 113.969 34.2058C113.97 34.2066 113.969 34.2058 113.97 34.2066C113.971 34.2079 113.97 34.2062 113.971 34.2075C113.973 34.2095 113.972 34.2088 113.974 34.2108C113.976 34.2121 113.98 34.216 113.981 34.2173L114.688 33.5102L115.395 32.8031C115.331 32.7389 115.354 32.7621 115.29 32.6978C115.231 32.6387 115.296 32.7043 115.237 32.6452C115.189 32.5975 115.258 32.6665 115.211 32.6188C115.21 32.6181 115.208 32.6163 115.208 32.6156C115.204 32.6123 115.207 32.6155 115.204 32.6123C115.204 32.6121 115.204 32.612 115.204 32.6119C115.204 32.6117 115.204 32.6116 115.203 32.6114C115.203 32.6113 115.203 32.6112 115.203 32.611C115.203 32.6109 115.203 32.6108 115.203 32.6106C115.202 32.6105 115.202 32.6103 115.202 32.6102C115.202 32.6101 115.202 32.6099 115.202 32.6098C115.202 32.6097 115.201 32.6095 115.201 32.6094C115.201 32.6092 115.201 32.6091 115.201 32.609C115.2 32.6082 115.201 32.6089 115.2 32.6082C115.199 32.6069 115.2 32.6086 115.199 32.6073C115.198 32.6059 115.2 32.608 115.198 32.6065C115.198 32.6063 115.198 32.6059 115.198 32.6057C115.19 32.5981 115.204 32.6117 115.196 32.604C115.195 32.6029 115.196 32.6043 115.195 32.6032C115.194 32.6021 115.195 32.6035 115.194 32.6024C115.193 32.6014 115.192 32.6001 115.191 32.5991C115.19 32.5977 115.191 32.5989 115.189 32.5975C115.189 32.597 115.188 32.5963 115.188 32.5958C115.188 32.5956 115.187 32.5952 115.187 32.595C115.187 32.5949 115.187 32.5947 115.187 32.5946C115.186 32.5944 115.186 32.5943 115.186 32.5942C115.156 32.5643 115.214 32.6224 115.184 32.5925L114.477 33.2996ZM114.688 33.5102L114.1 34.319C114.776 34.811 115.601 35.1034 116.502 35.0712L116.466 34.0719L116.431 33.0725C116.021 33.0871 115.629 32.9583 115.276 32.7015L114.688 33.5102Z" fill="black" mask="url(#path-29-inside-11_4635_233)"/>
<mask id="path-31-inside-12_4635_233" fill="white">
<path d="M122.059 32.3166V34.7035H121.193V29.2511H124.938C125.406 29.2277 125.874 29.3681 126.248 29.6489C126.552 29.9297 126.739 30.3275 126.716 30.7487C126.716 31.1231 126.599 31.4741 126.342 31.755C126.084 32.0358 125.757 32.223 125.359 32.2698L126.88 34.6801H125.967L124.423 32.2932H122.059V32.3166ZM122.059 31.5209H124.961C125.195 31.5443 125.429 31.4741 125.64 31.3337C125.803 31.1933 125.874 30.9827 125.874 30.7955C125.897 30.5849 125.803 30.3977 125.64 30.2573C125.452 30.1169 125.195 30.0467 124.961 30.0701H122.059V31.5209Z"/>
</mask>
<path d="M122.059 32.3166V34.7035H121.193V29.2511H124.938C125.406 29.2277 125.874 29.3681 126.248 29.6489C126.552 29.9297 126.739 30.3275 126.716 30.7487C126.716 31.1231 126.599 31.4741 126.342 31.755C126.084 32.0358 125.757 32.223 125.359 32.2698L126.88 34.6801H125.967L124.423 32.2932H122.059V32.3166ZM122.059 31.5209H124.961C125.195 31.5443 125.429 31.4741 125.64 31.3337C125.803 31.1933 125.874 30.9827 125.874 30.7955C125.897 30.5849 125.803 30.3977 125.64 30.2573C125.452 30.1169 125.195 30.0467 124.961 30.0701H122.059V31.5209Z" fill="black"/>
<path d="M122.059 34.7035V35.7035H123.059V34.7035H122.059ZM121.193 34.7035H120.193V35.7035H121.193V34.7035ZM121.193 29.2511V28.2511H120.193V29.2511H121.193ZM124.938 29.2511V30.2511H124.963L124.988 30.2498L124.938 29.2511ZM126.248 29.6489L126.926 28.9141L126.889 28.8795L126.848 28.8489L126.248 29.6489ZM126.716 30.7487L125.718 30.6932L125.716 30.721V30.7487H126.716ZM125.359 32.2698L125.242 31.2766L123.667 31.462L124.513 32.8035L125.359 32.2698ZM126.88 34.6801V35.6801H128.693L127.726 34.1464L126.88 34.6801ZM125.967 34.6801L125.128 35.2233L125.423 35.6801H125.967V34.6801ZM124.423 32.2932L125.262 31.7499L124.967 31.2932H124.423V32.2932ZM122.059 32.2932V31.2932H121.059V32.2932H122.059ZM122.059 31.5209H121.059V32.5209H122.059V31.5209ZM124.961 31.5209L125.06 30.5259L125.011 30.5209H124.961V31.5209ZM125.64 31.3337L126.194 32.1658L126.245 32.1323L126.29 32.093L125.64 31.3337ZM125.874 30.7955L124.88 30.6851L124.874 30.7401V30.7955H125.874ZM125.64 30.2573L126.29 29.498L126.266 29.4768L126.24 29.4573L125.64 30.2573ZM124.961 30.0701V31.0701H125.011L125.06 31.0651L124.961 30.0701ZM122.059 30.0701V29.0701H121.059V30.0701H122.059ZM122.059 32.3166H121.059V34.7035H122.059H123.059V32.3166H122.059ZM122.059 34.7035V33.7035H121.193V34.7035V35.7035H122.059V34.7035ZM121.193 34.7035H122.193V29.2511H121.193H120.193V34.7035H121.193ZM121.193 29.2511V30.2511H124.938V29.2511V28.2511H121.193V29.2511ZM124.938 29.2511L124.988 30.2498C125.226 30.2379 125.464 30.3106 125.648 30.4489L126.248 29.6489L126.848 28.8489C126.284 28.4255 125.585 28.2174 124.888 28.2523L124.938 29.2511ZM126.248 29.6489L125.57 30.3837C125.685 30.4903 125.722 30.6093 125.718 30.6932L126.716 30.7487L127.714 30.8042C127.757 30.0457 127.419 29.3691 126.926 28.9141L126.248 29.6489ZM126.716 30.7487H125.716C125.716 30.9077 125.671 31.007 125.604 31.0792L126.342 31.755L127.079 32.4307C127.527 31.9413 127.716 31.3385 127.716 30.7487H126.716ZM126.342 31.755L125.604 31.0792C125.491 31.2035 125.376 31.2609 125.242 31.2766L125.359 32.2698L125.476 33.2629C126.138 33.1851 126.678 32.868 127.079 32.4307L126.342 31.755ZM125.359 32.2698L124.513 32.8035L126.034 35.2138L126.88 34.6801L127.726 34.1464L126.204 31.7361L125.359 32.2698ZM126.88 34.6801V33.6801H125.967V34.6801V35.6801H126.88V34.6801ZM125.967 34.6801L126.807 34.1368L125.262 31.7499L124.423 32.2932L123.583 32.8364L125.128 35.2233L125.967 34.6801ZM124.423 32.2932V31.2932H122.059V32.2932V33.2932H124.423V32.2932ZM122.059 32.2932H121.059V32.3166H122.059H123.059V32.2932H122.059ZM122.059 31.5209V32.5209H124.961V31.5209V30.5209H122.059V31.5209ZM124.961 31.5209L124.861 32.516C125.367 32.5666 125.829 32.4094 126.194 32.1658L125.64 31.3337L125.085 30.5017C125.057 30.5201 125.041 30.5254 125.038 30.5263C125.036 30.5267 125.038 30.5261 125.042 30.5257C125.047 30.5253 125.053 30.5252 125.06 30.5259L124.961 31.5209ZM125.64 31.3337L126.29 32.093C126.724 31.7216 126.874 31.2051 126.874 30.7955H125.874H124.874C124.874 30.768 124.878 30.7389 124.892 30.7058C124.906 30.6705 124.935 30.6206 124.989 30.5745L125.64 31.3337ZM125.874 30.7955L126.867 30.9059C126.935 30.2973 126.647 29.804 126.29 29.498L125.64 30.2573L124.989 31.0165C124.977 31.0061 124.943 30.9738 124.915 30.9117C124.885 30.845 124.871 30.7645 124.88 30.6851L125.874 30.7955ZM125.64 30.2573L126.24 29.4573C125.848 29.1635 125.34 29.0272 124.861 29.075L124.961 30.0701L125.06 31.0651C125.056 31.0656 125.053 31.0656 125.051 31.0656C125.049 31.0657 125.048 31.0656 125.048 31.0656C125.048 31.0656 125.049 31.0656 125.05 31.0658C125.051 31.0659 125.052 31.0662 125.053 31.0665C125.055 31.0672 125.056 31.0677 125.055 31.0671C125.054 31.0666 125.048 31.0639 125.04 31.0573L125.64 30.2573ZM124.961 30.0701V29.0701H122.059V30.0701V31.0701H124.961V30.0701ZM122.059 30.0701H121.059V31.5209H122.059H123.059V30.0701H122.059Z" fill="black" mask="url(#path-31-inside-12_4635_233)"/>
<mask id="path-33-inside-13_4635_233" fill="white">
<path d="M128.26 34.6805V29.2515H133.385V30.0471H129.126V31.4044H131.911V32.1766H129.126V33.9082H133.619V34.6805H128.26Z"/>
</mask>
<path d="M128.26 34.6805V29.2515H133.385V30.0471H129.126V31.4044H131.911V32.1766H129.126V33.9082H133.619V34.6805H128.26Z" fill="black"/>
<path d="M128.26 34.6805H127.26V35.6805H128.26V34.6805ZM128.26 29.2515V28.2515H127.26V29.2515H128.26ZM133.385 29.2515H134.385V28.2515H133.385V29.2515ZM133.385 30.0471V31.0471H134.385V30.0471H133.385ZM129.126 30.0471V29.0471H128.126V30.0471H129.126ZM129.126 31.4044H128.126V32.4044H129.126V31.4044ZM131.911 31.4044H132.911V30.4044H131.911V31.4044ZM131.911 32.1766V33.1766H132.911V32.1766H131.911ZM129.126 32.1766V31.1766H128.126V32.1766H129.126ZM129.126 33.9082H128.126V34.9082H129.126V33.9082ZM133.619 33.9082H134.619V32.9082H133.619V33.9082ZM133.619 34.6805V35.6805H134.619V34.6805H133.619ZM128.26 34.6805H129.26V29.2515H128.26H127.26V34.6805H128.26ZM128.26 29.2515V30.2515H133.385V29.2515V28.2515H128.26V29.2515ZM133.385 29.2515H132.385V30.0471H133.385H134.385V29.2515H133.385ZM133.385 30.0471V29.0471H129.126V30.0471V31.0471H133.385V30.0471ZM129.126 30.0471H128.126V31.4044H129.126H130.126V30.0471H129.126ZM129.126 31.4044V32.4044H131.911V31.4044V30.4044H129.126V31.4044ZM131.911 31.4044H130.911V32.1766H131.911H132.911V31.4044H131.911ZM131.911 32.1766V31.1766H129.126V32.1766V33.1766H131.911V32.1766ZM129.126 32.1766H128.126V33.9082H129.126H130.126V32.1766H129.126ZM129.126 33.9082V34.9082H133.619V33.9082V32.9082H129.126V33.9082ZM133.619 33.9082H132.619V34.6805H133.619H134.619V33.9082H133.619ZM133.619 34.6805V33.6805H128.26V34.6805V35.6805H133.619V34.6805Z" fill="black" mask="url(#path-33-inside-13_4635_233)"/>
<path d="M96.317 30.7417C96.3535 31.0523 96.5416 31.3293 96.819 31.4878L96.8307 31.4946L96.8434 31.5005L98.0817 32.1196L97.2789 33.2349C97.2452 32.9277 97.0726 32.6283 96.7516 32.479L96.7526 32.478L95.5133 31.8579L96.317 30.7417Z" fill="black" stroke="black"/>
</svg>
