<svg width="200" height="20" viewBox="0 0 200 20" fill="none" xmlns="http://www.w3.org/2000/svg">
<g clip-path="url(#clip0_4631_16549)">
<path d="M180.933 0.783691C190.425 0.783818 198.237 8.84101 198.722 19.0532H197.613C197.13 9.61242 189.878 2.05823 180.933 2.05811C171.988 2.05811 164.738 9.61239 164.255 19.0532H163.144C163.63 8.84089 171.441 0.783691 180.933 0.783691Z" fill="black" stroke="black"/>
<path d="M180.932 7.12988C184.009 7.13014 186.819 8.38666 188.94 10.46L189.355 10.8848C191.326 13.0044 192.614 15.867 192.828 19.0537H192.573C192.374 16.1842 191.273 13.5808 189.569 11.5723L189.2 11.1572L188.795 10.7422C186.725 8.72029 183.966 7.47852 180.931 7.47852C177.897 7.47852 175.137 8.71816 173.067 10.7422L172.663 11.1572C170.749 13.216 169.504 15.9826 169.291 19.0537H169.035C169.235 16.0768 170.372 13.3832 172.127 11.3135L172.507 10.8848C174.672 8.55926 177.648 7.1304 180.932 7.12988Z" fill="black" stroke="black"/>
<path d="M56.9856 0.5V19.0557H55.9768V0.5H56.9856Z" fill="black" stroke="black"/>
<path d="M65.7245 0.5L85.9169 17.125L86.7343 17.7979V0.5H87.7411V19.0537H86.3885L66.1835 2.54199L65.3671 1.875V19.0537H64.3583V0.5H65.7245Z" fill="black" stroke="black"/>
<path d="M137.308 0.5V17.4482L138.167 16.5645L153.781 0.5H155.393L147.745 8.44336L147.429 8.77246L147.728 9.11719L156.331 19.0557H154.872L147.018 9.9834L146.659 9.56934L146.28 9.96387L137.527 19.0537H137.238V19.0557H137.135V19.0537H136.299V0.5H137.308Z" fill="black" stroke="black"/>
<path d="M112.023 0.783691C121.515 0.783848 129.328 8.84113 129.812 19.0532H128.702C128.22 9.61241 120.968 2.05826 112.023 2.05811C103.078 2.05811 95.8258 9.61231 95.3435 19.0532H94.2332C94.7171 8.84103 102.531 0.783691 112.023 0.783691Z" fill="black" stroke="black"/>
<path d="M112.023 7.12988H112.026C115.102 7.12996 117.913 8.38633 120.035 10.46L120.45 10.8848C122.42 13.0044 123.708 15.867 123.922 19.0537H123.667C123.467 16.1845 122.368 13.581 120.664 11.5723L120.295 11.1572L119.889 10.7422C117.817 8.72052 115.06 7.47854 112.023 7.47852C108.986 7.47852 106.227 8.71814 104.157 10.7422L103.753 11.1572C101.838 13.2161 100.594 15.9827 100.38 19.0537H100.125C100.325 16.0769 101.462 13.3832 103.216 11.3135L103.596 10.8848C105.761 8.55883 108.74 7.12988 112.023 7.12988Z" fill="black" stroke="black"/>
<path d="M14.6738 0.5L24.9365 17.3496L25.3711 18.0635L25.7939 17.3428L35.6855 0.5H38.1602L49.4619 19.0537H48.0527L37.583 1.86523L37.1484 1.15137L36.7256 1.87207L26.6367 19.0537H24.1396L13.6455 1.82812L13.2188 1.12695L12.791 1.82812L2.29883 19.0537H0.889648L12.1914 0.5H14.6738Z" fill="black" stroke="black"/>
</g>
<defs>
<clipPath id="clip0_4631_16549">
<rect width="200" height="20" fill="white"/>
</clipPath>
</defs>
</svg>
